M48
; DRILL file {KiCad 7.0.10} date Wed Feb 28 00:57:26 2024
; FORMAT={-:-/ absolute / metric / decimal}
; #@! TF.CreationDate,2024-02-28T00:57:26-06:00
; #@! TF.GenerationSoftware,Kicad,Pcbnew,7.0.10
; #@! TF.FileFunction,Plated,1,2,PTH
FMAT,2
METRIC
; #@! TA.AperFunction,Plated,PTH,ViaDrill
T1C0.400
; #@! TA.AperFunction,Plated,PTH,ComponentDrill
T2C0.600
; #@! TA.AperFunction,Plated,PTH,ComponentDrill
T3C1.000
%
G90
G05
T1
X53.9Y-72.6
X54.3Y-58.0
X54.5Y-55.4
X54.6Y-75.8
X55.3Y-82.2
X56.0Y-80.2
X56.8Y-68.1
X57.2Y-77.0
X57.5Y-70.18
X58.42Y-78.125
X58.7Y-58.1
X60.1Y-66.04
X61.0Y-71.03
X61.8Y-60.4
X63.5Y-68.58
X64.098Y-73.498
X64.2Y-61.7
X64.7Y-76.2
X65.1Y-63.9
X67.1Y-64.4
X68.725Y-67.36
X69.1Y-75.9
X69.936Y-64.549
X71.12Y-64.4
X71.8Y-85.1
X72.9Y-64.7
X73.2Y-61.2
X73.66Y-58.42
X74.3Y-78.2
X76.3Y-70.2
X76.5Y-53.3
X76.7Y-65.8
X77.9Y-59.2
X78.8Y-82.6
X79.0Y-61.5
X79.0Y-65.3
X79.2Y-68.4
T3
X51.8Y-55.46
X51.8Y-58.0
X52.0Y-65.1
X52.0Y-67.64
X52.0Y-70.18
T2
X80.645Y-59.58G85X81.745Y-59.58
G05
X80.645Y-68.22G85X81.745Y-68.22
G05
X84.975Y-59.58G85X85.775Y-59.58
G05
X84.975Y-68.22G85X85.775Y-68.22
G05
M30
