G04 #@! TF.GenerationSoftware,KiCad,Pcbnew,7.0.10*
G04 #@! TF.CreationDate,2024-02-28T00:56:54-06:00*
G04 #@! TF.ProjectId,sensingBoard,73656e73-696e-4674-926f-6172642e6b69,rev?*
G04 #@! TF.SameCoordinates,Original*
G04 #@! TF.FileFunction,Legend,Top*
G04 #@! TF.FilePolarity,Positive*
%FSLAX46Y46*%
G04 Gerber Fmt 4.6, Leading zero omitted, Abs format (unit mm)*
G04 Created by KiCad (PCBNEW 7.0.10) date 2024-02-28 00:56:54*
%MOMM*%
%LPD*%
G01*
G04 APERTURE LIST*
G04 Aperture macros list*
%AMRoundRect*
0 Rectangle with rounded corners*
0 $1 Rounding radius*
0 $2 $3 $4 $5 $6 $7 $8 $9 X,Y pos of 4 corners*
0 Add a 4 corners polygon primitive as box body*
4,1,4,$2,$3,$4,$5,$6,$7,$8,$9,$2,$3,0*
0 Add four circle primitives for the rounded corners*
1,1,$1+$1,$2,$3*
1,1,$1+$1,$4,$5*
1,1,$1+$1,$6,$7*
1,1,$1+$1,$8,$9*
0 Add four rect primitives between the rounded corners*
20,1,$1+$1,$2,$3,$4,$5,0*
20,1,$1+$1,$4,$5,$6,$7,0*
20,1,$1+$1,$6,$7,$8,$9,0*
20,1,$1+$1,$8,$9,$2,$3,0*%
%AMFreePoly0*
4,1,19,0.500000,-0.750000,0.000000,-0.750000,0.000000,-0.744911,-0.071157,-0.744911,-0.207708,-0.704816,-0.327430,-0.627875,-0.420627,-0.520320,-0.479746,-0.390866,-0.500000,-0.250000,-0.500000,0.250000,-0.479746,0.390866,-0.420627,0.520320,-0.327430,0.627875,-0.207708,0.704816,-0.071157,0.744911,0.000000,0.744911,0.000000,0.750000,0.500000,0.750000,0.500000,-0.750000,0.500000,-0.750000,
$1*%
%AMFreePoly1*
4,1,19,0.000000,0.744911,0.071157,0.744911,0.207708,0.704816,0.327430,0.627875,0.420627,0.520320,0.479746,0.390866,0.500000,0.250000,0.500000,-0.250000,0.479746,-0.390866,0.420627,-0.520320,0.327430,-0.627875,0.207708,-0.704816,0.071157,-0.744911,0.000000,-0.744911,0.000000,-0.750000,-0.500000,-0.750000,-0.500000,0.750000,0.000000,0.750000,0.000000,0.744911,0.000000,0.744911,
$1*%
%AMFreePoly2*
4,1,6,0.725000,-0.725000,-0.725000,-0.725000,-0.725000,0.125000,-0.125000,0.725000,0.725000,0.725000,0.725000,-0.725000,0.725000,-0.725000,$1*%
G04 Aperture macros list end*
%ADD10C,0.150000*%
%ADD11C,0.146304*%
%ADD12C,0.081280*%
%ADD13C,0.120000*%
%ADD14C,0.127000*%
%ADD15C,0.350000*%
%ADD16RoundRect,0.250000X0.475000X-0.337500X0.475000X0.337500X-0.475000X0.337500X-0.475000X-0.337500X0*%
%ADD17RoundRect,0.050800X0.125000X0.237500X-0.125000X0.237500X-0.125000X-0.237500X0.125000X-0.237500X0*%
%ADD18RoundRect,0.050800X0.187500X0.125000X-0.187500X0.125000X-0.187500X-0.125000X0.187500X-0.125000X0*%
%ADD19RoundRect,0.250000X-0.350000X-0.450000X0.350000X-0.450000X0.350000X0.450000X-0.350000X0.450000X0*%
%ADD20FreePoly0,0.000000*%
%ADD21FreePoly1,0.000000*%
%ADD22R,2.000000X1.350000*%
%ADD23RoundRect,0.250000X0.450000X-0.350000X0.450000X0.350000X-0.450000X0.350000X-0.450000X-0.350000X0*%
%ADD24R,1.700000X1.700000*%
%ADD25O,1.700000X1.700000*%
%ADD26RoundRect,0.250000X-0.325000X-0.450000X0.325000X-0.450000X0.325000X0.450000X-0.325000X0.450000X0*%
%ADD27RoundRect,0.150000X0.150000X0.625000X-0.150000X0.625000X-0.150000X-0.625000X0.150000X-0.625000X0*%
%ADD28RoundRect,0.250000X0.350000X0.650000X-0.350000X0.650000X-0.350000X-0.650000X0.350000X-0.650000X0*%
%ADD29R,2.000000X1.500000*%
%ADD30R,2.000000X3.800000*%
%ADD31R,0.800000X0.400000*%
%ADD32R,0.400000X0.800000*%
%ADD33FreePoly2,0.000000*%
%ADD34R,1.450000X1.450000*%
%ADD35R,0.700000X0.700000*%
%ADD36RoundRect,0.250000X-0.475000X0.337500X-0.475000X-0.337500X0.475000X-0.337500X0.475000X0.337500X0*%
%ADD37RoundRect,0.250000X0.350000X0.450000X-0.350000X0.450000X-0.350000X-0.450000X0.350000X-0.450000X0*%
%ADD38RoundRect,0.050800X0.550000X0.950000X-0.550000X0.950000X-0.550000X-0.950000X0.550000X-0.950000X0*%
%ADD39RoundRect,0.050800X-0.550000X-0.950000X0.550000X-0.950000X0.550000X0.950000X-0.550000X0.950000X0*%
%ADD40FreePoly0,90.000000*%
%ADD41FreePoly1,90.000000*%
%ADD42RoundRect,0.250000X0.337500X0.475000X-0.337500X0.475000X-0.337500X-0.475000X0.337500X-0.475000X0*%
%ADD43C,0.650000*%
%ADD44RoundRect,0.150000X0.425000X-0.150000X0.425000X0.150000X-0.425000X0.150000X-0.425000X-0.150000X0*%
%ADD45RoundRect,0.075000X0.500000X-0.075000X0.500000X0.075000X-0.500000X0.075000X-0.500000X-0.075000X0*%
%ADD46O,2.100000X1.000000*%
%ADD47O,1.800000X1.000000*%
%ADD48RoundRect,0.250000X-0.450000X0.350000X-0.450000X-0.350000X0.450000X-0.350000X0.450000X0.350000X0*%
G04 APERTURE END LIST*
D10*
X55933333Y-85159580D02*
X55885714Y-85207200D01*
X55885714Y-85207200D02*
X55742857Y-85254819D01*
X55742857Y-85254819D02*
X55647619Y-85254819D01*
X55647619Y-85254819D02*
X55504762Y-85207200D01*
X55504762Y-85207200D02*
X55409524Y-85111961D01*
X55409524Y-85111961D02*
X55361905Y-85016723D01*
X55361905Y-85016723D02*
X55314286Y-84826247D01*
X55314286Y-84826247D02*
X55314286Y-84683390D01*
X55314286Y-84683390D02*
X55361905Y-84492914D01*
X55361905Y-84492914D02*
X55409524Y-84397676D01*
X55409524Y-84397676D02*
X55504762Y-84302438D01*
X55504762Y-84302438D02*
X55647619Y-84254819D01*
X55647619Y-84254819D02*
X55742857Y-84254819D01*
X55742857Y-84254819D02*
X55885714Y-84302438D01*
X55885714Y-84302438D02*
X55933333Y-84350057D01*
X56314286Y-84350057D02*
X56361905Y-84302438D01*
X56361905Y-84302438D02*
X56457143Y-84254819D01*
X56457143Y-84254819D02*
X56695238Y-84254819D01*
X56695238Y-84254819D02*
X56790476Y-84302438D01*
X56790476Y-84302438D02*
X56838095Y-84350057D01*
X56838095Y-84350057D02*
X56885714Y-84445295D01*
X56885714Y-84445295D02*
X56885714Y-84540533D01*
X56885714Y-84540533D02*
X56838095Y-84683390D01*
X56838095Y-84683390D02*
X56266667Y-85254819D01*
X56266667Y-85254819D02*
X56885714Y-85254819D01*
D11*
X61394687Y-76844329D02*
X61394687Y-77383874D01*
X61394687Y-77383874D02*
X61426425Y-77447350D01*
X61426425Y-77447350D02*
X61458163Y-77479088D01*
X61458163Y-77479088D02*
X61521639Y-77510825D01*
X61521639Y-77510825D02*
X61648590Y-77510825D01*
X61648590Y-77510825D02*
X61712066Y-77479088D01*
X61712066Y-77479088D02*
X61743804Y-77447350D01*
X61743804Y-77447350D02*
X61775542Y-77383874D01*
X61775542Y-77383874D02*
X61775542Y-76844329D01*
X62061183Y-77479088D02*
X62156397Y-77510825D01*
X62156397Y-77510825D02*
X62315086Y-77510825D01*
X62315086Y-77510825D02*
X62378562Y-77479088D01*
X62378562Y-77479088D02*
X62410300Y-77447350D01*
X62410300Y-77447350D02*
X62442038Y-77383874D01*
X62442038Y-77383874D02*
X62442038Y-77320398D01*
X62442038Y-77320398D02*
X62410300Y-77256922D01*
X62410300Y-77256922D02*
X62378562Y-77225184D01*
X62378562Y-77225184D02*
X62315086Y-77193446D01*
X62315086Y-77193446D02*
X62188135Y-77161708D01*
X62188135Y-77161708D02*
X62124659Y-77129971D01*
X62124659Y-77129971D02*
X62092921Y-77098233D01*
X62092921Y-77098233D02*
X62061183Y-77034757D01*
X62061183Y-77034757D02*
X62061183Y-76971281D01*
X62061183Y-76971281D02*
X62092921Y-76907805D01*
X62092921Y-76907805D02*
X62124659Y-76876067D01*
X62124659Y-76876067D02*
X62188135Y-76844329D01*
X62188135Y-76844329D02*
X62346824Y-76844329D01*
X62346824Y-76844329D02*
X62442038Y-76876067D01*
X62251611Y-76749116D02*
X62251611Y-77606039D01*
X63076796Y-77510825D02*
X62695941Y-77510825D01*
X62886369Y-77510825D02*
X62886369Y-76844329D01*
X62886369Y-76844329D02*
X62822893Y-76939543D01*
X62822893Y-76939543D02*
X62759417Y-77003019D01*
X62759417Y-77003019D02*
X62695941Y-77034757D01*
D10*
X66133333Y-80054819D02*
X65800000Y-79578628D01*
X65561905Y-80054819D02*
X65561905Y-79054819D01*
X65561905Y-79054819D02*
X65942857Y-79054819D01*
X65942857Y-79054819D02*
X66038095Y-79102438D01*
X66038095Y-79102438D02*
X66085714Y-79150057D01*
X66085714Y-79150057D02*
X66133333Y-79245295D01*
X66133333Y-79245295D02*
X66133333Y-79388152D01*
X66133333Y-79388152D02*
X66085714Y-79483390D01*
X66085714Y-79483390D02*
X66038095Y-79531009D01*
X66038095Y-79531009D02*
X65942857Y-79578628D01*
X65942857Y-79578628D02*
X65561905Y-79578628D01*
X66609524Y-80054819D02*
X66800000Y-80054819D01*
X66800000Y-80054819D02*
X66895238Y-80007200D01*
X66895238Y-80007200D02*
X66942857Y-79959580D01*
X66942857Y-79959580D02*
X67038095Y-79816723D01*
X67038095Y-79816723D02*
X67085714Y-79626247D01*
X67085714Y-79626247D02*
X67085714Y-79245295D01*
X67085714Y-79245295D02*
X67038095Y-79150057D01*
X67038095Y-79150057D02*
X66990476Y-79102438D01*
X66990476Y-79102438D02*
X66895238Y-79054819D01*
X66895238Y-79054819D02*
X66704762Y-79054819D01*
X66704762Y-79054819D02*
X66609524Y-79102438D01*
X66609524Y-79102438D02*
X66561905Y-79150057D01*
X66561905Y-79150057D02*
X66514286Y-79245295D01*
X66514286Y-79245295D02*
X66514286Y-79483390D01*
X66514286Y-79483390D02*
X66561905Y-79578628D01*
X66561905Y-79578628D02*
X66609524Y-79626247D01*
X66609524Y-79626247D02*
X66704762Y-79673866D01*
X66704762Y-79673866D02*
X66895238Y-79673866D01*
X66895238Y-79673866D02*
X66990476Y-79626247D01*
X66990476Y-79626247D02*
X67038095Y-79578628D01*
X67038095Y-79578628D02*
X67085714Y-79483390D01*
X71647619Y-79807200D02*
X71790476Y-79854819D01*
X71790476Y-79854819D02*
X72028571Y-79854819D01*
X72028571Y-79854819D02*
X72123809Y-79807200D01*
X72123809Y-79807200D02*
X72171428Y-79759580D01*
X72171428Y-79759580D02*
X72219047Y-79664342D01*
X72219047Y-79664342D02*
X72219047Y-79569104D01*
X72219047Y-79569104D02*
X72171428Y-79473866D01*
X72171428Y-79473866D02*
X72123809Y-79426247D01*
X72123809Y-79426247D02*
X72028571Y-79378628D01*
X72028571Y-79378628D02*
X71838095Y-79331009D01*
X71838095Y-79331009D02*
X71742857Y-79283390D01*
X71742857Y-79283390D02*
X71695238Y-79235771D01*
X71695238Y-79235771D02*
X71647619Y-79140533D01*
X71647619Y-79140533D02*
X71647619Y-79045295D01*
X71647619Y-79045295D02*
X71695238Y-78950057D01*
X71695238Y-78950057D02*
X71742857Y-78902438D01*
X71742857Y-78902438D02*
X71838095Y-78854819D01*
X71838095Y-78854819D02*
X72076190Y-78854819D01*
X72076190Y-78854819D02*
X72219047Y-78902438D01*
X72504762Y-78854819D02*
X73076190Y-78854819D01*
X72790476Y-79854819D02*
X72790476Y-78854819D01*
X73361905Y-79569104D02*
X73838095Y-79569104D01*
X73266667Y-79854819D02*
X73600000Y-78854819D01*
X73600000Y-78854819D02*
X73933333Y-79854819D01*
X74123810Y-78854819D02*
X74695238Y-78854819D01*
X74409524Y-79854819D02*
X74409524Y-78854819D01*
X75552381Y-79854819D02*
X74980953Y-79854819D01*
X75266667Y-79854819D02*
X75266667Y-78854819D01*
X75266667Y-78854819D02*
X75171429Y-78997676D01*
X75171429Y-78997676D02*
X75076191Y-79092914D01*
X75076191Y-79092914D02*
X74980953Y-79140533D01*
X58152380Y-51254819D02*
X57819047Y-50778628D01*
X57580952Y-51254819D02*
X57580952Y-50254819D01*
X57580952Y-50254819D02*
X57961904Y-50254819D01*
X57961904Y-50254819D02*
X58057142Y-50302438D01*
X58057142Y-50302438D02*
X58104761Y-50350057D01*
X58104761Y-50350057D02*
X58152380Y-50445295D01*
X58152380Y-50445295D02*
X58152380Y-50588152D01*
X58152380Y-50588152D02*
X58104761Y-50683390D01*
X58104761Y-50683390D02*
X58057142Y-50731009D01*
X58057142Y-50731009D02*
X57961904Y-50778628D01*
X57961904Y-50778628D02*
X57580952Y-50778628D01*
X58533333Y-51207200D02*
X58676190Y-51254819D01*
X58676190Y-51254819D02*
X58914285Y-51254819D01*
X58914285Y-51254819D02*
X59009523Y-51207200D01*
X59009523Y-51207200D02*
X59057142Y-51159580D01*
X59057142Y-51159580D02*
X59104761Y-51064342D01*
X59104761Y-51064342D02*
X59104761Y-50969104D01*
X59104761Y-50969104D02*
X59057142Y-50873866D01*
X59057142Y-50873866D02*
X59009523Y-50826247D01*
X59009523Y-50826247D02*
X58914285Y-50778628D01*
X58914285Y-50778628D02*
X58723809Y-50731009D01*
X58723809Y-50731009D02*
X58628571Y-50683390D01*
X58628571Y-50683390D02*
X58580952Y-50635771D01*
X58580952Y-50635771D02*
X58533333Y-50540533D01*
X58533333Y-50540533D02*
X58533333Y-50445295D01*
X58533333Y-50445295D02*
X58580952Y-50350057D01*
X58580952Y-50350057D02*
X58628571Y-50302438D01*
X58628571Y-50302438D02*
X58723809Y-50254819D01*
X58723809Y-50254819D02*
X58961904Y-50254819D01*
X58961904Y-50254819D02*
X59104761Y-50302438D01*
X59390476Y-50254819D02*
X59961904Y-50254819D01*
X59676190Y-51254819D02*
X59676190Y-50254819D01*
X71233333Y-73854819D02*
X70900000Y-73378628D01*
X70661905Y-73854819D02*
X70661905Y-72854819D01*
X70661905Y-72854819D02*
X71042857Y-72854819D01*
X71042857Y-72854819D02*
X71138095Y-72902438D01*
X71138095Y-72902438D02*
X71185714Y-72950057D01*
X71185714Y-72950057D02*
X71233333Y-73045295D01*
X71233333Y-73045295D02*
X71233333Y-73188152D01*
X71233333Y-73188152D02*
X71185714Y-73283390D01*
X71185714Y-73283390D02*
X71138095Y-73331009D01*
X71138095Y-73331009D02*
X71042857Y-73378628D01*
X71042857Y-73378628D02*
X70661905Y-73378628D01*
X71804762Y-73283390D02*
X71709524Y-73235771D01*
X71709524Y-73235771D02*
X71661905Y-73188152D01*
X71661905Y-73188152D02*
X71614286Y-73092914D01*
X71614286Y-73092914D02*
X71614286Y-73045295D01*
X71614286Y-73045295D02*
X71661905Y-72950057D01*
X71661905Y-72950057D02*
X71709524Y-72902438D01*
X71709524Y-72902438D02*
X71804762Y-72854819D01*
X71804762Y-72854819D02*
X71995238Y-72854819D01*
X71995238Y-72854819D02*
X72090476Y-72902438D01*
X72090476Y-72902438D02*
X72138095Y-72950057D01*
X72138095Y-72950057D02*
X72185714Y-73045295D01*
X72185714Y-73045295D02*
X72185714Y-73092914D01*
X72185714Y-73092914D02*
X72138095Y-73188152D01*
X72138095Y-73188152D02*
X72090476Y-73235771D01*
X72090476Y-73235771D02*
X71995238Y-73283390D01*
X71995238Y-73283390D02*
X71804762Y-73283390D01*
X71804762Y-73283390D02*
X71709524Y-73331009D01*
X71709524Y-73331009D02*
X71661905Y-73378628D01*
X71661905Y-73378628D02*
X71614286Y-73473866D01*
X71614286Y-73473866D02*
X71614286Y-73664342D01*
X71614286Y-73664342D02*
X71661905Y-73759580D01*
X71661905Y-73759580D02*
X71709524Y-73807200D01*
X71709524Y-73807200D02*
X71804762Y-73854819D01*
X71804762Y-73854819D02*
X71995238Y-73854819D01*
X71995238Y-73854819D02*
X72090476Y-73807200D01*
X72090476Y-73807200D02*
X72138095Y-73759580D01*
X72138095Y-73759580D02*
X72185714Y-73664342D01*
X72185714Y-73664342D02*
X72185714Y-73473866D01*
X72185714Y-73473866D02*
X72138095Y-73378628D01*
X72138095Y-73378628D02*
X72090476Y-73331009D01*
X72090476Y-73331009D02*
X71995238Y-73283390D01*
X51666666Y-72404819D02*
X51666666Y-73119104D01*
X51666666Y-73119104D02*
X51619047Y-73261961D01*
X51619047Y-73261961D02*
X51523809Y-73357200D01*
X51523809Y-73357200D02*
X51380952Y-73404819D01*
X51380952Y-73404819D02*
X51285714Y-73404819D01*
X52095238Y-72500057D02*
X52142857Y-72452438D01*
X52142857Y-72452438D02*
X52238095Y-72404819D01*
X52238095Y-72404819D02*
X52476190Y-72404819D01*
X52476190Y-72404819D02*
X52571428Y-72452438D01*
X52571428Y-72452438D02*
X52619047Y-72500057D01*
X52619047Y-72500057D02*
X52666666Y-72595295D01*
X52666666Y-72595295D02*
X52666666Y-72690533D01*
X52666666Y-72690533D02*
X52619047Y-72833390D01*
X52619047Y-72833390D02*
X52047619Y-73404819D01*
X52047619Y-73404819D02*
X52666666Y-73404819D01*
X65611905Y-81954819D02*
X65611905Y-80954819D01*
X65611905Y-80954819D02*
X65850000Y-80954819D01*
X65850000Y-80954819D02*
X65992857Y-81002438D01*
X65992857Y-81002438D02*
X66088095Y-81097676D01*
X66088095Y-81097676D02*
X66135714Y-81192914D01*
X66135714Y-81192914D02*
X66183333Y-81383390D01*
X66183333Y-81383390D02*
X66183333Y-81526247D01*
X66183333Y-81526247D02*
X66135714Y-81716723D01*
X66135714Y-81716723D02*
X66088095Y-81811961D01*
X66088095Y-81811961D02*
X65992857Y-81907200D01*
X65992857Y-81907200D02*
X65850000Y-81954819D01*
X65850000Y-81954819D02*
X65611905Y-81954819D01*
X66564286Y-81050057D02*
X66611905Y-81002438D01*
X66611905Y-81002438D02*
X66707143Y-80954819D01*
X66707143Y-80954819D02*
X66945238Y-80954819D01*
X66945238Y-80954819D02*
X67040476Y-81002438D01*
X67040476Y-81002438D02*
X67088095Y-81050057D01*
X67088095Y-81050057D02*
X67135714Y-81145295D01*
X67135714Y-81145295D02*
X67135714Y-81240533D01*
X67135714Y-81240533D02*
X67088095Y-81383390D01*
X67088095Y-81383390D02*
X66516667Y-81954819D01*
X66516667Y-81954819D02*
X67135714Y-81954819D01*
X78666666Y-83454819D02*
X78666666Y-84169104D01*
X78666666Y-84169104D02*
X78619047Y-84311961D01*
X78619047Y-84311961D02*
X78523809Y-84407200D01*
X78523809Y-84407200D02*
X78380952Y-84454819D01*
X78380952Y-84454819D02*
X78285714Y-84454819D01*
X79571428Y-83788152D02*
X79571428Y-84454819D01*
X79333333Y-83407200D02*
X79095238Y-84121485D01*
X79095238Y-84121485D02*
X79714285Y-84121485D01*
X62233333Y-84959580D02*
X62185714Y-85007200D01*
X62185714Y-85007200D02*
X62042857Y-85054819D01*
X62042857Y-85054819D02*
X61947619Y-85054819D01*
X61947619Y-85054819D02*
X61804762Y-85007200D01*
X61804762Y-85007200D02*
X61709524Y-84911961D01*
X61709524Y-84911961D02*
X61661905Y-84816723D01*
X61661905Y-84816723D02*
X61614286Y-84626247D01*
X61614286Y-84626247D02*
X61614286Y-84483390D01*
X61614286Y-84483390D02*
X61661905Y-84292914D01*
X61661905Y-84292914D02*
X61709524Y-84197676D01*
X61709524Y-84197676D02*
X61804762Y-84102438D01*
X61804762Y-84102438D02*
X61947619Y-84054819D01*
X61947619Y-84054819D02*
X62042857Y-84054819D01*
X62042857Y-84054819D02*
X62185714Y-84102438D01*
X62185714Y-84102438D02*
X62233333Y-84150057D01*
X63185714Y-85054819D02*
X62614286Y-85054819D01*
X62900000Y-85054819D02*
X62900000Y-84054819D01*
X62900000Y-84054819D02*
X62804762Y-84197676D01*
X62804762Y-84197676D02*
X62709524Y-84292914D01*
X62709524Y-84292914D02*
X62614286Y-84340533D01*
X65611905Y-84054819D02*
X65611905Y-83054819D01*
X65611905Y-83054819D02*
X65850000Y-83054819D01*
X65850000Y-83054819D02*
X65992857Y-83102438D01*
X65992857Y-83102438D02*
X66088095Y-83197676D01*
X66088095Y-83197676D02*
X66135714Y-83292914D01*
X66135714Y-83292914D02*
X66183333Y-83483390D01*
X66183333Y-83483390D02*
X66183333Y-83626247D01*
X66183333Y-83626247D02*
X66135714Y-83816723D01*
X66135714Y-83816723D02*
X66088095Y-83911961D01*
X66088095Y-83911961D02*
X65992857Y-84007200D01*
X65992857Y-84007200D02*
X65850000Y-84054819D01*
X65850000Y-84054819D02*
X65611905Y-84054819D01*
X67135714Y-84054819D02*
X66564286Y-84054819D01*
X66850000Y-84054819D02*
X66850000Y-83054819D01*
X66850000Y-83054819D02*
X66754762Y-83197676D01*
X66754762Y-83197676D02*
X66659524Y-83292914D01*
X66659524Y-83292914D02*
X66564286Y-83340533D01*
X66233333Y-85954819D02*
X65900000Y-85478628D01*
X65661905Y-85954819D02*
X65661905Y-84954819D01*
X65661905Y-84954819D02*
X66042857Y-84954819D01*
X66042857Y-84954819D02*
X66138095Y-85002438D01*
X66138095Y-85002438D02*
X66185714Y-85050057D01*
X66185714Y-85050057D02*
X66233333Y-85145295D01*
X66233333Y-85145295D02*
X66233333Y-85288152D01*
X66233333Y-85288152D02*
X66185714Y-85383390D01*
X66185714Y-85383390D02*
X66138095Y-85431009D01*
X66138095Y-85431009D02*
X66042857Y-85478628D01*
X66042857Y-85478628D02*
X65661905Y-85478628D01*
X67090476Y-84954819D02*
X66900000Y-84954819D01*
X66900000Y-84954819D02*
X66804762Y-85002438D01*
X66804762Y-85002438D02*
X66757143Y-85050057D01*
X66757143Y-85050057D02*
X66661905Y-85192914D01*
X66661905Y-85192914D02*
X66614286Y-85383390D01*
X66614286Y-85383390D02*
X66614286Y-85764342D01*
X66614286Y-85764342D02*
X66661905Y-85859580D01*
X66661905Y-85859580D02*
X66709524Y-85907200D01*
X66709524Y-85907200D02*
X66804762Y-85954819D01*
X66804762Y-85954819D02*
X66995238Y-85954819D01*
X66995238Y-85954819D02*
X67090476Y-85907200D01*
X67090476Y-85907200D02*
X67138095Y-85859580D01*
X67138095Y-85859580D02*
X67185714Y-85764342D01*
X67185714Y-85764342D02*
X67185714Y-85526247D01*
X67185714Y-85526247D02*
X67138095Y-85431009D01*
X67138095Y-85431009D02*
X67090476Y-85383390D01*
X67090476Y-85383390D02*
X66995238Y-85335771D01*
X66995238Y-85335771D02*
X66804762Y-85335771D01*
X66804762Y-85335771D02*
X66709524Y-85383390D01*
X66709524Y-85383390D02*
X66661905Y-85431009D01*
X66661905Y-85431009D02*
X66614286Y-85526247D01*
X81988095Y-73054819D02*
X81988095Y-73864342D01*
X81988095Y-73864342D02*
X82035714Y-73959580D01*
X82035714Y-73959580D02*
X82083333Y-74007200D01*
X82083333Y-74007200D02*
X82178571Y-74054819D01*
X82178571Y-74054819D02*
X82369047Y-74054819D01*
X82369047Y-74054819D02*
X82464285Y-74007200D01*
X82464285Y-74007200D02*
X82511904Y-73959580D01*
X82511904Y-73959580D02*
X82559523Y-73864342D01*
X82559523Y-73864342D02*
X82559523Y-73054819D01*
X83559523Y-74054819D02*
X82988095Y-74054819D01*
X83273809Y-74054819D02*
X83273809Y-73054819D01*
X83273809Y-73054819D02*
X83178571Y-73197676D01*
X83178571Y-73197676D02*
X83083333Y-73292914D01*
X83083333Y-73292914D02*
X82988095Y-73340533D01*
X51341666Y-60264819D02*
X51341666Y-60979104D01*
X51341666Y-60979104D02*
X51294047Y-61121961D01*
X51294047Y-61121961D02*
X51198809Y-61217200D01*
X51198809Y-61217200D02*
X51055952Y-61264819D01*
X51055952Y-61264819D02*
X50960714Y-61264819D01*
X52341666Y-61264819D02*
X51770238Y-61264819D01*
X52055952Y-61264819D02*
X52055952Y-60264819D01*
X52055952Y-60264819D02*
X51960714Y-60407676D01*
X51960714Y-60407676D02*
X51865476Y-60502914D01*
X51865476Y-60502914D02*
X51770238Y-60550533D01*
X76238095Y-60254819D02*
X76238095Y-61064342D01*
X76238095Y-61064342D02*
X76285714Y-61159580D01*
X76285714Y-61159580D02*
X76333333Y-61207200D01*
X76333333Y-61207200D02*
X76428571Y-61254819D01*
X76428571Y-61254819D02*
X76619047Y-61254819D01*
X76619047Y-61254819D02*
X76714285Y-61207200D01*
X76714285Y-61207200D02*
X76761904Y-61159580D01*
X76761904Y-61159580D02*
X76809523Y-61064342D01*
X76809523Y-61064342D02*
X76809523Y-60254819D01*
X77238095Y-60350057D02*
X77285714Y-60302438D01*
X77285714Y-60302438D02*
X77380952Y-60254819D01*
X77380952Y-60254819D02*
X77619047Y-60254819D01*
X77619047Y-60254819D02*
X77714285Y-60302438D01*
X77714285Y-60302438D02*
X77761904Y-60350057D01*
X77761904Y-60350057D02*
X77809523Y-60445295D01*
X77809523Y-60445295D02*
X77809523Y-60540533D01*
X77809523Y-60540533D02*
X77761904Y-60683390D01*
X77761904Y-60683390D02*
X77190476Y-61254819D01*
X77190476Y-61254819D02*
X77809523Y-61254819D01*
X64238094Y-52719104D02*
X64714284Y-52719104D01*
X64142856Y-53004819D02*
X64476189Y-52004819D01*
X64476189Y-52004819D02*
X64809522Y-53004819D01*
X65142856Y-52338152D02*
X65142856Y-53004819D01*
X65142856Y-52433390D02*
X65190475Y-52385771D01*
X65190475Y-52385771D02*
X65285713Y-52338152D01*
X65285713Y-52338152D02*
X65428570Y-52338152D01*
X65428570Y-52338152D02*
X65523808Y-52385771D01*
X65523808Y-52385771D02*
X65571427Y-52481009D01*
X65571427Y-52481009D02*
X65571427Y-53004819D01*
X65904761Y-52338152D02*
X66285713Y-52338152D01*
X66047618Y-52004819D02*
X66047618Y-52861961D01*
X66047618Y-52861961D02*
X66095237Y-52957200D01*
X66095237Y-52957200D02*
X66190475Y-53004819D01*
X66190475Y-53004819D02*
X66285713Y-53004819D01*
X66999999Y-52957200D02*
X66904761Y-53004819D01*
X66904761Y-53004819D02*
X66714285Y-53004819D01*
X66714285Y-53004819D02*
X66619047Y-52957200D01*
X66619047Y-52957200D02*
X66571428Y-52861961D01*
X66571428Y-52861961D02*
X66571428Y-52481009D01*
X66571428Y-52481009D02*
X66619047Y-52385771D01*
X66619047Y-52385771D02*
X66714285Y-52338152D01*
X66714285Y-52338152D02*
X66904761Y-52338152D01*
X66904761Y-52338152D02*
X66999999Y-52385771D01*
X66999999Y-52385771D02*
X67047618Y-52481009D01*
X67047618Y-52481009D02*
X67047618Y-52576247D01*
X67047618Y-52576247D02*
X66571428Y-52671485D01*
X67476190Y-52338152D02*
X67476190Y-53004819D01*
X67476190Y-52433390D02*
X67523809Y-52385771D01*
X67523809Y-52385771D02*
X67619047Y-52338152D01*
X67619047Y-52338152D02*
X67761904Y-52338152D01*
X67761904Y-52338152D02*
X67857142Y-52385771D01*
X67857142Y-52385771D02*
X67904761Y-52481009D01*
X67904761Y-52481009D02*
X67904761Y-53004819D01*
X68380952Y-52338152D02*
X68380952Y-53004819D01*
X68380952Y-52433390D02*
X68428571Y-52385771D01*
X68428571Y-52385771D02*
X68523809Y-52338152D01*
X68523809Y-52338152D02*
X68666666Y-52338152D01*
X68666666Y-52338152D02*
X68761904Y-52385771D01*
X68761904Y-52385771D02*
X68809523Y-52481009D01*
X68809523Y-52481009D02*
X68809523Y-53004819D01*
X69714285Y-53004819D02*
X69714285Y-52481009D01*
X69714285Y-52481009D02*
X69666666Y-52385771D01*
X69666666Y-52385771D02*
X69571428Y-52338152D01*
X69571428Y-52338152D02*
X69380952Y-52338152D01*
X69380952Y-52338152D02*
X69285714Y-52385771D01*
X69714285Y-52957200D02*
X69619047Y-53004819D01*
X69619047Y-53004819D02*
X69380952Y-53004819D01*
X69380952Y-53004819D02*
X69285714Y-52957200D01*
X69285714Y-52957200D02*
X69238095Y-52861961D01*
X69238095Y-52861961D02*
X69238095Y-52766723D01*
X69238095Y-52766723D02*
X69285714Y-52671485D01*
X69285714Y-52671485D02*
X69380952Y-52623866D01*
X69380952Y-52623866D02*
X69619047Y-52623866D01*
X69619047Y-52623866D02*
X69714285Y-52576247D01*
X70904762Y-52719104D02*
X71380952Y-52719104D01*
X70809524Y-53004819D02*
X71142857Y-52004819D01*
X71142857Y-52004819D02*
X71476190Y-53004819D01*
X71809524Y-53004819D02*
X71809524Y-52338152D01*
X71809524Y-52528628D02*
X71857143Y-52433390D01*
X71857143Y-52433390D02*
X71904762Y-52385771D01*
X71904762Y-52385771D02*
X72000000Y-52338152D01*
X72000000Y-52338152D02*
X72095238Y-52338152D01*
X72809524Y-52957200D02*
X72714286Y-53004819D01*
X72714286Y-53004819D02*
X72523810Y-53004819D01*
X72523810Y-53004819D02*
X72428572Y-52957200D01*
X72428572Y-52957200D02*
X72380953Y-52861961D01*
X72380953Y-52861961D02*
X72380953Y-52481009D01*
X72380953Y-52481009D02*
X72428572Y-52385771D01*
X72428572Y-52385771D02*
X72523810Y-52338152D01*
X72523810Y-52338152D02*
X72714286Y-52338152D01*
X72714286Y-52338152D02*
X72809524Y-52385771D01*
X72809524Y-52385771D02*
X72857143Y-52481009D01*
X72857143Y-52481009D02*
X72857143Y-52576247D01*
X72857143Y-52576247D02*
X72380953Y-52671485D01*
X73714286Y-53004819D02*
X73714286Y-52481009D01*
X73714286Y-52481009D02*
X73666667Y-52385771D01*
X73666667Y-52385771D02*
X73571429Y-52338152D01*
X73571429Y-52338152D02*
X73380953Y-52338152D01*
X73380953Y-52338152D02*
X73285715Y-52385771D01*
X73714286Y-52957200D02*
X73619048Y-53004819D01*
X73619048Y-53004819D02*
X73380953Y-53004819D01*
X73380953Y-53004819D02*
X73285715Y-52957200D01*
X73285715Y-52957200D02*
X73238096Y-52861961D01*
X73238096Y-52861961D02*
X73238096Y-52766723D01*
X73238096Y-52766723D02*
X73285715Y-52671485D01*
X73285715Y-52671485D02*
X73380953Y-52623866D01*
X73380953Y-52623866D02*
X73619048Y-52623866D01*
X73619048Y-52623866D02*
X73714286Y-52576247D01*
X58833333Y-70459580D02*
X58785714Y-70507200D01*
X58785714Y-70507200D02*
X58642857Y-70554819D01*
X58642857Y-70554819D02*
X58547619Y-70554819D01*
X58547619Y-70554819D02*
X58404762Y-70507200D01*
X58404762Y-70507200D02*
X58309524Y-70411961D01*
X58309524Y-70411961D02*
X58261905Y-70316723D01*
X58261905Y-70316723D02*
X58214286Y-70126247D01*
X58214286Y-70126247D02*
X58214286Y-69983390D01*
X58214286Y-69983390D02*
X58261905Y-69792914D01*
X58261905Y-69792914D02*
X58309524Y-69697676D01*
X58309524Y-69697676D02*
X58404762Y-69602438D01*
X58404762Y-69602438D02*
X58547619Y-69554819D01*
X58547619Y-69554819D02*
X58642857Y-69554819D01*
X58642857Y-69554819D02*
X58785714Y-69602438D01*
X58785714Y-69602438D02*
X58833333Y-69650057D01*
X59166667Y-69554819D02*
X59785714Y-69554819D01*
X59785714Y-69554819D02*
X59452381Y-69935771D01*
X59452381Y-69935771D02*
X59595238Y-69935771D01*
X59595238Y-69935771D02*
X59690476Y-69983390D01*
X59690476Y-69983390D02*
X59738095Y-70031009D01*
X59738095Y-70031009D02*
X59785714Y-70126247D01*
X59785714Y-70126247D02*
X59785714Y-70364342D01*
X59785714Y-70364342D02*
X59738095Y-70459580D01*
X59738095Y-70459580D02*
X59690476Y-70507200D01*
X59690476Y-70507200D02*
X59595238Y-70554819D01*
X59595238Y-70554819D02*
X59309524Y-70554819D01*
X59309524Y-70554819D02*
X59214286Y-70507200D01*
X59214286Y-70507200D02*
X59166667Y-70459580D01*
X86533333Y-55454819D02*
X86200000Y-54978628D01*
X85961905Y-55454819D02*
X85961905Y-54454819D01*
X85961905Y-54454819D02*
X86342857Y-54454819D01*
X86342857Y-54454819D02*
X86438095Y-54502438D01*
X86438095Y-54502438D02*
X86485714Y-54550057D01*
X86485714Y-54550057D02*
X86533333Y-54645295D01*
X86533333Y-54645295D02*
X86533333Y-54788152D01*
X86533333Y-54788152D02*
X86485714Y-54883390D01*
X86485714Y-54883390D02*
X86438095Y-54931009D01*
X86438095Y-54931009D02*
X86342857Y-54978628D01*
X86342857Y-54978628D02*
X85961905Y-54978628D01*
X86914286Y-54550057D02*
X86961905Y-54502438D01*
X86961905Y-54502438D02*
X87057143Y-54454819D01*
X87057143Y-54454819D02*
X87295238Y-54454819D01*
X87295238Y-54454819D02*
X87390476Y-54502438D01*
X87390476Y-54502438D02*
X87438095Y-54550057D01*
X87438095Y-54550057D02*
X87485714Y-54645295D01*
X87485714Y-54645295D02*
X87485714Y-54740533D01*
X87485714Y-54740533D02*
X87438095Y-54883390D01*
X87438095Y-54883390D02*
X86866667Y-55454819D01*
X86866667Y-55454819D02*
X87485714Y-55454819D01*
D12*
X61655388Y-80746661D02*
X62278535Y-81681381D01*
X62278535Y-80746661D02*
X61655388Y-81681381D01*
X63124234Y-81681381D02*
X62590108Y-81681381D01*
X62857171Y-81681381D02*
X62857171Y-80746661D01*
X62857171Y-80746661D02*
X62768150Y-80880192D01*
X62768150Y-80880192D02*
X62679129Y-80969213D01*
X62679129Y-80969213D02*
X62590108Y-81013724D01*
D10*
X51554819Y-82761904D02*
X50554819Y-82761904D01*
X50650057Y-82333333D02*
X50602438Y-82285714D01*
X50602438Y-82285714D02*
X50554819Y-82190476D01*
X50554819Y-82190476D02*
X50554819Y-81952381D01*
X50554819Y-81952381D02*
X50602438Y-81857143D01*
X50602438Y-81857143D02*
X50650057Y-81809524D01*
X50650057Y-81809524D02*
X50745295Y-81761905D01*
X50745295Y-81761905D02*
X50840533Y-81761905D01*
X50840533Y-81761905D02*
X50983390Y-81809524D01*
X50983390Y-81809524D02*
X51554819Y-82380952D01*
X51554819Y-82380952D02*
X51554819Y-81761905D01*
X51459580Y-80761905D02*
X51507200Y-80809524D01*
X51507200Y-80809524D02*
X51554819Y-80952381D01*
X51554819Y-80952381D02*
X51554819Y-81047619D01*
X51554819Y-81047619D02*
X51507200Y-81190476D01*
X51507200Y-81190476D02*
X51411961Y-81285714D01*
X51411961Y-81285714D02*
X51316723Y-81333333D01*
X51316723Y-81333333D02*
X51126247Y-81380952D01*
X51126247Y-81380952D02*
X50983390Y-81380952D01*
X50983390Y-81380952D02*
X50792914Y-81333333D01*
X50792914Y-81333333D02*
X50697676Y-81285714D01*
X50697676Y-81285714D02*
X50602438Y-81190476D01*
X50602438Y-81190476D02*
X50554819Y-81047619D01*
X50554819Y-81047619D02*
X50554819Y-80952381D01*
X50554819Y-80952381D02*
X50602438Y-80809524D01*
X50602438Y-80809524D02*
X50650057Y-80761905D01*
X51650057Y-80571429D02*
X51650057Y-79809524D01*
X51269104Y-79619047D02*
X51269104Y-79142857D01*
X51554819Y-79714285D02*
X50554819Y-79380952D01*
X50554819Y-79380952D02*
X51554819Y-79047619D01*
X51554819Y-78714285D02*
X50554819Y-78714285D01*
X50554819Y-78714285D02*
X50554819Y-78476190D01*
X50554819Y-78476190D02*
X50602438Y-78333333D01*
X50602438Y-78333333D02*
X50697676Y-78238095D01*
X50697676Y-78238095D02*
X50792914Y-78190476D01*
X50792914Y-78190476D02*
X50983390Y-78142857D01*
X50983390Y-78142857D02*
X51126247Y-78142857D01*
X51126247Y-78142857D02*
X51316723Y-78190476D01*
X51316723Y-78190476D02*
X51411961Y-78238095D01*
X51411961Y-78238095D02*
X51507200Y-78333333D01*
X51507200Y-78333333D02*
X51554819Y-78476190D01*
X51554819Y-78476190D02*
X51554819Y-78714285D01*
X51554819Y-77714285D02*
X50554819Y-77714285D01*
X50554819Y-77714285D02*
X50554819Y-77476190D01*
X50554819Y-77476190D02*
X50602438Y-77333333D01*
X50602438Y-77333333D02*
X50697676Y-77238095D01*
X50697676Y-77238095D02*
X50792914Y-77190476D01*
X50792914Y-77190476D02*
X50983390Y-77142857D01*
X50983390Y-77142857D02*
X51126247Y-77142857D01*
X51126247Y-77142857D02*
X51316723Y-77190476D01*
X51316723Y-77190476D02*
X51411961Y-77238095D01*
X51411961Y-77238095D02*
X51507200Y-77333333D01*
X51507200Y-77333333D02*
X51554819Y-77476190D01*
X51554819Y-77476190D02*
X51554819Y-77714285D01*
X51554819Y-76142857D02*
X51078628Y-76476190D01*
X51554819Y-76714285D02*
X50554819Y-76714285D01*
X50554819Y-76714285D02*
X50554819Y-76333333D01*
X50554819Y-76333333D02*
X50602438Y-76238095D01*
X50602438Y-76238095D02*
X50650057Y-76190476D01*
X50650057Y-76190476D02*
X50745295Y-76142857D01*
X50745295Y-76142857D02*
X50888152Y-76142857D01*
X50888152Y-76142857D02*
X50983390Y-76190476D01*
X50983390Y-76190476D02*
X51031009Y-76238095D01*
X51031009Y-76238095D02*
X51078628Y-76333333D01*
X51078628Y-76333333D02*
X51078628Y-76714285D01*
X51554819Y-75190476D02*
X51554819Y-75761904D01*
X51554819Y-75476190D02*
X50554819Y-75476190D01*
X50554819Y-75476190D02*
X50697676Y-75571428D01*
X50697676Y-75571428D02*
X50792914Y-75666666D01*
X50792914Y-75666666D02*
X50840533Y-75761904D01*
X55833333Y-63159580D02*
X55785714Y-63207200D01*
X55785714Y-63207200D02*
X55642857Y-63254819D01*
X55642857Y-63254819D02*
X55547619Y-63254819D01*
X55547619Y-63254819D02*
X55404762Y-63207200D01*
X55404762Y-63207200D02*
X55309524Y-63111961D01*
X55309524Y-63111961D02*
X55261905Y-63016723D01*
X55261905Y-63016723D02*
X55214286Y-62826247D01*
X55214286Y-62826247D02*
X55214286Y-62683390D01*
X55214286Y-62683390D02*
X55261905Y-62492914D01*
X55261905Y-62492914D02*
X55309524Y-62397676D01*
X55309524Y-62397676D02*
X55404762Y-62302438D01*
X55404762Y-62302438D02*
X55547619Y-62254819D01*
X55547619Y-62254819D02*
X55642857Y-62254819D01*
X55642857Y-62254819D02*
X55785714Y-62302438D01*
X55785714Y-62302438D02*
X55833333Y-62350057D01*
X56166667Y-62254819D02*
X56833333Y-62254819D01*
X56833333Y-62254819D02*
X56404762Y-63254819D01*
X76833333Y-80597080D02*
X76785714Y-80644700D01*
X76785714Y-80644700D02*
X76642857Y-80692319D01*
X76642857Y-80692319D02*
X76547619Y-80692319D01*
X76547619Y-80692319D02*
X76404762Y-80644700D01*
X76404762Y-80644700D02*
X76309524Y-80549461D01*
X76309524Y-80549461D02*
X76261905Y-80454223D01*
X76261905Y-80454223D02*
X76214286Y-80263747D01*
X76214286Y-80263747D02*
X76214286Y-80120890D01*
X76214286Y-80120890D02*
X76261905Y-79930414D01*
X76261905Y-79930414D02*
X76309524Y-79835176D01*
X76309524Y-79835176D02*
X76404762Y-79739938D01*
X76404762Y-79739938D02*
X76547619Y-79692319D01*
X76547619Y-79692319D02*
X76642857Y-79692319D01*
X76642857Y-79692319D02*
X76785714Y-79739938D01*
X76785714Y-79739938D02*
X76833333Y-79787557D01*
X77738095Y-79692319D02*
X77261905Y-79692319D01*
X77261905Y-79692319D02*
X77214286Y-80168509D01*
X77214286Y-80168509D02*
X77261905Y-80120890D01*
X77261905Y-80120890D02*
X77357143Y-80073271D01*
X77357143Y-80073271D02*
X77595238Y-80073271D01*
X77595238Y-80073271D02*
X77690476Y-80120890D01*
X77690476Y-80120890D02*
X77738095Y-80168509D01*
X77738095Y-80168509D02*
X77785714Y-80263747D01*
X77785714Y-80263747D02*
X77785714Y-80501842D01*
X77785714Y-80501842D02*
X77738095Y-80597080D01*
X77738095Y-80597080D02*
X77690476Y-80644700D01*
X77690476Y-80644700D02*
X77595238Y-80692319D01*
X77595238Y-80692319D02*
X77357143Y-80692319D01*
X77357143Y-80692319D02*
X77261905Y-80644700D01*
X77261905Y-80644700D02*
X77214286Y-80597080D01*
X77442857Y-50931009D02*
X77585714Y-50978628D01*
X77585714Y-50978628D02*
X77633333Y-51026247D01*
X77633333Y-51026247D02*
X77680952Y-51121485D01*
X77680952Y-51121485D02*
X77680952Y-51264342D01*
X77680952Y-51264342D02*
X77633333Y-51359580D01*
X77633333Y-51359580D02*
X77585714Y-51407200D01*
X77585714Y-51407200D02*
X77490476Y-51454819D01*
X77490476Y-51454819D02*
X77109524Y-51454819D01*
X77109524Y-51454819D02*
X77109524Y-50454819D01*
X77109524Y-50454819D02*
X77442857Y-50454819D01*
X77442857Y-50454819D02*
X77538095Y-50502438D01*
X77538095Y-50502438D02*
X77585714Y-50550057D01*
X77585714Y-50550057D02*
X77633333Y-50645295D01*
X77633333Y-50645295D02*
X77633333Y-50740533D01*
X77633333Y-50740533D02*
X77585714Y-50835771D01*
X77585714Y-50835771D02*
X77538095Y-50883390D01*
X77538095Y-50883390D02*
X77442857Y-50931009D01*
X77442857Y-50931009D02*
X77109524Y-50931009D01*
X78300000Y-50454819D02*
X78490476Y-50454819D01*
X78490476Y-50454819D02*
X78585714Y-50502438D01*
X78585714Y-50502438D02*
X78680952Y-50597676D01*
X78680952Y-50597676D02*
X78728571Y-50788152D01*
X78728571Y-50788152D02*
X78728571Y-51121485D01*
X78728571Y-51121485D02*
X78680952Y-51311961D01*
X78680952Y-51311961D02*
X78585714Y-51407200D01*
X78585714Y-51407200D02*
X78490476Y-51454819D01*
X78490476Y-51454819D02*
X78300000Y-51454819D01*
X78300000Y-51454819D02*
X78204762Y-51407200D01*
X78204762Y-51407200D02*
X78109524Y-51311961D01*
X78109524Y-51311961D02*
X78061905Y-51121485D01*
X78061905Y-51121485D02*
X78061905Y-50788152D01*
X78061905Y-50788152D02*
X78109524Y-50597676D01*
X78109524Y-50597676D02*
X78204762Y-50502438D01*
X78204762Y-50502438D02*
X78300000Y-50454819D01*
X79347619Y-50454819D02*
X79538095Y-50454819D01*
X79538095Y-50454819D02*
X79633333Y-50502438D01*
X79633333Y-50502438D02*
X79728571Y-50597676D01*
X79728571Y-50597676D02*
X79776190Y-50788152D01*
X79776190Y-50788152D02*
X79776190Y-51121485D01*
X79776190Y-51121485D02*
X79728571Y-51311961D01*
X79728571Y-51311961D02*
X79633333Y-51407200D01*
X79633333Y-51407200D02*
X79538095Y-51454819D01*
X79538095Y-51454819D02*
X79347619Y-51454819D01*
X79347619Y-51454819D02*
X79252381Y-51407200D01*
X79252381Y-51407200D02*
X79157143Y-51311961D01*
X79157143Y-51311961D02*
X79109524Y-51121485D01*
X79109524Y-51121485D02*
X79109524Y-50788152D01*
X79109524Y-50788152D02*
X79157143Y-50597676D01*
X79157143Y-50597676D02*
X79252381Y-50502438D01*
X79252381Y-50502438D02*
X79347619Y-50454819D01*
X80061905Y-50454819D02*
X80633333Y-50454819D01*
X80347619Y-51454819D02*
X80347619Y-50454819D01*
X55870833Y-60959580D02*
X55823214Y-61007200D01*
X55823214Y-61007200D02*
X55680357Y-61054819D01*
X55680357Y-61054819D02*
X55585119Y-61054819D01*
X55585119Y-61054819D02*
X55442262Y-61007200D01*
X55442262Y-61007200D02*
X55347024Y-60911961D01*
X55347024Y-60911961D02*
X55299405Y-60816723D01*
X55299405Y-60816723D02*
X55251786Y-60626247D01*
X55251786Y-60626247D02*
X55251786Y-60483390D01*
X55251786Y-60483390D02*
X55299405Y-60292914D01*
X55299405Y-60292914D02*
X55347024Y-60197676D01*
X55347024Y-60197676D02*
X55442262Y-60102438D01*
X55442262Y-60102438D02*
X55585119Y-60054819D01*
X55585119Y-60054819D02*
X55680357Y-60054819D01*
X55680357Y-60054819D02*
X55823214Y-60102438D01*
X55823214Y-60102438D02*
X55870833Y-60150057D01*
X56727976Y-60054819D02*
X56537500Y-60054819D01*
X56537500Y-60054819D02*
X56442262Y-60102438D01*
X56442262Y-60102438D02*
X56394643Y-60150057D01*
X56394643Y-60150057D02*
X56299405Y-60292914D01*
X56299405Y-60292914D02*
X56251786Y-60483390D01*
X56251786Y-60483390D02*
X56251786Y-60864342D01*
X56251786Y-60864342D02*
X56299405Y-60959580D01*
X56299405Y-60959580D02*
X56347024Y-61007200D01*
X56347024Y-61007200D02*
X56442262Y-61054819D01*
X56442262Y-61054819D02*
X56632738Y-61054819D01*
X56632738Y-61054819D02*
X56727976Y-61007200D01*
X56727976Y-61007200D02*
X56775595Y-60959580D01*
X56775595Y-60959580D02*
X56823214Y-60864342D01*
X56823214Y-60864342D02*
X56823214Y-60626247D01*
X56823214Y-60626247D02*
X56775595Y-60531009D01*
X56775595Y-60531009D02*
X56727976Y-60483390D01*
X56727976Y-60483390D02*
X56632738Y-60435771D01*
X56632738Y-60435771D02*
X56442262Y-60435771D01*
X56442262Y-60435771D02*
X56347024Y-60483390D01*
X56347024Y-60483390D02*
X56299405Y-60531009D01*
X56299405Y-60531009D02*
X56251786Y-60626247D01*
X71790476Y-86354819D02*
X71790476Y-85354819D01*
X71790476Y-85354819D02*
X72171428Y-85354819D01*
X72171428Y-85354819D02*
X72266666Y-85402438D01*
X72266666Y-85402438D02*
X72314285Y-85450057D01*
X72314285Y-85450057D02*
X72361904Y-85545295D01*
X72361904Y-85545295D02*
X72361904Y-85688152D01*
X72361904Y-85688152D02*
X72314285Y-85783390D01*
X72314285Y-85783390D02*
X72266666Y-85831009D01*
X72266666Y-85831009D02*
X72171428Y-85878628D01*
X72171428Y-85878628D02*
X71790476Y-85878628D01*
X72695238Y-85354819D02*
X72933333Y-86354819D01*
X72933333Y-86354819D02*
X73123809Y-85640533D01*
X73123809Y-85640533D02*
X73314285Y-86354819D01*
X73314285Y-86354819D02*
X73552381Y-85354819D01*
X74504761Y-86354819D02*
X74171428Y-85878628D01*
X73933333Y-86354819D02*
X73933333Y-85354819D01*
X73933333Y-85354819D02*
X74314285Y-85354819D01*
X74314285Y-85354819D02*
X74409523Y-85402438D01*
X74409523Y-85402438D02*
X74457142Y-85450057D01*
X74457142Y-85450057D02*
X74504761Y-85545295D01*
X74504761Y-85545295D02*
X74504761Y-85688152D01*
X74504761Y-85688152D02*
X74457142Y-85783390D01*
X74457142Y-85783390D02*
X74409523Y-85831009D01*
X74409523Y-85831009D02*
X74314285Y-85878628D01*
X74314285Y-85878628D02*
X73933333Y-85878628D01*
X75457142Y-86354819D02*
X74885714Y-86354819D01*
X75171428Y-86354819D02*
X75171428Y-85354819D01*
X75171428Y-85354819D02*
X75076190Y-85497676D01*
X75076190Y-85497676D02*
X74980952Y-85592914D01*
X74980952Y-85592914D02*
X74885714Y-85640533D01*
X86633333Y-57354819D02*
X86300000Y-56878628D01*
X86061905Y-57354819D02*
X86061905Y-56354819D01*
X86061905Y-56354819D02*
X86442857Y-56354819D01*
X86442857Y-56354819D02*
X86538095Y-56402438D01*
X86538095Y-56402438D02*
X86585714Y-56450057D01*
X86585714Y-56450057D02*
X86633333Y-56545295D01*
X86633333Y-56545295D02*
X86633333Y-56688152D01*
X86633333Y-56688152D02*
X86585714Y-56783390D01*
X86585714Y-56783390D02*
X86538095Y-56831009D01*
X86538095Y-56831009D02*
X86442857Y-56878628D01*
X86442857Y-56878628D02*
X86061905Y-56878628D01*
X87585714Y-57354819D02*
X87014286Y-57354819D01*
X87300000Y-57354819D02*
X87300000Y-56354819D01*
X87300000Y-56354819D02*
X87204762Y-56497676D01*
X87204762Y-56497676D02*
X87109524Y-56592914D01*
X87109524Y-56592914D02*
X87014286Y-56640533D01*
X55057142Y-65154819D02*
X54723809Y-64678628D01*
X54485714Y-65154819D02*
X54485714Y-64154819D01*
X54485714Y-64154819D02*
X54866666Y-64154819D01*
X54866666Y-64154819D02*
X54961904Y-64202438D01*
X54961904Y-64202438D02*
X55009523Y-64250057D01*
X55009523Y-64250057D02*
X55057142Y-64345295D01*
X55057142Y-64345295D02*
X55057142Y-64488152D01*
X55057142Y-64488152D02*
X55009523Y-64583390D01*
X55009523Y-64583390D02*
X54961904Y-64631009D01*
X54961904Y-64631009D02*
X54866666Y-64678628D01*
X54866666Y-64678628D02*
X54485714Y-64678628D01*
X56009523Y-65154819D02*
X55438095Y-65154819D01*
X55723809Y-65154819D02*
X55723809Y-64154819D01*
X55723809Y-64154819D02*
X55628571Y-64297676D01*
X55628571Y-64297676D02*
X55533333Y-64392914D01*
X55533333Y-64392914D02*
X55438095Y-64440533D01*
X56628571Y-64154819D02*
X56723809Y-64154819D01*
X56723809Y-64154819D02*
X56819047Y-64202438D01*
X56819047Y-64202438D02*
X56866666Y-64250057D01*
X56866666Y-64250057D02*
X56914285Y-64345295D01*
X56914285Y-64345295D02*
X56961904Y-64535771D01*
X56961904Y-64535771D02*
X56961904Y-64773866D01*
X56961904Y-64773866D02*
X56914285Y-64964342D01*
X56914285Y-64964342D02*
X56866666Y-65059580D01*
X56866666Y-65059580D02*
X56819047Y-65107200D01*
X56819047Y-65107200D02*
X56723809Y-65154819D01*
X56723809Y-65154819D02*
X56628571Y-65154819D01*
X56628571Y-65154819D02*
X56533333Y-65107200D01*
X56533333Y-65107200D02*
X56485714Y-65059580D01*
X56485714Y-65059580D02*
X56438095Y-64964342D01*
X56438095Y-64964342D02*
X56390476Y-64773866D01*
X56390476Y-64773866D02*
X56390476Y-64535771D01*
X56390476Y-64535771D02*
X56438095Y-64345295D01*
X56438095Y-64345295D02*
X56485714Y-64250057D01*
X56485714Y-64250057D02*
X56533333Y-64202438D01*
X56533333Y-64202438D02*
X56628571Y-64154819D01*
X55733333Y-70554819D02*
X55400000Y-70078628D01*
X55161905Y-70554819D02*
X55161905Y-69554819D01*
X55161905Y-69554819D02*
X55542857Y-69554819D01*
X55542857Y-69554819D02*
X55638095Y-69602438D01*
X55638095Y-69602438D02*
X55685714Y-69650057D01*
X55685714Y-69650057D02*
X55733333Y-69745295D01*
X55733333Y-69745295D02*
X55733333Y-69888152D01*
X55733333Y-69888152D02*
X55685714Y-69983390D01*
X55685714Y-69983390D02*
X55638095Y-70031009D01*
X55638095Y-70031009D02*
X55542857Y-70078628D01*
X55542857Y-70078628D02*
X55161905Y-70078628D01*
X56066667Y-69554819D02*
X56685714Y-69554819D01*
X56685714Y-69554819D02*
X56352381Y-69935771D01*
X56352381Y-69935771D02*
X56495238Y-69935771D01*
X56495238Y-69935771D02*
X56590476Y-69983390D01*
X56590476Y-69983390D02*
X56638095Y-70031009D01*
X56638095Y-70031009D02*
X56685714Y-70126247D01*
X56685714Y-70126247D02*
X56685714Y-70364342D01*
X56685714Y-70364342D02*
X56638095Y-70459580D01*
X56638095Y-70459580D02*
X56590476Y-70507200D01*
X56590476Y-70507200D02*
X56495238Y-70554819D01*
X56495238Y-70554819D02*
X56209524Y-70554819D01*
X56209524Y-70554819D02*
X56114286Y-70507200D01*
X56114286Y-70507200D02*
X56066667Y-70459580D01*
X79254819Y-64638094D02*
X78254819Y-64638094D01*
X78254819Y-64638094D02*
X78254819Y-64257142D01*
X78254819Y-64257142D02*
X78302438Y-64161904D01*
X78302438Y-64161904D02*
X78350057Y-64114285D01*
X78350057Y-64114285D02*
X78445295Y-64066666D01*
X78445295Y-64066666D02*
X78588152Y-64066666D01*
X78588152Y-64066666D02*
X78683390Y-64114285D01*
X78683390Y-64114285D02*
X78731009Y-64161904D01*
X78731009Y-64161904D02*
X78778628Y-64257142D01*
X78778628Y-64257142D02*
X78778628Y-64638094D01*
X79254819Y-63114285D02*
X79254819Y-63685713D01*
X79254819Y-63399999D02*
X78254819Y-63399999D01*
X78254819Y-63399999D02*
X78397676Y-63495237D01*
X78397676Y-63495237D02*
X78492914Y-63590475D01*
X78492914Y-63590475D02*
X78540533Y-63685713D01*
X60633333Y-70554819D02*
X60300000Y-70078628D01*
X60061905Y-70554819D02*
X60061905Y-69554819D01*
X60061905Y-69554819D02*
X60442857Y-69554819D01*
X60442857Y-69554819D02*
X60538095Y-69602438D01*
X60538095Y-69602438D02*
X60585714Y-69650057D01*
X60585714Y-69650057D02*
X60633333Y-69745295D01*
X60633333Y-69745295D02*
X60633333Y-69888152D01*
X60633333Y-69888152D02*
X60585714Y-69983390D01*
X60585714Y-69983390D02*
X60538095Y-70031009D01*
X60538095Y-70031009D02*
X60442857Y-70078628D01*
X60442857Y-70078628D02*
X60061905Y-70078628D01*
X61490476Y-69888152D02*
X61490476Y-70554819D01*
X61252381Y-69507200D02*
X61014286Y-70221485D01*
X61014286Y-70221485D02*
X61633333Y-70221485D01*
X62633333Y-70554819D02*
X62300000Y-70078628D01*
X62061905Y-70554819D02*
X62061905Y-69554819D01*
X62061905Y-69554819D02*
X62442857Y-69554819D01*
X62442857Y-69554819D02*
X62538095Y-69602438D01*
X62538095Y-69602438D02*
X62585714Y-69650057D01*
X62585714Y-69650057D02*
X62633333Y-69745295D01*
X62633333Y-69745295D02*
X62633333Y-69888152D01*
X62633333Y-69888152D02*
X62585714Y-69983390D01*
X62585714Y-69983390D02*
X62538095Y-70031009D01*
X62538095Y-70031009D02*
X62442857Y-70078628D01*
X62442857Y-70078628D02*
X62061905Y-70078628D01*
X63538095Y-69554819D02*
X63061905Y-69554819D01*
X63061905Y-69554819D02*
X63014286Y-70031009D01*
X63014286Y-70031009D02*
X63061905Y-69983390D01*
X63061905Y-69983390D02*
X63157143Y-69935771D01*
X63157143Y-69935771D02*
X63395238Y-69935771D01*
X63395238Y-69935771D02*
X63490476Y-69983390D01*
X63490476Y-69983390D02*
X63538095Y-70031009D01*
X63538095Y-70031009D02*
X63585714Y-70126247D01*
X63585714Y-70126247D02*
X63585714Y-70364342D01*
X63585714Y-70364342D02*
X63538095Y-70459580D01*
X63538095Y-70459580D02*
X63490476Y-70507200D01*
X63490476Y-70507200D02*
X63395238Y-70554819D01*
X63395238Y-70554819D02*
X63157143Y-70554819D01*
X63157143Y-70554819D02*
X63061905Y-70507200D01*
X63061905Y-70507200D02*
X63014286Y-70459580D01*
X85533333Y-71459580D02*
X85485714Y-71507200D01*
X85485714Y-71507200D02*
X85342857Y-71554819D01*
X85342857Y-71554819D02*
X85247619Y-71554819D01*
X85247619Y-71554819D02*
X85104762Y-71507200D01*
X85104762Y-71507200D02*
X85009524Y-71411961D01*
X85009524Y-71411961D02*
X84961905Y-71316723D01*
X84961905Y-71316723D02*
X84914286Y-71126247D01*
X84914286Y-71126247D02*
X84914286Y-70983390D01*
X84914286Y-70983390D02*
X84961905Y-70792914D01*
X84961905Y-70792914D02*
X85009524Y-70697676D01*
X85009524Y-70697676D02*
X85104762Y-70602438D01*
X85104762Y-70602438D02*
X85247619Y-70554819D01*
X85247619Y-70554819D02*
X85342857Y-70554819D01*
X85342857Y-70554819D02*
X85485714Y-70602438D01*
X85485714Y-70602438D02*
X85533333Y-70650057D01*
X86390476Y-70888152D02*
X86390476Y-71554819D01*
X86152381Y-70507200D02*
X85914286Y-71221485D01*
X85914286Y-71221485D02*
X86533333Y-71221485D01*
X69233333Y-73854819D02*
X68900000Y-73378628D01*
X68661905Y-73854819D02*
X68661905Y-72854819D01*
X68661905Y-72854819D02*
X69042857Y-72854819D01*
X69042857Y-72854819D02*
X69138095Y-72902438D01*
X69138095Y-72902438D02*
X69185714Y-72950057D01*
X69185714Y-72950057D02*
X69233333Y-73045295D01*
X69233333Y-73045295D02*
X69233333Y-73188152D01*
X69233333Y-73188152D02*
X69185714Y-73283390D01*
X69185714Y-73283390D02*
X69138095Y-73331009D01*
X69138095Y-73331009D02*
X69042857Y-73378628D01*
X69042857Y-73378628D02*
X68661905Y-73378628D01*
X69566667Y-72854819D02*
X70233333Y-72854819D01*
X70233333Y-72854819D02*
X69804762Y-73854819D01*
D13*
X57265000Y-84998752D02*
X57265000Y-84476248D01*
X58735000Y-84998752D02*
X58735000Y-84476248D01*
D14*
X61000000Y-79500000D02*
X55400000Y-79500000D01*
X61000000Y-75300000D02*
X61000000Y-79500000D01*
X55400000Y-79500000D02*
X55400000Y-75300000D01*
X55400000Y-75300000D02*
X61000000Y-75300000D01*
D15*
X61800000Y-79000000D02*
G75*
G03*
X61400000Y-79000000I-200000J0D01*
G01*
X61400000Y-79000000D02*
G75*
G03*
X61800000Y-79000000I200000J0D01*
G01*
D13*
X69072936Y-78765000D02*
X69527064Y-78765000D01*
X69072936Y-80235000D02*
X69527064Y-80235000D01*
X72150000Y-81600000D02*
X72150000Y-81000000D01*
X72850000Y-80300000D02*
X74250000Y-80300000D01*
X74250000Y-82300000D02*
X72850000Y-82300000D01*
X74950000Y-81000000D02*
X74950000Y-81600000D01*
X72850000Y-80300000D02*
G75*
G03*
X72150000Y-81000000I-1J-699999D01*
G01*
X72150000Y-81600000D02*
G75*
G03*
X72850000Y-82300000I699999J-1D01*
G01*
X74950000Y-81000000D02*
G75*
G03*
X74250000Y-80300000I-700000J0D01*
G01*
X74250000Y-82300000D02*
G75*
G03*
X74950000Y-81600000I0J700000D01*
G01*
X60150000Y-52675000D02*
X60150000Y-56375000D01*
X59900000Y-52675000D02*
X60150000Y-52675000D01*
X57500000Y-52675000D02*
X57250000Y-52675000D01*
X57250000Y-52675000D02*
X57250000Y-56375000D01*
X60150000Y-56375000D02*
X59900000Y-56375000D01*
X57250000Y-56375000D02*
X57500000Y-56375000D01*
X70665000Y-70827064D02*
X70665000Y-70372936D01*
X72135000Y-70827064D02*
X72135000Y-70372936D01*
X53330000Y-68910000D02*
X53330000Y-63770000D01*
X53330000Y-68910000D02*
X50670000Y-68910000D01*
X53330000Y-63770000D02*
X50670000Y-63770000D01*
X52000000Y-71510000D02*
X50670000Y-71510000D01*
X50670000Y-71510000D02*
X50670000Y-70180000D01*
X50670000Y-68910000D02*
X50670000Y-63770000D01*
X67490000Y-80540000D02*
X67490000Y-82460000D01*
X67490000Y-82460000D02*
X70350000Y-82460000D01*
X70350000Y-80540000D02*
X67490000Y-80540000D01*
X86810000Y-84165000D02*
X86810000Y-83015000D01*
X86810000Y-83015000D02*
X85760000Y-83015000D01*
X85760000Y-83015000D02*
X85760000Y-82025000D01*
X85640000Y-86135000D02*
X81760000Y-86135000D01*
X80590000Y-84165000D02*
X80590000Y-83015000D01*
X80590000Y-83015000D02*
X81640000Y-83015000D01*
X59665000Y-85098752D02*
X59665000Y-84576248D01*
X61135000Y-85098752D02*
X61135000Y-84576248D01*
X67515000Y-82640000D02*
X67515000Y-84560000D01*
X67515000Y-84560000D02*
X70375000Y-84560000D01*
X70375000Y-82640000D02*
X67515000Y-82640000D01*
X69172936Y-84865000D02*
X69627064Y-84865000D01*
X69172936Y-86335000D02*
X69627064Y-86335000D01*
X86900000Y-79210000D02*
X80890000Y-79210000D01*
X84650000Y-72390000D02*
X80890000Y-72390000D01*
X80890000Y-79210000D02*
X80890000Y-77950000D01*
X80890000Y-72390000D02*
X80890000Y-73650000D01*
X50470000Y-56730000D02*
X50470000Y-59330000D01*
X50470000Y-56730000D02*
X53130000Y-56730000D01*
X50470000Y-59330000D02*
X53130000Y-59330000D01*
X51800000Y-54130000D02*
X53130000Y-54130000D01*
X53130000Y-54130000D02*
X53130000Y-55460000D01*
X53130000Y-56730000D02*
X53130000Y-59330000D01*
X62200000Y-66100000D02*
X62200000Y-66900000D01*
X62200000Y-66900000D02*
X63000000Y-66900000D01*
X62400000Y-50100000D02*
X75600000Y-50100000D01*
X62400000Y-55500000D02*
X75600000Y-55500000D01*
X62400000Y-66700000D02*
X62400000Y-50100000D01*
X63075000Y-49900000D02*
X62225000Y-49900000D01*
X75050000Y-49900000D02*
X75800000Y-49900000D01*
X75600000Y-50100000D02*
X75600000Y-66700000D01*
X75600000Y-66700000D02*
X62400000Y-66700000D01*
X75800000Y-49900000D02*
X75800000Y-50500000D01*
X75800000Y-66100000D02*
X75800000Y-66900000D01*
X75800000Y-66900000D02*
X75000000Y-66900000D01*
X59690750Y-72638748D02*
X59690750Y-73161252D01*
X58220750Y-72638748D02*
X58220750Y-73161252D01*
X83827064Y-55735000D02*
X83372936Y-55735000D01*
X83827064Y-54265000D02*
X83372936Y-54265000D01*
D14*
X60855750Y-81282800D02*
X60855750Y-82176400D01*
X60632150Y-82400000D02*
X57971950Y-82400000D01*
X60555750Y-81500000D02*
X60555750Y-81800000D01*
X60355750Y-82100000D02*
X58255750Y-82100000D01*
X58255750Y-81300000D02*
X60255750Y-81300000D01*
X57955750Y-81800000D02*
X57955750Y-81600000D01*
X57938550Y-81000000D02*
X60572950Y-81000000D01*
X57655750Y-82083800D02*
X57655750Y-81282800D01*
X60632150Y-82400000D02*
G75*
G03*
X60855750Y-82176400I0J223600D01*
G01*
X60855750Y-81282800D02*
G75*
G03*
X60572950Y-81000000I-282799J1D01*
G01*
X60355749Y-82099999D02*
G75*
G03*
X60555750Y-81800000I-49897J249932D01*
G01*
X60555749Y-81500001D02*
G75*
G03*
X60255750Y-81300001I-249999J-49999D01*
G01*
X57955750Y-81800000D02*
G75*
G03*
X58255750Y-82100000I300100J100D01*
G01*
X57655750Y-82083800D02*
G75*
G03*
X57971950Y-82400000I316200J0D01*
G01*
X58255751Y-81300000D02*
G75*
G03*
X57955750Y-81600000I-1J-300000D01*
G01*
X57938550Y-81000000D02*
G75*
G03*
X57655750Y-81282800I0J-282800D01*
G01*
D13*
X53500000Y-80000000D02*
X52900000Y-80000000D01*
X52200000Y-79300000D02*
X52200000Y-77900000D01*
X54200000Y-77900000D02*
X54200000Y-79300000D01*
X52900000Y-77200000D02*
X53500000Y-77200000D01*
X52200000Y-79300000D02*
G75*
G03*
X52900000Y-80000000I699999J-1D01*
G01*
X53500000Y-80000000D02*
G75*
G03*
X54200000Y-79300000I1J699999D01*
G01*
X52900000Y-77200000D02*
G75*
G03*
X52200000Y-77900000I0J-700000D01*
G01*
X54200000Y-77900000D02*
G75*
G03*
X53500000Y-77200000I-700000J0D01*
G01*
X59361252Y-63435000D02*
X58838748Y-63435000D01*
X59361252Y-61965000D02*
X58838748Y-61965000D01*
X76265000Y-83198752D02*
X76265000Y-82676248D01*
X77735000Y-83198752D02*
X77735000Y-82676248D01*
X77250000Y-56725000D02*
X77250000Y-53025000D01*
X77500000Y-56725000D02*
X77250000Y-56725000D01*
X79900000Y-56725000D02*
X80150000Y-56725000D01*
X80150000Y-56725000D02*
X80150000Y-53025000D01*
X77250000Y-53025000D02*
X77500000Y-53025000D01*
X80150000Y-53025000D02*
X79900000Y-53025000D01*
X59398752Y-61235000D02*
X58876248Y-61235000D01*
X59398752Y-59765000D02*
X58876248Y-59765000D01*
X72150000Y-84200000D02*
X72150000Y-83600000D01*
X72850000Y-82900000D02*
X74250000Y-82900000D01*
X74250000Y-84900000D02*
X72850000Y-84900000D01*
X74950000Y-83600000D02*
X74950000Y-84200000D01*
X72850000Y-82900000D02*
G75*
G03*
X72150000Y-83600000I-1J-699999D01*
G01*
X72150000Y-84200000D02*
G75*
G03*
X72850000Y-84900000I699999J-1D01*
G01*
X74950000Y-83600000D02*
G75*
G03*
X74250000Y-82900000I-700000J0D01*
G01*
X74250000Y-84900000D02*
G75*
G03*
X74950000Y-84200000I0J700000D01*
G01*
X83827064Y-57635000D02*
X83372936Y-57635000D01*
X83827064Y-56165000D02*
X83372936Y-56165000D01*
X58872936Y-63965000D02*
X59327064Y-63965000D01*
X58872936Y-65435000D02*
X59327064Y-65435000D01*
X55265000Y-73127064D02*
X55265000Y-72672936D01*
X56735000Y-73127064D02*
X56735000Y-72672936D01*
X84200000Y-68570000D02*
X82500000Y-68570000D01*
X84200000Y-59230000D02*
X82500000Y-59230000D01*
X60165000Y-73127064D02*
X60165000Y-72672936D01*
X61635000Y-73127064D02*
X61635000Y-72672936D01*
X62065000Y-73127064D02*
X62065000Y-72672936D01*
X63535000Y-73127064D02*
X63535000Y-72672936D01*
X82961252Y-71935000D02*
X82438748Y-71935000D01*
X82961252Y-70465000D02*
X82438748Y-70465000D01*
X70035000Y-70372936D02*
X70035000Y-70827064D01*
X68565000Y-70372936D02*
X68565000Y-70827064D01*
%LPC*%
D16*
X58000000Y-85775000D03*
X58000000Y-83700000D03*
D17*
X60450000Y-78962500D03*
D18*
X60512500Y-78150000D03*
X60512500Y-77650000D03*
X60512500Y-77150000D03*
X60512500Y-76650000D03*
D17*
X60450000Y-75837500D03*
X59950000Y-75837500D03*
X59450000Y-75837500D03*
X58950000Y-75837500D03*
X58450000Y-75837500D03*
X57950000Y-75837500D03*
X57450000Y-75837500D03*
X56950000Y-75837500D03*
X56450000Y-75837500D03*
X55950000Y-75837500D03*
D18*
X55887500Y-76650000D03*
X55887500Y-77150000D03*
X55887500Y-77650000D03*
X55887500Y-78150000D03*
D17*
X55950000Y-78962500D03*
X56450000Y-78962500D03*
X56950000Y-78962500D03*
X57450000Y-78962500D03*
X57950000Y-78962500D03*
X58450000Y-78962500D03*
X58950000Y-78962500D03*
X59450000Y-78962500D03*
X59950000Y-78962500D03*
D19*
X68300000Y-79500000D03*
X70300000Y-79500000D03*
D20*
X72900000Y-81300000D03*
D21*
X74200000Y-81300000D03*
D22*
X58700000Y-52450000D03*
X58700000Y-56600000D03*
D23*
X71400000Y-71600000D03*
X71400000Y-69600000D03*
D24*
X52000000Y-70180000D03*
D25*
X52000000Y-67640000D03*
X52000000Y-65100000D03*
D26*
X68325000Y-81500000D03*
X70375000Y-81500000D03*
D27*
X85200000Y-82800000D03*
X84200000Y-82800000D03*
X83200000Y-82800000D03*
X82200000Y-82800000D03*
D28*
X86500000Y-85325000D03*
X80900000Y-85325000D03*
D16*
X60400000Y-85875000D03*
X60400000Y-83800000D03*
D26*
X68350000Y-83600000D03*
X70400000Y-83600000D03*
D19*
X68400000Y-85600000D03*
X70400000Y-85600000D03*
D29*
X85950000Y-78100000D03*
X85950000Y-75800000D03*
D30*
X79650000Y-75800000D03*
D29*
X85950000Y-73500000D03*
D24*
X51800000Y-55460000D03*
D25*
X51800000Y-58000000D03*
D31*
X63100000Y-57100000D03*
X63100000Y-57900000D03*
X63100000Y-58700000D03*
X63100000Y-59500000D03*
X63100000Y-60300000D03*
X63100000Y-61100000D03*
X63100000Y-61900000D03*
X63100000Y-62700000D03*
X63100000Y-63500000D03*
X63100000Y-64300000D03*
X63100000Y-65100000D03*
D32*
X64200000Y-66000000D03*
X65000000Y-66000000D03*
X65800000Y-66000000D03*
X66600000Y-66000000D03*
X67400000Y-66000000D03*
X68200000Y-66000000D03*
X69000000Y-66000000D03*
X69800000Y-66000000D03*
X70600000Y-66000000D03*
X71400000Y-66000000D03*
X72200000Y-66000000D03*
X73000000Y-66000000D03*
X73800000Y-66000000D03*
D31*
X74900000Y-65100000D03*
X74900000Y-64300000D03*
X74900000Y-63500000D03*
X74900000Y-62700000D03*
X74900000Y-61900000D03*
X74900000Y-61100000D03*
X74900000Y-60300000D03*
X74900000Y-59500000D03*
X74900000Y-58700000D03*
X74900000Y-57900000D03*
X74900000Y-57100000D03*
D32*
X73800000Y-56200000D03*
X73000000Y-56200000D03*
X72200000Y-56200000D03*
X71400000Y-56200000D03*
X70600000Y-56200000D03*
X69800000Y-56200000D03*
X69000000Y-56200000D03*
X68200000Y-56200000D03*
X67400000Y-56200000D03*
X66600000Y-56200000D03*
X65800000Y-56200000D03*
X65000000Y-56200000D03*
X64200000Y-56200000D03*
D33*
X67025000Y-59125000D03*
D34*
X67025000Y-61100000D03*
X67025000Y-63075000D03*
X69000000Y-59125000D03*
X69000000Y-61100000D03*
X69000000Y-63075000D03*
X70975000Y-59125000D03*
X70975000Y-61100000D03*
X70975000Y-63075000D03*
D35*
X74950000Y-56150000D03*
X74950000Y-66050000D03*
X63050000Y-66050000D03*
X63050000Y-56150000D03*
D36*
X58955750Y-71862500D03*
X58955750Y-73937500D03*
D37*
X84600000Y-55000000D03*
X82600000Y-55000000D03*
D38*
X58055750Y-81700000D03*
D39*
X60455750Y-81700000D03*
D40*
X53200000Y-79250000D03*
D41*
X53200000Y-77950000D03*
D42*
X60137500Y-62700000D03*
X58062500Y-62700000D03*
D16*
X77000000Y-83975000D03*
X77000000Y-81900000D03*
D22*
X78700000Y-56950000D03*
X78700000Y-52800000D03*
D42*
X60175000Y-60500000D03*
X58100000Y-60500000D03*
D20*
X72900000Y-83900000D03*
D21*
X74200000Y-83900000D03*
D37*
X84600000Y-56900000D03*
X82600000Y-56900000D03*
D19*
X58100000Y-64700000D03*
X60100000Y-64700000D03*
D23*
X56000000Y-73900000D03*
X56000000Y-71900000D03*
D43*
X81695000Y-66790000D03*
X81695000Y-61010000D03*
D44*
X80620000Y-67100000D03*
X80620000Y-66300000D03*
D45*
X80620000Y-65150000D03*
X80620000Y-64150000D03*
X80620000Y-63650000D03*
X80620000Y-62650000D03*
D44*
X80620000Y-61500000D03*
X80620000Y-60700000D03*
X80620000Y-60700000D03*
X80620000Y-61500000D03*
D45*
X80620000Y-62150000D03*
X80620000Y-63150000D03*
X80620000Y-64650000D03*
X80620000Y-65650000D03*
D44*
X80620000Y-66300000D03*
X80620000Y-67100000D03*
D46*
X81195000Y-68220000D03*
D47*
X85375000Y-68220000D03*
D46*
X81195000Y-59580000D03*
D47*
X85375000Y-59580000D03*
D23*
X60900000Y-73900000D03*
X60900000Y-71900000D03*
X62800000Y-73900000D03*
X62800000Y-71900000D03*
D42*
X83737500Y-71200000D03*
X81662500Y-71200000D03*
D48*
X69300000Y-69600000D03*
X69300000Y-71600000D03*
%LPD*%
M02*
