%TF.GenerationSoftware,KiCad,Pcbnew,7.0.10*%
%TF.CreationDate,2024-02-28T00:57:32-06:00*%
%TF.ProjectId,sensingBoard,73656e73-696e-4674-926f-6172642e6b69,rev?*%
%TF.SameCoordinates,Original*%
%TF.FileFunction,Drillmap*%
%TF.FilePolarity,Positive*%
%FSLAX45Y45*%
G04 Gerber Fmt 4.5, Leading zero omitted, Abs format (unit mm)*
G04 Created by KiCad (PCBNEW 7.0.10) date 2024-02-28 00:57:32*
%MOMM*%
%LPD*%
G01*
G04 APERTURE LIST*
%ADD10C,0.100000*%
%ADD11C,0.200000*%
G04 APERTURE END LIST*
D10*
X8800000Y-5200000D02*
X8800000Y-8600000D01*
X8800000Y-5200000D02*
G75*
G03*
X8600000Y-5000000I-200000J0D01*
G01*
X5000000Y-8600000D02*
G75*
G03*
X5200000Y-8800000I200000J0D01*
G01*
X8600000Y-8800000D02*
G75*
G03*
X8800000Y-8600000I0J200000D01*
G01*
X5200000Y-5000000D02*
G75*
G03*
X5000000Y-5200000I0J-200000D01*
G01*
X5200000Y-5000000D02*
X8600000Y-5000000D01*
X5000000Y-8600000D02*
X5000000Y-5200000D01*
X8600000Y-8800000D02*
X5200000Y-8800000D01*
D11*
D10*
X5370000Y-7240000D02*
X5410000Y-7280000D01*
X5410000Y-7240000D02*
X5370000Y-7280000D01*
X5410000Y-5780000D02*
X5450000Y-5820000D01*
X5450000Y-5780000D02*
X5410000Y-5820000D01*
X5430000Y-5520000D02*
X5470000Y-5560000D01*
X5470000Y-5520000D02*
X5430000Y-5560000D01*
X5440000Y-7560000D02*
X5480000Y-7600000D01*
X5480000Y-7560000D02*
X5440000Y-7600000D01*
X5510000Y-8200000D02*
X5550000Y-8240000D01*
X5550000Y-8200000D02*
X5510000Y-8240000D01*
X5580000Y-8000000D02*
X5620000Y-8040000D01*
X5620000Y-8000000D02*
X5580000Y-8040000D01*
X5660000Y-6790000D02*
X5700000Y-6830000D01*
X5700000Y-6790000D02*
X5660000Y-6830000D01*
X5700000Y-7680000D02*
X5740000Y-7720000D01*
X5740000Y-7680000D02*
X5700000Y-7720000D01*
X5730000Y-6998000D02*
X5770000Y-7038000D01*
X5770000Y-6998000D02*
X5730000Y-7038000D01*
X5822000Y-7792500D02*
X5862000Y-7832500D01*
X5862000Y-7792500D02*
X5822000Y-7832500D01*
X5850000Y-5790000D02*
X5890000Y-5830000D01*
X5890000Y-5790000D02*
X5850000Y-5830000D01*
X5990000Y-6584000D02*
X6030000Y-6624000D01*
X6030000Y-6584000D02*
X5990000Y-6624000D01*
X6080000Y-7083000D02*
X6120000Y-7123000D01*
X6120000Y-7083000D02*
X6080000Y-7123000D01*
X6160000Y-6020000D02*
X6200000Y-6060000D01*
X6200000Y-6020000D02*
X6160000Y-6060000D01*
X6330000Y-6838000D02*
X6370000Y-6878000D01*
X6370000Y-6838000D02*
X6330000Y-6878000D01*
X6389844Y-7329844D02*
X6429844Y-7369844D01*
X6429844Y-7329844D02*
X6389844Y-7369844D01*
X6400000Y-6150000D02*
X6440000Y-6190000D01*
X6440000Y-6150000D02*
X6400000Y-6190000D01*
X6450000Y-7600000D02*
X6490000Y-7640000D01*
X6490000Y-7600000D02*
X6450000Y-7640000D01*
X6490000Y-6370000D02*
X6530000Y-6410000D01*
X6530000Y-6370000D02*
X6490000Y-6410000D01*
X6690000Y-6420000D02*
X6730000Y-6460000D01*
X6730000Y-6420000D02*
X6690000Y-6460000D01*
X6852500Y-6715987D02*
X6892500Y-6755987D01*
X6892500Y-6715987D02*
X6852500Y-6755987D01*
X6890000Y-7570000D02*
X6930000Y-7610000D01*
X6930000Y-7570000D02*
X6890000Y-7610000D01*
X6973633Y-6434888D02*
X7013633Y-6474888D01*
X7013633Y-6434888D02*
X6973633Y-6474888D01*
X7092000Y-6420000D02*
X7132000Y-6460000D01*
X7132000Y-6420000D02*
X7092000Y-6460000D01*
X7160000Y-8490000D02*
X7200000Y-8530000D01*
X7200000Y-8490000D02*
X7160000Y-8530000D01*
X7270000Y-6450000D02*
X7310000Y-6490000D01*
X7310000Y-6450000D02*
X7270000Y-6490000D01*
X7300000Y-6100000D02*
X7340000Y-6140000D01*
X7340000Y-6100000D02*
X7300000Y-6140000D01*
X7346000Y-5822000D02*
X7386000Y-5862000D01*
X7386000Y-5822000D02*
X7346000Y-5862000D01*
X7410000Y-7800000D02*
X7450000Y-7840000D01*
X7450000Y-7800000D02*
X7410000Y-7840000D01*
X7610000Y-7000000D02*
X7650000Y-7040000D01*
X7650000Y-7000000D02*
X7610000Y-7040000D01*
X7630000Y-5310000D02*
X7670000Y-5350000D01*
X7670000Y-5310000D02*
X7630000Y-5350000D01*
X7650000Y-6560000D02*
X7690000Y-6600000D01*
X7690000Y-6560000D02*
X7650000Y-6600000D01*
X7770000Y-5900000D02*
X7810000Y-5940000D01*
X7810000Y-5900000D02*
X7770000Y-5940000D01*
X7860000Y-8240000D02*
X7900000Y-8280000D01*
X7900000Y-8240000D02*
X7860000Y-8280000D01*
X7880000Y-6130000D02*
X7920000Y-6170000D01*
X7920000Y-6130000D02*
X7880000Y-6170000D01*
X7880000Y-6510000D02*
X7920000Y-6550000D01*
X7920000Y-6510000D02*
X7880000Y-6550000D01*
X7900000Y-6820000D02*
X7940000Y-6860000D01*
X7940000Y-6820000D02*
X7900000Y-6860000D01*
X8149500Y-5958000D02*
G75*
G03*
X8089500Y-5958000I-30000J0D01*
G01*
X8089500Y-5958000D02*
G75*
G03*
X8149500Y-5958000I30000J0D01*
G01*
X8064500Y-5988000D02*
X8174500Y-5988000D01*
X8174500Y-5988000D02*
G75*
G03*
X8174500Y-5928000I0J30000D01*
G01*
X8174500Y-5928000D02*
X8064500Y-5928000D01*
X8064500Y-5928000D02*
G75*
G03*
X8064500Y-5988000I0J-30000D01*
G01*
X8149500Y-6822000D02*
G75*
G03*
X8089500Y-6822000I-30000J0D01*
G01*
X8089500Y-6822000D02*
G75*
G03*
X8149500Y-6822000I30000J0D01*
G01*
X8064500Y-6852000D02*
X8174500Y-6852000D01*
X8174500Y-6852000D02*
G75*
G03*
X8174500Y-6792000I0J30000D01*
G01*
X8174500Y-6792000D02*
X8064500Y-6792000D01*
X8064500Y-6792000D02*
G75*
G03*
X8064500Y-6852000I0J-30000D01*
G01*
X8567500Y-5958000D02*
G75*
G03*
X8507500Y-5958000I-30000J0D01*
G01*
X8507500Y-5958000D02*
G75*
G03*
X8567500Y-5958000I30000J0D01*
G01*
X8497500Y-5988000D02*
X8577500Y-5988000D01*
X8577500Y-5988000D02*
G75*
G03*
X8577500Y-5928000I0J30000D01*
G01*
X8577500Y-5928000D02*
X8497500Y-5928000D01*
X8497500Y-5928000D02*
G75*
G03*
X8497500Y-5988000I0J-30000D01*
G01*
X8567500Y-6822000D02*
G75*
G03*
X8507500Y-6822000I-30000J0D01*
G01*
X8507500Y-6822000D02*
G75*
G03*
X8567500Y-6822000I30000J0D01*
G01*
X8497500Y-6852000D02*
X8577500Y-6852000D01*
X8577500Y-6852000D02*
G75*
G03*
X8577500Y-6792000I0J30000D01*
G01*
X8577500Y-6792000D02*
X8497500Y-6792000D01*
X8497500Y-6792000D02*
G75*
G03*
X8497500Y-6852000I0J-30000D01*
G01*
X5180000Y-5496000D02*
X5180000Y-5596000D01*
X5130000Y-5546000D02*
X5230000Y-5546000D01*
X5180000Y-5750000D02*
X5180000Y-5850000D01*
X5130000Y-5800000D02*
X5230000Y-5800000D01*
X5200000Y-6460000D02*
X5200000Y-6560000D01*
X5150000Y-6510000D02*
X5250000Y-6510000D01*
X5200000Y-6714000D02*
X5200000Y-6814000D01*
X5150000Y-6764000D02*
X5250000Y-6764000D01*
X5200000Y-6968000D02*
X5200000Y-7068000D01*
X5150000Y-7018000D02*
X5250000Y-7018000D01*
D11*
X5255777Y-9116484D02*
X5255777Y-8916484D01*
X5255777Y-8916484D02*
X5303396Y-8916484D01*
X5303396Y-8916484D02*
X5331967Y-8926008D01*
X5331967Y-8926008D02*
X5351015Y-8945055D01*
X5351015Y-8945055D02*
X5360539Y-8964103D01*
X5360539Y-8964103D02*
X5370063Y-9002198D01*
X5370063Y-9002198D02*
X5370063Y-9030770D01*
X5370063Y-9030770D02*
X5360539Y-9068865D01*
X5360539Y-9068865D02*
X5351015Y-9087912D01*
X5351015Y-9087912D02*
X5331967Y-9106960D01*
X5331967Y-9106960D02*
X5303396Y-9116484D01*
X5303396Y-9116484D02*
X5255777Y-9116484D01*
X5455777Y-9116484D02*
X5455777Y-8983150D01*
X5455777Y-9021246D02*
X5465301Y-9002198D01*
X5465301Y-9002198D02*
X5474824Y-8992674D01*
X5474824Y-8992674D02*
X5493872Y-8983150D01*
X5493872Y-8983150D02*
X5512920Y-8983150D01*
X5579586Y-9116484D02*
X5579586Y-8983150D01*
X5579586Y-8916484D02*
X5570063Y-8926008D01*
X5570063Y-8926008D02*
X5579586Y-8935531D01*
X5579586Y-8935531D02*
X5589110Y-8926008D01*
X5589110Y-8926008D02*
X5579586Y-8916484D01*
X5579586Y-8916484D02*
X5579586Y-8935531D01*
X5703396Y-9116484D02*
X5684348Y-9106960D01*
X5684348Y-9106960D02*
X5674824Y-9087912D01*
X5674824Y-9087912D02*
X5674824Y-8916484D01*
X5808158Y-9116484D02*
X5789110Y-9106960D01*
X5789110Y-9106960D02*
X5779586Y-9087912D01*
X5779586Y-9087912D02*
X5779586Y-8916484D01*
X6036729Y-9116484D02*
X6036729Y-8916484D01*
X6036729Y-8916484D02*
X6103396Y-9059341D01*
X6103396Y-9059341D02*
X6170062Y-8916484D01*
X6170062Y-8916484D02*
X6170062Y-9116484D01*
X6351015Y-9116484D02*
X6351015Y-9011722D01*
X6351015Y-9011722D02*
X6341491Y-8992674D01*
X6341491Y-8992674D02*
X6322443Y-8983150D01*
X6322443Y-8983150D02*
X6284348Y-8983150D01*
X6284348Y-8983150D02*
X6265301Y-8992674D01*
X6351015Y-9106960D02*
X6331967Y-9116484D01*
X6331967Y-9116484D02*
X6284348Y-9116484D01*
X6284348Y-9116484D02*
X6265301Y-9106960D01*
X6265301Y-9106960D02*
X6255777Y-9087912D01*
X6255777Y-9087912D02*
X6255777Y-9068865D01*
X6255777Y-9068865D02*
X6265301Y-9049817D01*
X6265301Y-9049817D02*
X6284348Y-9040293D01*
X6284348Y-9040293D02*
X6331967Y-9040293D01*
X6331967Y-9040293D02*
X6351015Y-9030770D01*
X6446253Y-8983150D02*
X6446253Y-9183150D01*
X6446253Y-8992674D02*
X6465301Y-8983150D01*
X6465301Y-8983150D02*
X6503396Y-8983150D01*
X6503396Y-8983150D02*
X6522443Y-8992674D01*
X6522443Y-8992674D02*
X6531967Y-9002198D01*
X6531967Y-9002198D02*
X6541491Y-9021246D01*
X6541491Y-9021246D02*
X6541491Y-9078389D01*
X6541491Y-9078389D02*
X6531967Y-9097436D01*
X6531967Y-9097436D02*
X6522443Y-9106960D01*
X6522443Y-9106960D02*
X6503396Y-9116484D01*
X6503396Y-9116484D02*
X6465301Y-9116484D01*
X6465301Y-9116484D02*
X6446253Y-9106960D01*
X6627205Y-9097436D02*
X6636729Y-9106960D01*
X6636729Y-9106960D02*
X6627205Y-9116484D01*
X6627205Y-9116484D02*
X6617682Y-9106960D01*
X6617682Y-9106960D02*
X6627205Y-9097436D01*
X6627205Y-9097436D02*
X6627205Y-9116484D01*
X6627205Y-8992674D02*
X6636729Y-9002198D01*
X6636729Y-9002198D02*
X6627205Y-9011722D01*
X6627205Y-9011722D02*
X6617682Y-9002198D01*
X6617682Y-9002198D02*
X6627205Y-8992674D01*
X6627205Y-8992674D02*
X6627205Y-9011722D01*
D10*
X4955000Y-9425000D02*
X4995000Y-9465000D01*
X4995000Y-9425000D02*
X4955000Y-9465000D01*
D11*
X5293872Y-9336484D02*
X5312920Y-9336484D01*
X5312920Y-9336484D02*
X5331967Y-9346008D01*
X5331967Y-9346008D02*
X5341491Y-9355531D01*
X5341491Y-9355531D02*
X5351015Y-9374579D01*
X5351015Y-9374579D02*
X5360539Y-9412674D01*
X5360539Y-9412674D02*
X5360539Y-9460293D01*
X5360539Y-9460293D02*
X5351015Y-9498389D01*
X5351015Y-9498389D02*
X5341491Y-9517436D01*
X5341491Y-9517436D02*
X5331967Y-9526960D01*
X5331967Y-9526960D02*
X5312920Y-9536484D01*
X5312920Y-9536484D02*
X5293872Y-9536484D01*
X5293872Y-9536484D02*
X5274824Y-9526960D01*
X5274824Y-9526960D02*
X5265301Y-9517436D01*
X5265301Y-9517436D02*
X5255777Y-9498389D01*
X5255777Y-9498389D02*
X5246253Y-9460293D01*
X5246253Y-9460293D02*
X5246253Y-9412674D01*
X5246253Y-9412674D02*
X5255777Y-9374579D01*
X5255777Y-9374579D02*
X5265301Y-9355531D01*
X5265301Y-9355531D02*
X5274824Y-9346008D01*
X5274824Y-9346008D02*
X5293872Y-9336484D01*
X5446253Y-9517436D02*
X5455777Y-9526960D01*
X5455777Y-9526960D02*
X5446253Y-9536484D01*
X5446253Y-9536484D02*
X5436729Y-9526960D01*
X5436729Y-9526960D02*
X5446253Y-9517436D01*
X5446253Y-9517436D02*
X5446253Y-9536484D01*
X5627205Y-9403150D02*
X5627205Y-9536484D01*
X5579586Y-9326960D02*
X5531967Y-9469817D01*
X5531967Y-9469817D02*
X5655777Y-9469817D01*
X5770062Y-9336484D02*
X5789110Y-9336484D01*
X5789110Y-9336484D02*
X5808158Y-9346008D01*
X5808158Y-9346008D02*
X5817682Y-9355531D01*
X5817682Y-9355531D02*
X5827205Y-9374579D01*
X5827205Y-9374579D02*
X5836729Y-9412674D01*
X5836729Y-9412674D02*
X5836729Y-9460293D01*
X5836729Y-9460293D02*
X5827205Y-9498389D01*
X5827205Y-9498389D02*
X5817682Y-9517436D01*
X5817682Y-9517436D02*
X5808158Y-9526960D01*
X5808158Y-9526960D02*
X5789110Y-9536484D01*
X5789110Y-9536484D02*
X5770062Y-9536484D01*
X5770062Y-9536484D02*
X5751015Y-9526960D01*
X5751015Y-9526960D02*
X5741491Y-9517436D01*
X5741491Y-9517436D02*
X5731967Y-9498389D01*
X5731967Y-9498389D02*
X5722443Y-9460293D01*
X5722443Y-9460293D02*
X5722443Y-9412674D01*
X5722443Y-9412674D02*
X5731967Y-9374579D01*
X5731967Y-9374579D02*
X5741491Y-9355531D01*
X5741491Y-9355531D02*
X5751015Y-9346008D01*
X5751015Y-9346008D02*
X5770062Y-9336484D01*
X5960539Y-9336484D02*
X5979586Y-9336484D01*
X5979586Y-9336484D02*
X5998634Y-9346008D01*
X5998634Y-9346008D02*
X6008158Y-9355531D01*
X6008158Y-9355531D02*
X6017682Y-9374579D01*
X6017682Y-9374579D02*
X6027205Y-9412674D01*
X6027205Y-9412674D02*
X6027205Y-9460293D01*
X6027205Y-9460293D02*
X6017682Y-9498389D01*
X6017682Y-9498389D02*
X6008158Y-9517436D01*
X6008158Y-9517436D02*
X5998634Y-9526960D01*
X5998634Y-9526960D02*
X5979586Y-9536484D01*
X5979586Y-9536484D02*
X5960539Y-9536484D01*
X5960539Y-9536484D02*
X5941491Y-9526960D01*
X5941491Y-9526960D02*
X5931967Y-9517436D01*
X5931967Y-9517436D02*
X5922443Y-9498389D01*
X5922443Y-9498389D02*
X5912920Y-9460293D01*
X5912920Y-9460293D02*
X5912920Y-9412674D01*
X5912920Y-9412674D02*
X5922443Y-9374579D01*
X5922443Y-9374579D02*
X5931967Y-9355531D01*
X5931967Y-9355531D02*
X5941491Y-9346008D01*
X5941491Y-9346008D02*
X5960539Y-9336484D01*
X6112920Y-9536484D02*
X6112920Y-9403150D01*
X6112920Y-9422198D02*
X6122443Y-9412674D01*
X6122443Y-9412674D02*
X6141491Y-9403150D01*
X6141491Y-9403150D02*
X6170063Y-9403150D01*
X6170063Y-9403150D02*
X6189110Y-9412674D01*
X6189110Y-9412674D02*
X6198634Y-9431722D01*
X6198634Y-9431722D02*
X6198634Y-9536484D01*
X6198634Y-9431722D02*
X6208158Y-9412674D01*
X6208158Y-9412674D02*
X6227205Y-9403150D01*
X6227205Y-9403150D02*
X6255777Y-9403150D01*
X6255777Y-9403150D02*
X6274824Y-9412674D01*
X6274824Y-9412674D02*
X6284348Y-9431722D01*
X6284348Y-9431722D02*
X6284348Y-9536484D01*
X6379586Y-9536484D02*
X6379586Y-9403150D01*
X6379586Y-9422198D02*
X6389110Y-9412674D01*
X6389110Y-9412674D02*
X6408158Y-9403150D01*
X6408158Y-9403150D02*
X6436729Y-9403150D01*
X6436729Y-9403150D02*
X6455777Y-9412674D01*
X6455777Y-9412674D02*
X6465301Y-9431722D01*
X6465301Y-9431722D02*
X6465301Y-9536484D01*
X6465301Y-9431722D02*
X6474824Y-9412674D01*
X6474824Y-9412674D02*
X6493872Y-9403150D01*
X6493872Y-9403150D02*
X6522443Y-9403150D01*
X6522443Y-9403150D02*
X6541491Y-9412674D01*
X6541491Y-9412674D02*
X6551015Y-9431722D01*
X6551015Y-9431722D02*
X6551015Y-9536484D01*
X6941491Y-9326960D02*
X6770063Y-9584103D01*
X7198634Y-9336484D02*
X7217682Y-9336484D01*
X7217682Y-9336484D02*
X7236729Y-9346008D01*
X7236729Y-9346008D02*
X7246253Y-9355531D01*
X7246253Y-9355531D02*
X7255777Y-9374579D01*
X7255777Y-9374579D02*
X7265301Y-9412674D01*
X7265301Y-9412674D02*
X7265301Y-9460293D01*
X7265301Y-9460293D02*
X7255777Y-9498389D01*
X7255777Y-9498389D02*
X7246253Y-9517436D01*
X7246253Y-9517436D02*
X7236729Y-9526960D01*
X7236729Y-9526960D02*
X7217682Y-9536484D01*
X7217682Y-9536484D02*
X7198634Y-9536484D01*
X7198634Y-9536484D02*
X7179586Y-9526960D01*
X7179586Y-9526960D02*
X7170063Y-9517436D01*
X7170063Y-9517436D02*
X7160539Y-9498389D01*
X7160539Y-9498389D02*
X7151015Y-9460293D01*
X7151015Y-9460293D02*
X7151015Y-9412674D01*
X7151015Y-9412674D02*
X7160539Y-9374579D01*
X7160539Y-9374579D02*
X7170063Y-9355531D01*
X7170063Y-9355531D02*
X7179586Y-9346008D01*
X7179586Y-9346008D02*
X7198634Y-9336484D01*
X7351015Y-9517436D02*
X7360539Y-9526960D01*
X7360539Y-9526960D02*
X7351015Y-9536484D01*
X7351015Y-9536484D02*
X7341491Y-9526960D01*
X7341491Y-9526960D02*
X7351015Y-9517436D01*
X7351015Y-9517436D02*
X7351015Y-9536484D01*
X7484348Y-9336484D02*
X7503396Y-9336484D01*
X7503396Y-9336484D02*
X7522444Y-9346008D01*
X7522444Y-9346008D02*
X7531967Y-9355531D01*
X7531967Y-9355531D02*
X7541491Y-9374579D01*
X7541491Y-9374579D02*
X7551015Y-9412674D01*
X7551015Y-9412674D02*
X7551015Y-9460293D01*
X7551015Y-9460293D02*
X7541491Y-9498389D01*
X7541491Y-9498389D02*
X7531967Y-9517436D01*
X7531967Y-9517436D02*
X7522444Y-9526960D01*
X7522444Y-9526960D02*
X7503396Y-9536484D01*
X7503396Y-9536484D02*
X7484348Y-9536484D01*
X7484348Y-9536484D02*
X7465301Y-9526960D01*
X7465301Y-9526960D02*
X7455777Y-9517436D01*
X7455777Y-9517436D02*
X7446253Y-9498389D01*
X7446253Y-9498389D02*
X7436729Y-9460293D01*
X7436729Y-9460293D02*
X7436729Y-9412674D01*
X7436729Y-9412674D02*
X7446253Y-9374579D01*
X7446253Y-9374579D02*
X7455777Y-9355531D01*
X7455777Y-9355531D02*
X7465301Y-9346008D01*
X7465301Y-9346008D02*
X7484348Y-9336484D01*
X7741491Y-9536484D02*
X7627206Y-9536484D01*
X7684348Y-9536484D02*
X7684348Y-9336484D01*
X7684348Y-9336484D02*
X7665301Y-9365055D01*
X7665301Y-9365055D02*
X7646253Y-9384103D01*
X7646253Y-9384103D02*
X7627206Y-9393627D01*
X7922444Y-9336484D02*
X7827206Y-9336484D01*
X7827206Y-9336484D02*
X7817682Y-9431722D01*
X7817682Y-9431722D02*
X7827206Y-9422198D01*
X7827206Y-9422198D02*
X7846253Y-9412674D01*
X7846253Y-9412674D02*
X7893872Y-9412674D01*
X7893872Y-9412674D02*
X7912920Y-9422198D01*
X7912920Y-9422198D02*
X7922444Y-9431722D01*
X7922444Y-9431722D02*
X7931967Y-9450770D01*
X7931967Y-9450770D02*
X7931967Y-9498389D01*
X7931967Y-9498389D02*
X7922444Y-9517436D01*
X7922444Y-9517436D02*
X7912920Y-9526960D01*
X7912920Y-9526960D02*
X7893872Y-9536484D01*
X7893872Y-9536484D02*
X7846253Y-9536484D01*
X7846253Y-9536484D02*
X7827206Y-9526960D01*
X7827206Y-9526960D02*
X7817682Y-9517436D01*
X7998634Y-9336484D02*
X8131967Y-9336484D01*
X8131967Y-9336484D02*
X8046253Y-9536484D01*
X8198634Y-9336484D02*
X8198634Y-9374579D01*
X8274825Y-9336484D02*
X8274825Y-9374579D01*
X8570063Y-9612674D02*
X8560539Y-9603150D01*
X8560539Y-9603150D02*
X8541491Y-9574579D01*
X8541491Y-9574579D02*
X8531968Y-9555531D01*
X8531968Y-9555531D02*
X8522444Y-9526960D01*
X8522444Y-9526960D02*
X8512920Y-9479341D01*
X8512920Y-9479341D02*
X8512920Y-9441246D01*
X8512920Y-9441246D02*
X8522444Y-9393627D01*
X8522444Y-9393627D02*
X8531968Y-9365055D01*
X8531968Y-9365055D02*
X8541491Y-9346008D01*
X8541491Y-9346008D02*
X8560539Y-9317436D01*
X8560539Y-9317436D02*
X8570063Y-9307912D01*
X8627206Y-9336484D02*
X8751015Y-9336484D01*
X8751015Y-9336484D02*
X8684349Y-9412674D01*
X8684349Y-9412674D02*
X8712920Y-9412674D01*
X8712920Y-9412674D02*
X8731968Y-9422198D01*
X8731968Y-9422198D02*
X8741491Y-9431722D01*
X8741491Y-9431722D02*
X8751015Y-9450770D01*
X8751015Y-9450770D02*
X8751015Y-9498389D01*
X8751015Y-9498389D02*
X8741491Y-9517436D01*
X8741491Y-9517436D02*
X8731968Y-9526960D01*
X8731968Y-9526960D02*
X8712920Y-9536484D01*
X8712920Y-9536484D02*
X8655777Y-9536484D01*
X8655777Y-9536484D02*
X8636730Y-9526960D01*
X8636730Y-9526960D02*
X8627206Y-9517436D01*
X8817682Y-9336484D02*
X8951015Y-9336484D01*
X8951015Y-9336484D02*
X8865301Y-9536484D01*
X9179587Y-9536484D02*
X9179587Y-9336484D01*
X9265301Y-9536484D02*
X9265301Y-9431722D01*
X9265301Y-9431722D02*
X9255777Y-9412674D01*
X9255777Y-9412674D02*
X9236730Y-9403150D01*
X9236730Y-9403150D02*
X9208158Y-9403150D01*
X9208158Y-9403150D02*
X9189111Y-9412674D01*
X9189111Y-9412674D02*
X9179587Y-9422198D01*
X9389111Y-9536484D02*
X9370063Y-9526960D01*
X9370063Y-9526960D02*
X9360539Y-9517436D01*
X9360539Y-9517436D02*
X9351015Y-9498389D01*
X9351015Y-9498389D02*
X9351015Y-9441246D01*
X9351015Y-9441246D02*
X9360539Y-9422198D01*
X9360539Y-9422198D02*
X9370063Y-9412674D01*
X9370063Y-9412674D02*
X9389111Y-9403150D01*
X9389111Y-9403150D02*
X9417682Y-9403150D01*
X9417682Y-9403150D02*
X9436730Y-9412674D01*
X9436730Y-9412674D02*
X9446253Y-9422198D01*
X9446253Y-9422198D02*
X9455777Y-9441246D01*
X9455777Y-9441246D02*
X9455777Y-9498389D01*
X9455777Y-9498389D02*
X9446253Y-9517436D01*
X9446253Y-9517436D02*
X9436730Y-9526960D01*
X9436730Y-9526960D02*
X9417682Y-9536484D01*
X9417682Y-9536484D02*
X9389111Y-9536484D01*
X9570063Y-9536484D02*
X9551015Y-9526960D01*
X9551015Y-9526960D02*
X9541492Y-9507912D01*
X9541492Y-9507912D02*
X9541492Y-9336484D01*
X9722444Y-9526960D02*
X9703396Y-9536484D01*
X9703396Y-9536484D02*
X9665301Y-9536484D01*
X9665301Y-9536484D02*
X9646253Y-9526960D01*
X9646253Y-9526960D02*
X9636730Y-9507912D01*
X9636730Y-9507912D02*
X9636730Y-9431722D01*
X9636730Y-9431722D02*
X9646253Y-9412674D01*
X9646253Y-9412674D02*
X9665301Y-9403150D01*
X9665301Y-9403150D02*
X9703396Y-9403150D01*
X9703396Y-9403150D02*
X9722444Y-9412674D01*
X9722444Y-9412674D02*
X9731968Y-9431722D01*
X9731968Y-9431722D02*
X9731968Y-9450770D01*
X9731968Y-9450770D02*
X9636730Y-9469817D01*
X9808158Y-9526960D02*
X9827206Y-9536484D01*
X9827206Y-9536484D02*
X9865301Y-9536484D01*
X9865301Y-9536484D02*
X9884349Y-9526960D01*
X9884349Y-9526960D02*
X9893873Y-9507912D01*
X9893873Y-9507912D02*
X9893873Y-9498389D01*
X9893873Y-9498389D02*
X9884349Y-9479341D01*
X9884349Y-9479341D02*
X9865301Y-9469817D01*
X9865301Y-9469817D02*
X9836730Y-9469817D01*
X9836730Y-9469817D02*
X9817682Y-9460293D01*
X9817682Y-9460293D02*
X9808158Y-9441246D01*
X9808158Y-9441246D02*
X9808158Y-9431722D01*
X9808158Y-9431722D02*
X9817682Y-9412674D01*
X9817682Y-9412674D02*
X9836730Y-9403150D01*
X9836730Y-9403150D02*
X9865301Y-9403150D01*
X9865301Y-9403150D02*
X9884349Y-9412674D01*
X9960539Y-9612674D02*
X9970063Y-9603150D01*
X9970063Y-9603150D02*
X9989111Y-9574579D01*
X9989111Y-9574579D02*
X9998634Y-9555531D01*
X9998634Y-9555531D02*
X10008158Y-9526960D01*
X10008158Y-9526960D02*
X10017682Y-9479341D01*
X10017682Y-9479341D02*
X10017682Y-9441246D01*
X10017682Y-9441246D02*
X10008158Y-9393627D01*
X10008158Y-9393627D02*
X9998634Y-9365055D01*
X9998634Y-9365055D02*
X9989111Y-9346008D01*
X9989111Y-9346008D02*
X9970063Y-9317436D01*
X9970063Y-9317436D02*
X9960539Y-9307912D01*
D10*
X4995000Y-9709000D02*
G75*
G03*
X4935000Y-9709000I-30000J0D01*
G01*
X4935000Y-9709000D02*
G75*
G03*
X4995000Y-9709000I30000J0D01*
G01*
D11*
X5293872Y-9600484D02*
X5312920Y-9600484D01*
X5312920Y-9600484D02*
X5331967Y-9610008D01*
X5331967Y-9610008D02*
X5341491Y-9619531D01*
X5341491Y-9619531D02*
X5351015Y-9638579D01*
X5351015Y-9638579D02*
X5360539Y-9676674D01*
X5360539Y-9676674D02*
X5360539Y-9724293D01*
X5360539Y-9724293D02*
X5351015Y-9762389D01*
X5351015Y-9762389D02*
X5341491Y-9781436D01*
X5341491Y-9781436D02*
X5331967Y-9790960D01*
X5331967Y-9790960D02*
X5312920Y-9800484D01*
X5312920Y-9800484D02*
X5293872Y-9800484D01*
X5293872Y-9800484D02*
X5274824Y-9790960D01*
X5274824Y-9790960D02*
X5265301Y-9781436D01*
X5265301Y-9781436D02*
X5255777Y-9762389D01*
X5255777Y-9762389D02*
X5246253Y-9724293D01*
X5246253Y-9724293D02*
X5246253Y-9676674D01*
X5246253Y-9676674D02*
X5255777Y-9638579D01*
X5255777Y-9638579D02*
X5265301Y-9619531D01*
X5265301Y-9619531D02*
X5274824Y-9610008D01*
X5274824Y-9610008D02*
X5293872Y-9600484D01*
X5446253Y-9781436D02*
X5455777Y-9790960D01*
X5455777Y-9790960D02*
X5446253Y-9800484D01*
X5446253Y-9800484D02*
X5436729Y-9790960D01*
X5436729Y-9790960D02*
X5446253Y-9781436D01*
X5446253Y-9781436D02*
X5446253Y-9800484D01*
X5627205Y-9600484D02*
X5589110Y-9600484D01*
X5589110Y-9600484D02*
X5570063Y-9610008D01*
X5570063Y-9610008D02*
X5560539Y-9619531D01*
X5560539Y-9619531D02*
X5541491Y-9648103D01*
X5541491Y-9648103D02*
X5531967Y-9686198D01*
X5531967Y-9686198D02*
X5531967Y-9762389D01*
X5531967Y-9762389D02*
X5541491Y-9781436D01*
X5541491Y-9781436D02*
X5551015Y-9790960D01*
X5551015Y-9790960D02*
X5570063Y-9800484D01*
X5570063Y-9800484D02*
X5608158Y-9800484D01*
X5608158Y-9800484D02*
X5627205Y-9790960D01*
X5627205Y-9790960D02*
X5636729Y-9781436D01*
X5636729Y-9781436D02*
X5646253Y-9762389D01*
X5646253Y-9762389D02*
X5646253Y-9714770D01*
X5646253Y-9714770D02*
X5636729Y-9695722D01*
X5636729Y-9695722D02*
X5627205Y-9686198D01*
X5627205Y-9686198D02*
X5608158Y-9676674D01*
X5608158Y-9676674D02*
X5570063Y-9676674D01*
X5570063Y-9676674D02*
X5551015Y-9686198D01*
X5551015Y-9686198D02*
X5541491Y-9695722D01*
X5541491Y-9695722D02*
X5531967Y-9714770D01*
X5770062Y-9600484D02*
X5789110Y-9600484D01*
X5789110Y-9600484D02*
X5808158Y-9610008D01*
X5808158Y-9610008D02*
X5817682Y-9619531D01*
X5817682Y-9619531D02*
X5827205Y-9638579D01*
X5827205Y-9638579D02*
X5836729Y-9676674D01*
X5836729Y-9676674D02*
X5836729Y-9724293D01*
X5836729Y-9724293D02*
X5827205Y-9762389D01*
X5827205Y-9762389D02*
X5817682Y-9781436D01*
X5817682Y-9781436D02*
X5808158Y-9790960D01*
X5808158Y-9790960D02*
X5789110Y-9800484D01*
X5789110Y-9800484D02*
X5770062Y-9800484D01*
X5770062Y-9800484D02*
X5751015Y-9790960D01*
X5751015Y-9790960D02*
X5741491Y-9781436D01*
X5741491Y-9781436D02*
X5731967Y-9762389D01*
X5731967Y-9762389D02*
X5722443Y-9724293D01*
X5722443Y-9724293D02*
X5722443Y-9676674D01*
X5722443Y-9676674D02*
X5731967Y-9638579D01*
X5731967Y-9638579D02*
X5741491Y-9619531D01*
X5741491Y-9619531D02*
X5751015Y-9610008D01*
X5751015Y-9610008D02*
X5770062Y-9600484D01*
X5960539Y-9600484D02*
X5979586Y-9600484D01*
X5979586Y-9600484D02*
X5998634Y-9610008D01*
X5998634Y-9610008D02*
X6008158Y-9619531D01*
X6008158Y-9619531D02*
X6017682Y-9638579D01*
X6017682Y-9638579D02*
X6027205Y-9676674D01*
X6027205Y-9676674D02*
X6027205Y-9724293D01*
X6027205Y-9724293D02*
X6017682Y-9762389D01*
X6017682Y-9762389D02*
X6008158Y-9781436D01*
X6008158Y-9781436D02*
X5998634Y-9790960D01*
X5998634Y-9790960D02*
X5979586Y-9800484D01*
X5979586Y-9800484D02*
X5960539Y-9800484D01*
X5960539Y-9800484D02*
X5941491Y-9790960D01*
X5941491Y-9790960D02*
X5931967Y-9781436D01*
X5931967Y-9781436D02*
X5922443Y-9762389D01*
X5922443Y-9762389D02*
X5912920Y-9724293D01*
X5912920Y-9724293D02*
X5912920Y-9676674D01*
X5912920Y-9676674D02*
X5922443Y-9638579D01*
X5922443Y-9638579D02*
X5931967Y-9619531D01*
X5931967Y-9619531D02*
X5941491Y-9610008D01*
X5941491Y-9610008D02*
X5960539Y-9600484D01*
X6112920Y-9800484D02*
X6112920Y-9667150D01*
X6112920Y-9686198D02*
X6122443Y-9676674D01*
X6122443Y-9676674D02*
X6141491Y-9667150D01*
X6141491Y-9667150D02*
X6170063Y-9667150D01*
X6170063Y-9667150D02*
X6189110Y-9676674D01*
X6189110Y-9676674D02*
X6198634Y-9695722D01*
X6198634Y-9695722D02*
X6198634Y-9800484D01*
X6198634Y-9695722D02*
X6208158Y-9676674D01*
X6208158Y-9676674D02*
X6227205Y-9667150D01*
X6227205Y-9667150D02*
X6255777Y-9667150D01*
X6255777Y-9667150D02*
X6274824Y-9676674D01*
X6274824Y-9676674D02*
X6284348Y-9695722D01*
X6284348Y-9695722D02*
X6284348Y-9800484D01*
X6379586Y-9800484D02*
X6379586Y-9667150D01*
X6379586Y-9686198D02*
X6389110Y-9676674D01*
X6389110Y-9676674D02*
X6408158Y-9667150D01*
X6408158Y-9667150D02*
X6436729Y-9667150D01*
X6436729Y-9667150D02*
X6455777Y-9676674D01*
X6455777Y-9676674D02*
X6465301Y-9695722D01*
X6465301Y-9695722D02*
X6465301Y-9800484D01*
X6465301Y-9695722D02*
X6474824Y-9676674D01*
X6474824Y-9676674D02*
X6493872Y-9667150D01*
X6493872Y-9667150D02*
X6522443Y-9667150D01*
X6522443Y-9667150D02*
X6541491Y-9676674D01*
X6541491Y-9676674D02*
X6551015Y-9695722D01*
X6551015Y-9695722D02*
X6551015Y-9800484D01*
X6941491Y-9590960D02*
X6770063Y-9848103D01*
X7198634Y-9600484D02*
X7217682Y-9600484D01*
X7217682Y-9600484D02*
X7236729Y-9610008D01*
X7236729Y-9610008D02*
X7246253Y-9619531D01*
X7246253Y-9619531D02*
X7255777Y-9638579D01*
X7255777Y-9638579D02*
X7265301Y-9676674D01*
X7265301Y-9676674D02*
X7265301Y-9724293D01*
X7265301Y-9724293D02*
X7255777Y-9762389D01*
X7255777Y-9762389D02*
X7246253Y-9781436D01*
X7246253Y-9781436D02*
X7236729Y-9790960D01*
X7236729Y-9790960D02*
X7217682Y-9800484D01*
X7217682Y-9800484D02*
X7198634Y-9800484D01*
X7198634Y-9800484D02*
X7179586Y-9790960D01*
X7179586Y-9790960D02*
X7170063Y-9781436D01*
X7170063Y-9781436D02*
X7160539Y-9762389D01*
X7160539Y-9762389D02*
X7151015Y-9724293D01*
X7151015Y-9724293D02*
X7151015Y-9676674D01*
X7151015Y-9676674D02*
X7160539Y-9638579D01*
X7160539Y-9638579D02*
X7170063Y-9619531D01*
X7170063Y-9619531D02*
X7179586Y-9610008D01*
X7179586Y-9610008D02*
X7198634Y-9600484D01*
X7351015Y-9781436D02*
X7360539Y-9790960D01*
X7360539Y-9790960D02*
X7351015Y-9800484D01*
X7351015Y-9800484D02*
X7341491Y-9790960D01*
X7341491Y-9790960D02*
X7351015Y-9781436D01*
X7351015Y-9781436D02*
X7351015Y-9800484D01*
X7484348Y-9600484D02*
X7503396Y-9600484D01*
X7503396Y-9600484D02*
X7522444Y-9610008D01*
X7522444Y-9610008D02*
X7531967Y-9619531D01*
X7531967Y-9619531D02*
X7541491Y-9638579D01*
X7541491Y-9638579D02*
X7551015Y-9676674D01*
X7551015Y-9676674D02*
X7551015Y-9724293D01*
X7551015Y-9724293D02*
X7541491Y-9762389D01*
X7541491Y-9762389D02*
X7531967Y-9781436D01*
X7531967Y-9781436D02*
X7522444Y-9790960D01*
X7522444Y-9790960D02*
X7503396Y-9800484D01*
X7503396Y-9800484D02*
X7484348Y-9800484D01*
X7484348Y-9800484D02*
X7465301Y-9790960D01*
X7465301Y-9790960D02*
X7455777Y-9781436D01*
X7455777Y-9781436D02*
X7446253Y-9762389D01*
X7446253Y-9762389D02*
X7436729Y-9724293D01*
X7436729Y-9724293D02*
X7436729Y-9676674D01*
X7436729Y-9676674D02*
X7446253Y-9638579D01*
X7446253Y-9638579D02*
X7455777Y-9619531D01*
X7455777Y-9619531D02*
X7465301Y-9610008D01*
X7465301Y-9610008D02*
X7484348Y-9600484D01*
X7627206Y-9619531D02*
X7636729Y-9610008D01*
X7636729Y-9610008D02*
X7655777Y-9600484D01*
X7655777Y-9600484D02*
X7703396Y-9600484D01*
X7703396Y-9600484D02*
X7722444Y-9610008D01*
X7722444Y-9610008D02*
X7731967Y-9619531D01*
X7731967Y-9619531D02*
X7741491Y-9638579D01*
X7741491Y-9638579D02*
X7741491Y-9657627D01*
X7741491Y-9657627D02*
X7731967Y-9686198D01*
X7731967Y-9686198D02*
X7617682Y-9800484D01*
X7617682Y-9800484D02*
X7741491Y-9800484D01*
X7808158Y-9600484D02*
X7931967Y-9600484D01*
X7931967Y-9600484D02*
X7865301Y-9676674D01*
X7865301Y-9676674D02*
X7893872Y-9676674D01*
X7893872Y-9676674D02*
X7912920Y-9686198D01*
X7912920Y-9686198D02*
X7922444Y-9695722D01*
X7922444Y-9695722D02*
X7931967Y-9714770D01*
X7931967Y-9714770D02*
X7931967Y-9762389D01*
X7931967Y-9762389D02*
X7922444Y-9781436D01*
X7922444Y-9781436D02*
X7912920Y-9790960D01*
X7912920Y-9790960D02*
X7893872Y-9800484D01*
X7893872Y-9800484D02*
X7836729Y-9800484D01*
X7836729Y-9800484D02*
X7817682Y-9790960D01*
X7817682Y-9790960D02*
X7808158Y-9781436D01*
X8103396Y-9600484D02*
X8065301Y-9600484D01*
X8065301Y-9600484D02*
X8046253Y-9610008D01*
X8046253Y-9610008D02*
X8036729Y-9619531D01*
X8036729Y-9619531D02*
X8017682Y-9648103D01*
X8017682Y-9648103D02*
X8008158Y-9686198D01*
X8008158Y-9686198D02*
X8008158Y-9762389D01*
X8008158Y-9762389D02*
X8017682Y-9781436D01*
X8017682Y-9781436D02*
X8027206Y-9790960D01*
X8027206Y-9790960D02*
X8046253Y-9800484D01*
X8046253Y-9800484D02*
X8084348Y-9800484D01*
X8084348Y-9800484D02*
X8103396Y-9790960D01*
X8103396Y-9790960D02*
X8112920Y-9781436D01*
X8112920Y-9781436D02*
X8122444Y-9762389D01*
X8122444Y-9762389D02*
X8122444Y-9714770D01*
X8122444Y-9714770D02*
X8112920Y-9695722D01*
X8112920Y-9695722D02*
X8103396Y-9686198D01*
X8103396Y-9686198D02*
X8084348Y-9676674D01*
X8084348Y-9676674D02*
X8046253Y-9676674D01*
X8046253Y-9676674D02*
X8027206Y-9686198D01*
X8027206Y-9686198D02*
X8017682Y-9695722D01*
X8017682Y-9695722D02*
X8008158Y-9714770D01*
X8198634Y-9600484D02*
X8198634Y-9638579D01*
X8274825Y-9600484D02*
X8274825Y-9638579D01*
X8570063Y-9876674D02*
X8560539Y-9867150D01*
X8560539Y-9867150D02*
X8541491Y-9838579D01*
X8541491Y-9838579D02*
X8531968Y-9819531D01*
X8531968Y-9819531D02*
X8522444Y-9790960D01*
X8522444Y-9790960D02*
X8512920Y-9743341D01*
X8512920Y-9743341D02*
X8512920Y-9705246D01*
X8512920Y-9705246D02*
X8522444Y-9657627D01*
X8522444Y-9657627D02*
X8531968Y-9629055D01*
X8531968Y-9629055D02*
X8541491Y-9610008D01*
X8541491Y-9610008D02*
X8560539Y-9581436D01*
X8560539Y-9581436D02*
X8570063Y-9571912D01*
X8684349Y-9600484D02*
X8703396Y-9600484D01*
X8703396Y-9600484D02*
X8722444Y-9610008D01*
X8722444Y-9610008D02*
X8731968Y-9619531D01*
X8731968Y-9619531D02*
X8741491Y-9638579D01*
X8741491Y-9638579D02*
X8751015Y-9676674D01*
X8751015Y-9676674D02*
X8751015Y-9724293D01*
X8751015Y-9724293D02*
X8741491Y-9762389D01*
X8741491Y-9762389D02*
X8731968Y-9781436D01*
X8731968Y-9781436D02*
X8722444Y-9790960D01*
X8722444Y-9790960D02*
X8703396Y-9800484D01*
X8703396Y-9800484D02*
X8684349Y-9800484D01*
X8684349Y-9800484D02*
X8665301Y-9790960D01*
X8665301Y-9790960D02*
X8655777Y-9781436D01*
X8655777Y-9781436D02*
X8646253Y-9762389D01*
X8646253Y-9762389D02*
X8636730Y-9724293D01*
X8636730Y-9724293D02*
X8636730Y-9676674D01*
X8636730Y-9676674D02*
X8646253Y-9638579D01*
X8646253Y-9638579D02*
X8655777Y-9619531D01*
X8655777Y-9619531D02*
X8665301Y-9610008D01*
X8665301Y-9610008D02*
X8684349Y-9600484D01*
X8989111Y-9800484D02*
X8989111Y-9600484D01*
X9074825Y-9800484D02*
X9074825Y-9695722D01*
X9074825Y-9695722D02*
X9065301Y-9676674D01*
X9065301Y-9676674D02*
X9046253Y-9667150D01*
X9046253Y-9667150D02*
X9017682Y-9667150D01*
X9017682Y-9667150D02*
X8998634Y-9676674D01*
X8998634Y-9676674D02*
X8989111Y-9686198D01*
X9198634Y-9800484D02*
X9179587Y-9790960D01*
X9179587Y-9790960D02*
X9170063Y-9781436D01*
X9170063Y-9781436D02*
X9160539Y-9762389D01*
X9160539Y-9762389D02*
X9160539Y-9705246D01*
X9160539Y-9705246D02*
X9170063Y-9686198D01*
X9170063Y-9686198D02*
X9179587Y-9676674D01*
X9179587Y-9676674D02*
X9198634Y-9667150D01*
X9198634Y-9667150D02*
X9227206Y-9667150D01*
X9227206Y-9667150D02*
X9246253Y-9676674D01*
X9246253Y-9676674D02*
X9255777Y-9686198D01*
X9255777Y-9686198D02*
X9265301Y-9705246D01*
X9265301Y-9705246D02*
X9265301Y-9762389D01*
X9265301Y-9762389D02*
X9255777Y-9781436D01*
X9255777Y-9781436D02*
X9246253Y-9790960D01*
X9246253Y-9790960D02*
X9227206Y-9800484D01*
X9227206Y-9800484D02*
X9198634Y-9800484D01*
X9379587Y-9800484D02*
X9360539Y-9790960D01*
X9360539Y-9790960D02*
X9351015Y-9771912D01*
X9351015Y-9771912D02*
X9351015Y-9600484D01*
X9531968Y-9790960D02*
X9512920Y-9800484D01*
X9512920Y-9800484D02*
X9474825Y-9800484D01*
X9474825Y-9800484D02*
X9455777Y-9790960D01*
X9455777Y-9790960D02*
X9446253Y-9771912D01*
X9446253Y-9771912D02*
X9446253Y-9695722D01*
X9446253Y-9695722D02*
X9455777Y-9676674D01*
X9455777Y-9676674D02*
X9474825Y-9667150D01*
X9474825Y-9667150D02*
X9512920Y-9667150D01*
X9512920Y-9667150D02*
X9531968Y-9676674D01*
X9531968Y-9676674D02*
X9541492Y-9695722D01*
X9541492Y-9695722D02*
X9541492Y-9714770D01*
X9541492Y-9714770D02*
X9446253Y-9733817D01*
X9617682Y-9790960D02*
X9636730Y-9800484D01*
X9636730Y-9800484D02*
X9674825Y-9800484D01*
X9674825Y-9800484D02*
X9693873Y-9790960D01*
X9693873Y-9790960D02*
X9703396Y-9771912D01*
X9703396Y-9771912D02*
X9703396Y-9762389D01*
X9703396Y-9762389D02*
X9693873Y-9743341D01*
X9693873Y-9743341D02*
X9674825Y-9733817D01*
X9674825Y-9733817D02*
X9646253Y-9733817D01*
X9646253Y-9733817D02*
X9627206Y-9724293D01*
X9627206Y-9724293D02*
X9617682Y-9705246D01*
X9617682Y-9705246D02*
X9617682Y-9695722D01*
X9617682Y-9695722D02*
X9627206Y-9676674D01*
X9627206Y-9676674D02*
X9646253Y-9667150D01*
X9646253Y-9667150D02*
X9674825Y-9667150D01*
X9674825Y-9667150D02*
X9693873Y-9676674D01*
X9941492Y-9724293D02*
X10093873Y-9724293D01*
X10017682Y-9800484D02*
X10017682Y-9648103D01*
X10427206Y-9667150D02*
X10427206Y-9800484D01*
X10379587Y-9590960D02*
X10331968Y-9733817D01*
X10331968Y-9733817D02*
X10455777Y-9733817D01*
X10674825Y-9790960D02*
X10693873Y-9800484D01*
X10693873Y-9800484D02*
X10731968Y-9800484D01*
X10731968Y-9800484D02*
X10751016Y-9790960D01*
X10751016Y-9790960D02*
X10760539Y-9771912D01*
X10760539Y-9771912D02*
X10760539Y-9762389D01*
X10760539Y-9762389D02*
X10751016Y-9743341D01*
X10751016Y-9743341D02*
X10731968Y-9733817D01*
X10731968Y-9733817D02*
X10703396Y-9733817D01*
X10703396Y-9733817D02*
X10684349Y-9724293D01*
X10684349Y-9724293D02*
X10674825Y-9705246D01*
X10674825Y-9705246D02*
X10674825Y-9695722D01*
X10674825Y-9695722D02*
X10684349Y-9676674D01*
X10684349Y-9676674D02*
X10703396Y-9667150D01*
X10703396Y-9667150D02*
X10731968Y-9667150D01*
X10731968Y-9667150D02*
X10751016Y-9676674D01*
X10874825Y-9800484D02*
X10855777Y-9790960D01*
X10855777Y-9790960D02*
X10846254Y-9771912D01*
X10846254Y-9771912D02*
X10846254Y-9600484D01*
X10979587Y-9800484D02*
X10960539Y-9790960D01*
X10960539Y-9790960D02*
X10951016Y-9781436D01*
X10951016Y-9781436D02*
X10941492Y-9762389D01*
X10941492Y-9762389D02*
X10941492Y-9705246D01*
X10941492Y-9705246D02*
X10951016Y-9686198D01*
X10951016Y-9686198D02*
X10960539Y-9676674D01*
X10960539Y-9676674D02*
X10979587Y-9667150D01*
X10979587Y-9667150D02*
X11008158Y-9667150D01*
X11008158Y-9667150D02*
X11027206Y-9676674D01*
X11027206Y-9676674D02*
X11036730Y-9686198D01*
X11036730Y-9686198D02*
X11046254Y-9705246D01*
X11046254Y-9705246D02*
X11046254Y-9762389D01*
X11046254Y-9762389D02*
X11036730Y-9781436D01*
X11036730Y-9781436D02*
X11027206Y-9790960D01*
X11027206Y-9790960D02*
X11008158Y-9800484D01*
X11008158Y-9800484D02*
X10979587Y-9800484D01*
X11103397Y-9667150D02*
X11179587Y-9667150D01*
X11131968Y-9600484D02*
X11131968Y-9771912D01*
X11131968Y-9771912D02*
X11141492Y-9790960D01*
X11141492Y-9790960D02*
X11160539Y-9800484D01*
X11160539Y-9800484D02*
X11179587Y-9800484D01*
X11236730Y-9790960D02*
X11255777Y-9800484D01*
X11255777Y-9800484D02*
X11293873Y-9800484D01*
X11293873Y-9800484D02*
X11312920Y-9790960D01*
X11312920Y-9790960D02*
X11322444Y-9771912D01*
X11322444Y-9771912D02*
X11322444Y-9762389D01*
X11322444Y-9762389D02*
X11312920Y-9743341D01*
X11312920Y-9743341D02*
X11293873Y-9733817D01*
X11293873Y-9733817D02*
X11265301Y-9733817D01*
X11265301Y-9733817D02*
X11246254Y-9724293D01*
X11246254Y-9724293D02*
X11236730Y-9705246D01*
X11236730Y-9705246D02*
X11236730Y-9695722D01*
X11236730Y-9695722D02*
X11246254Y-9676674D01*
X11246254Y-9676674D02*
X11265301Y-9667150D01*
X11265301Y-9667150D02*
X11293873Y-9667150D01*
X11293873Y-9667150D02*
X11312920Y-9676674D01*
X11389111Y-9876674D02*
X11398635Y-9867150D01*
X11398635Y-9867150D02*
X11417682Y-9838579D01*
X11417682Y-9838579D02*
X11427206Y-9819531D01*
X11427206Y-9819531D02*
X11436730Y-9790960D01*
X11436730Y-9790960D02*
X11446254Y-9743341D01*
X11446254Y-9743341D02*
X11446254Y-9705246D01*
X11446254Y-9705246D02*
X11436730Y-9657627D01*
X11436730Y-9657627D02*
X11427206Y-9629055D01*
X11427206Y-9629055D02*
X11417682Y-9610008D01*
X11417682Y-9610008D02*
X11398635Y-9581436D01*
X11398635Y-9581436D02*
X11389111Y-9571912D01*
D10*
X4945000Y-9923000D02*
X4945000Y-10023000D01*
X4895000Y-9973000D02*
X4995000Y-9973000D01*
D11*
X5360539Y-10064484D02*
X5246253Y-10064484D01*
X5303396Y-10064484D02*
X5303396Y-9864484D01*
X5303396Y-9864484D02*
X5284348Y-9893055D01*
X5284348Y-9893055D02*
X5265301Y-9912103D01*
X5265301Y-9912103D02*
X5246253Y-9921627D01*
X5446253Y-10045436D02*
X5455777Y-10054960D01*
X5455777Y-10054960D02*
X5446253Y-10064484D01*
X5446253Y-10064484D02*
X5436729Y-10054960D01*
X5436729Y-10054960D02*
X5446253Y-10045436D01*
X5446253Y-10045436D02*
X5446253Y-10064484D01*
X5579586Y-9864484D02*
X5598634Y-9864484D01*
X5598634Y-9864484D02*
X5617682Y-9874008D01*
X5617682Y-9874008D02*
X5627205Y-9883531D01*
X5627205Y-9883531D02*
X5636729Y-9902579D01*
X5636729Y-9902579D02*
X5646253Y-9940674D01*
X5646253Y-9940674D02*
X5646253Y-9988293D01*
X5646253Y-9988293D02*
X5636729Y-10026389D01*
X5636729Y-10026389D02*
X5627205Y-10045436D01*
X5627205Y-10045436D02*
X5617682Y-10054960D01*
X5617682Y-10054960D02*
X5598634Y-10064484D01*
X5598634Y-10064484D02*
X5579586Y-10064484D01*
X5579586Y-10064484D02*
X5560539Y-10054960D01*
X5560539Y-10054960D02*
X5551015Y-10045436D01*
X5551015Y-10045436D02*
X5541491Y-10026389D01*
X5541491Y-10026389D02*
X5531967Y-9988293D01*
X5531967Y-9988293D02*
X5531967Y-9940674D01*
X5531967Y-9940674D02*
X5541491Y-9902579D01*
X5541491Y-9902579D02*
X5551015Y-9883531D01*
X5551015Y-9883531D02*
X5560539Y-9874008D01*
X5560539Y-9874008D02*
X5579586Y-9864484D01*
X5770062Y-9864484D02*
X5789110Y-9864484D01*
X5789110Y-9864484D02*
X5808158Y-9874008D01*
X5808158Y-9874008D02*
X5817682Y-9883531D01*
X5817682Y-9883531D02*
X5827205Y-9902579D01*
X5827205Y-9902579D02*
X5836729Y-9940674D01*
X5836729Y-9940674D02*
X5836729Y-9988293D01*
X5836729Y-9988293D02*
X5827205Y-10026389D01*
X5827205Y-10026389D02*
X5817682Y-10045436D01*
X5817682Y-10045436D02*
X5808158Y-10054960D01*
X5808158Y-10054960D02*
X5789110Y-10064484D01*
X5789110Y-10064484D02*
X5770062Y-10064484D01*
X5770062Y-10064484D02*
X5751015Y-10054960D01*
X5751015Y-10054960D02*
X5741491Y-10045436D01*
X5741491Y-10045436D02*
X5731967Y-10026389D01*
X5731967Y-10026389D02*
X5722443Y-9988293D01*
X5722443Y-9988293D02*
X5722443Y-9940674D01*
X5722443Y-9940674D02*
X5731967Y-9902579D01*
X5731967Y-9902579D02*
X5741491Y-9883531D01*
X5741491Y-9883531D02*
X5751015Y-9874008D01*
X5751015Y-9874008D02*
X5770062Y-9864484D01*
X5960539Y-9864484D02*
X5979586Y-9864484D01*
X5979586Y-9864484D02*
X5998634Y-9874008D01*
X5998634Y-9874008D02*
X6008158Y-9883531D01*
X6008158Y-9883531D02*
X6017682Y-9902579D01*
X6017682Y-9902579D02*
X6027205Y-9940674D01*
X6027205Y-9940674D02*
X6027205Y-9988293D01*
X6027205Y-9988293D02*
X6017682Y-10026389D01*
X6017682Y-10026389D02*
X6008158Y-10045436D01*
X6008158Y-10045436D02*
X5998634Y-10054960D01*
X5998634Y-10054960D02*
X5979586Y-10064484D01*
X5979586Y-10064484D02*
X5960539Y-10064484D01*
X5960539Y-10064484D02*
X5941491Y-10054960D01*
X5941491Y-10054960D02*
X5931967Y-10045436D01*
X5931967Y-10045436D02*
X5922443Y-10026389D01*
X5922443Y-10026389D02*
X5912920Y-9988293D01*
X5912920Y-9988293D02*
X5912920Y-9940674D01*
X5912920Y-9940674D02*
X5922443Y-9902579D01*
X5922443Y-9902579D02*
X5931967Y-9883531D01*
X5931967Y-9883531D02*
X5941491Y-9874008D01*
X5941491Y-9874008D02*
X5960539Y-9864484D01*
X6112920Y-10064484D02*
X6112920Y-9931150D01*
X6112920Y-9950198D02*
X6122443Y-9940674D01*
X6122443Y-9940674D02*
X6141491Y-9931150D01*
X6141491Y-9931150D02*
X6170063Y-9931150D01*
X6170063Y-9931150D02*
X6189110Y-9940674D01*
X6189110Y-9940674D02*
X6198634Y-9959722D01*
X6198634Y-9959722D02*
X6198634Y-10064484D01*
X6198634Y-9959722D02*
X6208158Y-9940674D01*
X6208158Y-9940674D02*
X6227205Y-9931150D01*
X6227205Y-9931150D02*
X6255777Y-9931150D01*
X6255777Y-9931150D02*
X6274824Y-9940674D01*
X6274824Y-9940674D02*
X6284348Y-9959722D01*
X6284348Y-9959722D02*
X6284348Y-10064484D01*
X6379586Y-10064484D02*
X6379586Y-9931150D01*
X6379586Y-9950198D02*
X6389110Y-9940674D01*
X6389110Y-9940674D02*
X6408158Y-9931150D01*
X6408158Y-9931150D02*
X6436729Y-9931150D01*
X6436729Y-9931150D02*
X6455777Y-9940674D01*
X6455777Y-9940674D02*
X6465301Y-9959722D01*
X6465301Y-9959722D02*
X6465301Y-10064484D01*
X6465301Y-9959722D02*
X6474824Y-9940674D01*
X6474824Y-9940674D02*
X6493872Y-9931150D01*
X6493872Y-9931150D02*
X6522443Y-9931150D01*
X6522443Y-9931150D02*
X6541491Y-9940674D01*
X6541491Y-9940674D02*
X6551015Y-9959722D01*
X6551015Y-9959722D02*
X6551015Y-10064484D01*
X6941491Y-9854960D02*
X6770063Y-10112103D01*
X7198634Y-9864484D02*
X7217682Y-9864484D01*
X7217682Y-9864484D02*
X7236729Y-9874008D01*
X7236729Y-9874008D02*
X7246253Y-9883531D01*
X7246253Y-9883531D02*
X7255777Y-9902579D01*
X7255777Y-9902579D02*
X7265301Y-9940674D01*
X7265301Y-9940674D02*
X7265301Y-9988293D01*
X7265301Y-9988293D02*
X7255777Y-10026389D01*
X7255777Y-10026389D02*
X7246253Y-10045436D01*
X7246253Y-10045436D02*
X7236729Y-10054960D01*
X7236729Y-10054960D02*
X7217682Y-10064484D01*
X7217682Y-10064484D02*
X7198634Y-10064484D01*
X7198634Y-10064484D02*
X7179586Y-10054960D01*
X7179586Y-10054960D02*
X7170063Y-10045436D01*
X7170063Y-10045436D02*
X7160539Y-10026389D01*
X7160539Y-10026389D02*
X7151015Y-9988293D01*
X7151015Y-9988293D02*
X7151015Y-9940674D01*
X7151015Y-9940674D02*
X7160539Y-9902579D01*
X7160539Y-9902579D02*
X7170063Y-9883531D01*
X7170063Y-9883531D02*
X7179586Y-9874008D01*
X7179586Y-9874008D02*
X7198634Y-9864484D01*
X7351015Y-10045436D02*
X7360539Y-10054960D01*
X7360539Y-10054960D02*
X7351015Y-10064484D01*
X7351015Y-10064484D02*
X7341491Y-10054960D01*
X7341491Y-10054960D02*
X7351015Y-10045436D01*
X7351015Y-10045436D02*
X7351015Y-10064484D01*
X7484348Y-9864484D02*
X7503396Y-9864484D01*
X7503396Y-9864484D02*
X7522444Y-9874008D01*
X7522444Y-9874008D02*
X7531967Y-9883531D01*
X7531967Y-9883531D02*
X7541491Y-9902579D01*
X7541491Y-9902579D02*
X7551015Y-9940674D01*
X7551015Y-9940674D02*
X7551015Y-9988293D01*
X7551015Y-9988293D02*
X7541491Y-10026389D01*
X7541491Y-10026389D02*
X7531967Y-10045436D01*
X7531967Y-10045436D02*
X7522444Y-10054960D01*
X7522444Y-10054960D02*
X7503396Y-10064484D01*
X7503396Y-10064484D02*
X7484348Y-10064484D01*
X7484348Y-10064484D02*
X7465301Y-10054960D01*
X7465301Y-10054960D02*
X7455777Y-10045436D01*
X7455777Y-10045436D02*
X7446253Y-10026389D01*
X7446253Y-10026389D02*
X7436729Y-9988293D01*
X7436729Y-9988293D02*
X7436729Y-9940674D01*
X7436729Y-9940674D02*
X7446253Y-9902579D01*
X7446253Y-9902579D02*
X7455777Y-9883531D01*
X7455777Y-9883531D02*
X7465301Y-9874008D01*
X7465301Y-9874008D02*
X7484348Y-9864484D01*
X7617682Y-9864484D02*
X7741491Y-9864484D01*
X7741491Y-9864484D02*
X7674825Y-9940674D01*
X7674825Y-9940674D02*
X7703396Y-9940674D01*
X7703396Y-9940674D02*
X7722444Y-9950198D01*
X7722444Y-9950198D02*
X7731967Y-9959722D01*
X7731967Y-9959722D02*
X7741491Y-9978770D01*
X7741491Y-9978770D02*
X7741491Y-10026389D01*
X7741491Y-10026389D02*
X7731967Y-10045436D01*
X7731967Y-10045436D02*
X7722444Y-10054960D01*
X7722444Y-10054960D02*
X7703396Y-10064484D01*
X7703396Y-10064484D02*
X7646253Y-10064484D01*
X7646253Y-10064484D02*
X7627206Y-10054960D01*
X7627206Y-10054960D02*
X7617682Y-10045436D01*
X7836729Y-10064484D02*
X7874825Y-10064484D01*
X7874825Y-10064484D02*
X7893872Y-10054960D01*
X7893872Y-10054960D02*
X7903396Y-10045436D01*
X7903396Y-10045436D02*
X7922444Y-10016865D01*
X7922444Y-10016865D02*
X7931967Y-9978770D01*
X7931967Y-9978770D02*
X7931967Y-9902579D01*
X7931967Y-9902579D02*
X7922444Y-9883531D01*
X7922444Y-9883531D02*
X7912920Y-9874008D01*
X7912920Y-9874008D02*
X7893872Y-9864484D01*
X7893872Y-9864484D02*
X7855777Y-9864484D01*
X7855777Y-9864484D02*
X7836729Y-9874008D01*
X7836729Y-9874008D02*
X7827206Y-9883531D01*
X7827206Y-9883531D02*
X7817682Y-9902579D01*
X7817682Y-9902579D02*
X7817682Y-9950198D01*
X7817682Y-9950198D02*
X7827206Y-9969246D01*
X7827206Y-9969246D02*
X7836729Y-9978770D01*
X7836729Y-9978770D02*
X7855777Y-9988293D01*
X7855777Y-9988293D02*
X7893872Y-9988293D01*
X7893872Y-9988293D02*
X7912920Y-9978770D01*
X7912920Y-9978770D02*
X7922444Y-9969246D01*
X7922444Y-9969246D02*
X7931967Y-9950198D01*
X8103396Y-9931150D02*
X8103396Y-10064484D01*
X8055777Y-9854960D02*
X8008158Y-9997817D01*
X8008158Y-9997817D02*
X8131967Y-9997817D01*
X8198634Y-9864484D02*
X8198634Y-9902579D01*
X8274825Y-9864484D02*
X8274825Y-9902579D01*
X8570063Y-10140674D02*
X8560539Y-10131150D01*
X8560539Y-10131150D02*
X8541491Y-10102579D01*
X8541491Y-10102579D02*
X8531968Y-10083531D01*
X8531968Y-10083531D02*
X8522444Y-10054960D01*
X8522444Y-10054960D02*
X8512920Y-10007341D01*
X8512920Y-10007341D02*
X8512920Y-9969246D01*
X8512920Y-9969246D02*
X8522444Y-9921627D01*
X8522444Y-9921627D02*
X8531968Y-9893055D01*
X8531968Y-9893055D02*
X8541491Y-9874008D01*
X8541491Y-9874008D02*
X8560539Y-9845436D01*
X8560539Y-9845436D02*
X8570063Y-9835912D01*
X8741491Y-9864484D02*
X8646253Y-9864484D01*
X8646253Y-9864484D02*
X8636730Y-9959722D01*
X8636730Y-9959722D02*
X8646253Y-9950198D01*
X8646253Y-9950198D02*
X8665301Y-9940674D01*
X8665301Y-9940674D02*
X8712920Y-9940674D01*
X8712920Y-9940674D02*
X8731968Y-9950198D01*
X8731968Y-9950198D02*
X8741491Y-9959722D01*
X8741491Y-9959722D02*
X8751015Y-9978770D01*
X8751015Y-9978770D02*
X8751015Y-10026389D01*
X8751015Y-10026389D02*
X8741491Y-10045436D01*
X8741491Y-10045436D02*
X8731968Y-10054960D01*
X8731968Y-10054960D02*
X8712920Y-10064484D01*
X8712920Y-10064484D02*
X8665301Y-10064484D01*
X8665301Y-10064484D02*
X8646253Y-10054960D01*
X8646253Y-10054960D02*
X8636730Y-10045436D01*
X8989111Y-10064484D02*
X8989111Y-9864484D01*
X9074825Y-10064484D02*
X9074825Y-9959722D01*
X9074825Y-9959722D02*
X9065301Y-9940674D01*
X9065301Y-9940674D02*
X9046253Y-9931150D01*
X9046253Y-9931150D02*
X9017682Y-9931150D01*
X9017682Y-9931150D02*
X8998634Y-9940674D01*
X8998634Y-9940674D02*
X8989111Y-9950198D01*
X9198634Y-10064484D02*
X9179587Y-10054960D01*
X9179587Y-10054960D02*
X9170063Y-10045436D01*
X9170063Y-10045436D02*
X9160539Y-10026389D01*
X9160539Y-10026389D02*
X9160539Y-9969246D01*
X9160539Y-9969246D02*
X9170063Y-9950198D01*
X9170063Y-9950198D02*
X9179587Y-9940674D01*
X9179587Y-9940674D02*
X9198634Y-9931150D01*
X9198634Y-9931150D02*
X9227206Y-9931150D01*
X9227206Y-9931150D02*
X9246253Y-9940674D01*
X9246253Y-9940674D02*
X9255777Y-9950198D01*
X9255777Y-9950198D02*
X9265301Y-9969246D01*
X9265301Y-9969246D02*
X9265301Y-10026389D01*
X9265301Y-10026389D02*
X9255777Y-10045436D01*
X9255777Y-10045436D02*
X9246253Y-10054960D01*
X9246253Y-10054960D02*
X9227206Y-10064484D01*
X9227206Y-10064484D02*
X9198634Y-10064484D01*
X9379587Y-10064484D02*
X9360539Y-10054960D01*
X9360539Y-10054960D02*
X9351015Y-10035912D01*
X9351015Y-10035912D02*
X9351015Y-9864484D01*
X9531968Y-10054960D02*
X9512920Y-10064484D01*
X9512920Y-10064484D02*
X9474825Y-10064484D01*
X9474825Y-10064484D02*
X9455777Y-10054960D01*
X9455777Y-10054960D02*
X9446253Y-10035912D01*
X9446253Y-10035912D02*
X9446253Y-9959722D01*
X9446253Y-9959722D02*
X9455777Y-9940674D01*
X9455777Y-9940674D02*
X9474825Y-9931150D01*
X9474825Y-9931150D02*
X9512920Y-9931150D01*
X9512920Y-9931150D02*
X9531968Y-9940674D01*
X9531968Y-9940674D02*
X9541492Y-9959722D01*
X9541492Y-9959722D02*
X9541492Y-9978770D01*
X9541492Y-9978770D02*
X9446253Y-9997817D01*
X9617682Y-10054960D02*
X9636730Y-10064484D01*
X9636730Y-10064484D02*
X9674825Y-10064484D01*
X9674825Y-10064484D02*
X9693873Y-10054960D01*
X9693873Y-10054960D02*
X9703396Y-10035912D01*
X9703396Y-10035912D02*
X9703396Y-10026389D01*
X9703396Y-10026389D02*
X9693873Y-10007341D01*
X9693873Y-10007341D02*
X9674825Y-9997817D01*
X9674825Y-9997817D02*
X9646253Y-9997817D01*
X9646253Y-9997817D02*
X9627206Y-9988293D01*
X9627206Y-9988293D02*
X9617682Y-9969246D01*
X9617682Y-9969246D02*
X9617682Y-9959722D01*
X9617682Y-9959722D02*
X9627206Y-9940674D01*
X9627206Y-9940674D02*
X9646253Y-9931150D01*
X9646253Y-9931150D02*
X9674825Y-9931150D01*
X9674825Y-9931150D02*
X9693873Y-9940674D01*
X9770063Y-10140674D02*
X9779587Y-10131150D01*
X9779587Y-10131150D02*
X9798634Y-10102579D01*
X9798634Y-10102579D02*
X9808158Y-10083531D01*
X9808158Y-10083531D02*
X9817682Y-10054960D01*
X9817682Y-10054960D02*
X9827206Y-10007341D01*
X9827206Y-10007341D02*
X9827206Y-9969246D01*
X9827206Y-9969246D02*
X9817682Y-9921627D01*
X9817682Y-9921627D02*
X9808158Y-9893055D01*
X9808158Y-9893055D02*
X9798634Y-9874008D01*
X9798634Y-9874008D02*
X9779587Y-9845436D01*
X9779587Y-9845436D02*
X9770063Y-9835912D01*
M02*
