G04 #@! TF.GenerationSoftware,KiCad,Pcbnew,7.0.10*
G04 #@! TF.CreationDate,2024-02-28T00:56:54-06:00*
G04 #@! TF.ProjectId,sensingBoard,73656e73-696e-4674-926f-6172642e6b69,rev?*
G04 #@! TF.SameCoordinates,Original*
G04 #@! TF.FileFunction,Copper,L2,Bot*
G04 #@! TF.FilePolarity,Positive*
%FSLAX46Y46*%
G04 Gerber Fmt 4.6, Leading zero omitted, Abs format (unit mm)*
G04 Created by KiCad (PCBNEW 7.0.10) date 2024-02-28 00:56:54*
%MOMM*%
%LPD*%
G01*
G04 APERTURE LIST*
G04 Aperture macros list*
%AMFreePoly0*
4,1,19,0.550000,-0.750000,0.000000,-0.750000,0.000000,-0.744911,-0.071157,-0.744911,-0.207708,-0.704816,-0.327430,-0.627875,-0.420627,-0.520320,-0.479746,-0.390866,-0.500000,-0.250000,-0.500000,0.250000,-0.479746,0.390866,-0.420627,0.520320,-0.327430,0.627875,-0.207708,0.704816,-0.071157,0.744911,0.000000,0.744911,0.000000,0.750000,0.550000,0.750000,0.550000,-0.750000,0.550000,-0.750000,
$1*%
%AMFreePoly1*
4,1,19,0.000000,0.744911,0.071157,0.744911,0.207708,0.704816,0.327430,0.627875,0.420627,0.520320,0.479746,0.390866,0.500000,0.250000,0.500000,-0.250000,0.479746,-0.390866,0.420627,-0.520320,0.327430,-0.627875,0.207708,-0.704816,0.071157,-0.744911,0.000000,-0.744911,0.000000,-0.750000,-0.550000,-0.750000,-0.550000,0.750000,0.000000,0.750000,0.000000,0.744911,0.000000,0.744911,
$1*%
%AMFreePoly2*
4,1,19,0.500000,-0.750000,0.000000,-0.750000,0.000000,-0.744911,-0.071157,-0.744911,-0.207708,-0.704816,-0.327430,-0.627875,-0.420627,-0.520320,-0.479746,-0.390866,-0.500000,-0.250000,-0.500000,0.250000,-0.479746,0.390866,-0.420627,0.520320,-0.327430,0.627875,-0.207708,0.704816,-0.071157,0.744911,0.000000,0.744911,0.000000,0.750000,0.500000,0.750000,0.500000,-0.750000,0.500000,-0.750000,
$1*%
%AMFreePoly3*
4,1,19,0.000000,0.744911,0.071157,0.744911,0.207708,0.704816,0.327430,0.627875,0.420627,0.520320,0.479746,0.390866,0.500000,0.250000,0.500000,-0.250000,0.479746,-0.390866,0.420627,-0.520320,0.327430,-0.627875,0.207708,-0.704816,0.071157,-0.744911,0.000000,-0.744911,0.000000,-0.750000,-0.500000,-0.750000,-0.500000,0.750000,0.000000,0.750000,0.000000,0.744911,0.000000,0.744911,
$1*%
G04 Aperture macros list end*
G04 #@! TA.AperFunction,ComponentPad*
%ADD10R,1.700000X1.700000*%
G04 #@! TD*
G04 #@! TA.AperFunction,ComponentPad*
%ADD11O,1.700000X1.700000*%
G04 #@! TD*
G04 #@! TA.AperFunction,ComponentPad*
%ADD12O,2.100000X1.000000*%
G04 #@! TD*
G04 #@! TA.AperFunction,ComponentPad*
%ADD13O,1.800000X1.000000*%
G04 #@! TD*
G04 #@! TA.AperFunction,SMDPad,CuDef*
%ADD14FreePoly0,180.000000*%
G04 #@! TD*
G04 #@! TA.AperFunction,SMDPad,CuDef*
%ADD15R,1.000000X1.500000*%
G04 #@! TD*
G04 #@! TA.AperFunction,SMDPad,CuDef*
%ADD16FreePoly1,180.000000*%
G04 #@! TD*
G04 #@! TA.AperFunction,SMDPad,CuDef*
%ADD17FreePoly2,180.000000*%
G04 #@! TD*
G04 #@! TA.AperFunction,SMDPad,CuDef*
%ADD18FreePoly3,180.000000*%
G04 #@! TD*
G04 #@! TA.AperFunction,ViaPad*
%ADD19C,0.800000*%
G04 #@! TD*
G04 #@! TA.AperFunction,Conductor*
%ADD20C,0.250000*%
G04 #@! TD*
G04 #@! TA.AperFunction,Conductor*
%ADD21C,0.500000*%
G04 #@! TD*
G04 APERTURE END LIST*
G04 #@! TA.AperFunction,EtchedComponent*
G36*
X60900000Y-68400000D02*
G01*
X60400000Y-68400000D01*
X60400000Y-67800000D01*
X60900000Y-67800000D01*
X60900000Y-68400000D01*
G37*
G04 #@! TD.AperFunction*
G04 #@! TA.AperFunction,EtchedComponent*
G36*
X66500000Y-70600000D02*
G01*
X66000000Y-70600000D01*
X66000000Y-70000000D01*
X66500000Y-70000000D01*
X66500000Y-70600000D01*
G37*
G04 #@! TD.AperFunction*
G04 #@! TA.AperFunction,EtchedComponent*
G36*
X77100000Y-75400000D02*
G01*
X76600000Y-75400000D01*
X76600000Y-74800000D01*
X77100000Y-74800000D01*
X77100000Y-75400000D01*
G37*
G04 #@! TD.AperFunction*
G04 #@! TA.AperFunction,EtchedComponent*
G36*
X71100000Y-60900000D02*
G01*
X70600000Y-60900000D01*
X70600000Y-60300000D01*
X71100000Y-60300000D01*
X71100000Y-60900000D01*
G37*
G04 #@! TD.AperFunction*
D10*
X52000000Y-70180000D03*
D11*
X52000000Y-67640000D03*
X52000000Y-65100000D03*
D10*
X51800000Y-55460000D03*
D11*
X51800000Y-58000000D03*
D12*
X81195000Y-68220000D03*
D13*
X85375000Y-68220000D03*
D12*
X81195000Y-59580000D03*
D13*
X85375000Y-59580000D03*
D14*
X61300000Y-68100000D03*
D15*
X60000000Y-68100000D03*
D16*
X58700000Y-68100000D03*
D17*
X85050000Y-63900000D03*
D18*
X83750000Y-63900000D03*
D14*
X66900000Y-70300000D03*
D15*
X65600000Y-70300000D03*
D16*
X64300000Y-70300000D03*
D14*
X77500000Y-75100000D03*
D15*
X76200000Y-75100000D03*
D16*
X74900000Y-75100000D03*
D14*
X71500000Y-60600000D03*
D15*
X70200000Y-60600000D03*
D16*
X68900000Y-60600000D03*
D19*
X64200000Y-61700000D03*
X54300000Y-58000000D03*
X67100000Y-64400002D03*
X54500000Y-55400000D03*
X64700000Y-76200000D03*
X78800000Y-82600000D03*
X53900000Y-72600000D03*
X69936331Y-64548876D03*
X73660000Y-58420000D03*
X61800000Y-60400000D03*
X73200000Y-61200000D03*
X74300000Y-78200000D03*
X76500000Y-53300000D03*
X71120000Y-64400002D03*
X68725000Y-67359867D03*
X72900000Y-64700000D03*
X79200000Y-68400000D03*
X69100000Y-75900000D03*
X76700000Y-65800000D03*
X65100000Y-63900000D03*
X57200000Y-77000000D03*
X71800000Y-85100000D03*
X55300000Y-82200000D03*
X56800000Y-68100000D03*
X76300000Y-70200000D03*
X77900000Y-59200000D03*
X54600000Y-75800000D03*
X79000000Y-61500000D03*
X79000000Y-65300000D03*
X57500000Y-70180000D03*
X63500000Y-68580000D03*
X60100000Y-66040000D03*
X58700000Y-58100000D03*
X64098436Y-73498438D03*
X61000000Y-71030000D03*
X56000000Y-80200000D03*
X58420000Y-78124998D03*
D20*
X64200000Y-61297792D02*
X64200000Y-61700000D01*
X59827208Y-56925000D02*
X64101104Y-61198896D01*
X55375000Y-56925000D02*
X59827208Y-56925000D01*
X54300000Y-58000000D02*
X55375000Y-56925000D01*
X64101104Y-61198896D02*
X64200000Y-61297792D01*
X58938604Y-55400000D02*
X67100000Y-63561396D01*
X54500000Y-55400000D02*
X58938604Y-55400000D01*
X67100000Y-63561396D02*
X67100000Y-64400002D01*
D21*
X58700000Y-68980000D02*
X58700000Y-68100000D01*
X57500000Y-70180000D02*
X58700000Y-68980000D01*
D20*
X77500000Y-75100000D02*
X77500000Y-75850000D01*
X74375000Y-76175000D02*
X69936331Y-71736331D01*
X77500000Y-75850000D02*
X77175000Y-76175000D01*
X77175000Y-76175000D02*
X74375000Y-76175000D01*
X69936331Y-71736331D02*
X69936331Y-64548876D01*
X52000000Y-65100000D02*
X52000000Y-63774695D01*
X52000000Y-63774695D02*
X58399695Y-57375000D01*
X58399695Y-57375000D02*
X59000305Y-57375000D01*
X59000305Y-57375000D02*
X61800000Y-60174695D01*
X61800000Y-60174695D02*
X61800000Y-60400000D01*
X68725000Y-67359867D02*
X68725000Y-72625000D01*
X68725000Y-72625000D02*
X74300000Y-78200000D01*
X71500000Y-60600000D02*
X71500000Y-64020002D01*
X71500000Y-64020002D02*
X71120000Y-64400002D01*
X76500000Y-53300000D02*
X76500000Y-61100000D01*
X74900000Y-75100000D02*
X72175000Y-72375000D01*
X70330000Y-58420000D02*
X73660000Y-58420000D01*
X72175000Y-62225000D02*
X73200000Y-61200000D01*
X68900000Y-59850000D02*
X70330000Y-58420000D01*
X72175000Y-72375000D02*
X72175000Y-62225000D01*
X76500000Y-61100000D02*
X72900000Y-64700000D01*
X68900000Y-60600000D02*
X68900000Y-59850000D01*
X79000000Y-61500000D02*
X79000000Y-65300000D01*
D21*
X64300000Y-69380000D02*
X63500000Y-68580000D01*
X64300000Y-70300000D02*
X64300000Y-69380000D01*
D20*
X58700000Y-58100000D02*
X58700000Y-64640000D01*
X58700000Y-64640000D02*
X60100000Y-66040000D01*
X85375000Y-59580000D02*
X81195000Y-59580000D01*
X85375000Y-68220000D02*
X83750000Y-66595000D01*
X83750000Y-66595000D02*
X83750000Y-63900000D01*
X83750000Y-63900000D02*
X83750000Y-61205000D01*
X81195000Y-68220000D02*
X85375000Y-68220000D01*
X83750000Y-61205000D02*
X85375000Y-59580000D01*
X60000000Y-68100000D02*
X60000000Y-71055305D01*
X62443133Y-73498438D02*
X64098436Y-73498438D01*
X60000000Y-71055305D02*
X62443133Y-73498438D01*
X61345000Y-71375000D02*
X61000000Y-71030000D01*
X65600000Y-70300000D02*
X65600000Y-71300000D01*
X65600000Y-71300000D02*
X65525000Y-71375000D01*
X65525000Y-71375000D02*
X61345000Y-71375000D01*
X76200000Y-74100000D02*
X76275000Y-74025000D01*
X78330142Y-75769858D02*
X73900000Y-80200000D01*
X77925000Y-74025000D02*
X78330142Y-74430142D01*
X76275000Y-74025000D02*
X77925000Y-74025000D01*
X73900000Y-80200000D02*
X56000000Y-80200000D01*
X78330142Y-74430142D02*
X78330142Y-75769858D01*
X76200000Y-75100000D02*
X76200000Y-74100000D01*
X68000000Y-64725000D02*
X68000000Y-75900000D01*
X65775002Y-78124998D02*
X58420000Y-78124998D01*
X70200000Y-62525000D02*
X68000000Y-64725000D01*
X68000000Y-75900000D02*
X65775002Y-78124998D01*
X70200000Y-60600000D02*
X70200000Y-62525000D01*
G04 #@! TA.AperFunction,Conductor*
G36*
X62359191Y-50319407D02*
G01*
X62395155Y-50368907D01*
X62400000Y-50399500D01*
X62400000Y-55500000D01*
X62400001Y-55500000D01*
X75599999Y-55500000D01*
X75600000Y-55500000D01*
X75600000Y-53904128D01*
X75618907Y-53845937D01*
X75668407Y-53809973D01*
X75729593Y-53809973D01*
X75772571Y-53837884D01*
X75849071Y-53922845D01*
X75873958Y-53978740D01*
X75874500Y-53989089D01*
X75874500Y-60799901D01*
X75855593Y-60858092D01*
X75845504Y-60869905D01*
X72969504Y-63745905D01*
X72914987Y-63773682D01*
X72854555Y-63764111D01*
X72811290Y-63720846D01*
X72800500Y-63675901D01*
X72800500Y-62525097D01*
X72819407Y-62466906D01*
X72829497Y-62455093D01*
X73155095Y-62129496D01*
X73209611Y-62101719D01*
X73225098Y-62100500D01*
X73294643Y-62100500D01*
X73294646Y-62100500D01*
X73479803Y-62061144D01*
X73652730Y-61984151D01*
X73805871Y-61872888D01*
X73932533Y-61732216D01*
X74027179Y-61568284D01*
X74085674Y-61388256D01*
X74105460Y-61200000D01*
X74085674Y-61011744D01*
X74027179Y-60831716D01*
X74027176Y-60831711D01*
X74027174Y-60831706D01*
X73978551Y-60747490D01*
X73932533Y-60667784D01*
X73860930Y-60588261D01*
X73805875Y-60527116D01*
X73805870Y-60527111D01*
X73729300Y-60471480D01*
X73652730Y-60415849D01*
X73652725Y-60415847D01*
X73652722Y-60415845D01*
X73489238Y-60343057D01*
X73479803Y-60338856D01*
X73479800Y-60338855D01*
X73479799Y-60338855D01*
X73444580Y-60331369D01*
X73294646Y-60299500D01*
X73105354Y-60299500D01*
X72987289Y-60324595D01*
X72920200Y-60338855D01*
X72920194Y-60338857D01*
X72747277Y-60415845D01*
X72747268Y-60415850D01*
X72662837Y-60477193D01*
X72604647Y-60496100D01*
X72546456Y-60477192D01*
X72510492Y-60427692D01*
X72505647Y-60397100D01*
X72505647Y-60344815D01*
X72505642Y-60344752D01*
X72505642Y-60278032D01*
X72486188Y-60142730D01*
X72486187Y-60142728D01*
X72485180Y-60135725D01*
X72485180Y-60135723D01*
X72485180Y-60135722D01*
X72444632Y-59997630D01*
X72384904Y-59866845D01*
X72384898Y-59866835D01*
X72307102Y-59745781D01*
X72307099Y-59745777D01*
X72307098Y-59745776D01*
X72307097Y-59745774D01*
X72212943Y-59637113D01*
X72212940Y-59637110D01*
X72212931Y-59637102D01*
X72212921Y-59637093D01*
X72104174Y-59542864D01*
X72104162Y-59542855D01*
X71983225Y-59465134D01*
X71983218Y-59465130D01*
X71983216Y-59465129D01*
X71852300Y-59405342D01*
X71852295Y-59405340D01*
X71852294Y-59405340D01*
X71714346Y-59364835D01*
X71714340Y-59364834D01*
X71571894Y-59344353D01*
X71571889Y-59344353D01*
X70950000Y-59344353D01*
X70878039Y-59349500D01*
X70878036Y-59349500D01*
X70878030Y-59349502D01*
X70859627Y-59354905D01*
X70813687Y-59356134D01*
X70813641Y-59356571D01*
X70810402Y-59356222D01*
X70808977Y-59356261D01*
X70807490Y-59355909D01*
X70765756Y-59351422D01*
X70747873Y-59349500D01*
X70747870Y-59349500D01*
X70524098Y-59349500D01*
X70465907Y-59330593D01*
X70429943Y-59281093D01*
X70429943Y-59219907D01*
X70454093Y-59180497D01*
X70560095Y-59074495D01*
X70614611Y-59046719D01*
X70630098Y-59045500D01*
X72967383Y-59045500D01*
X73025574Y-59064407D01*
X73040954Y-59078256D01*
X73054129Y-59092888D01*
X73207270Y-59204151D01*
X73380197Y-59281144D01*
X73565354Y-59320500D01*
X73565357Y-59320500D01*
X73754643Y-59320500D01*
X73754646Y-59320500D01*
X73939803Y-59281144D01*
X74112730Y-59204151D01*
X74265871Y-59092888D01*
X74392533Y-58952216D01*
X74487179Y-58788284D01*
X74545674Y-58608256D01*
X74565460Y-58420000D01*
X74545674Y-58231744D01*
X74487179Y-58051716D01*
X74487176Y-58051711D01*
X74487174Y-58051706D01*
X74412189Y-57921830D01*
X74392533Y-57887784D01*
X74309783Y-57795881D01*
X74265875Y-57747116D01*
X74265870Y-57747111D01*
X74112731Y-57635850D01*
X74112732Y-57635850D01*
X74112730Y-57635849D01*
X74112725Y-57635847D01*
X74112722Y-57635845D01*
X73939805Y-57558857D01*
X73939803Y-57558856D01*
X73939800Y-57558855D01*
X73939799Y-57558855D01*
X73900491Y-57550500D01*
X73754646Y-57519500D01*
X73565354Y-57519500D01*
X73447289Y-57544595D01*
X73380200Y-57558855D01*
X73380194Y-57558857D01*
X73207277Y-57635845D01*
X73207268Y-57635850D01*
X73054129Y-57747111D01*
X73054128Y-57747112D01*
X73040954Y-57761744D01*
X72987966Y-57792337D01*
X72967383Y-57794500D01*
X70409978Y-57794500D01*
X70395528Y-57792905D01*
X70395528Y-57792914D01*
X70389329Y-57792327D01*
X70321763Y-57794451D01*
X70318653Y-57794500D01*
X70290641Y-57794500D01*
X70285475Y-57795152D01*
X70276202Y-57795881D01*
X70231371Y-57797291D01*
X70231370Y-57797291D01*
X70210243Y-57803429D01*
X70195034Y-57806578D01*
X70173210Y-57809335D01*
X70131496Y-57825850D01*
X70122677Y-57828869D01*
X70079608Y-57841382D01*
X70060672Y-57852581D01*
X70046726Y-57859413D01*
X70026270Y-57867512D01*
X70026266Y-57867514D01*
X69989977Y-57893878D01*
X69982188Y-57898995D01*
X69943578Y-57921830D01*
X69943577Y-57921831D01*
X69928015Y-57937392D01*
X69916208Y-57947476D01*
X69898416Y-57960402D01*
X69869829Y-57994957D01*
X69863554Y-58001853D01*
X68514253Y-59351154D01*
X68502915Y-59360239D01*
X68502921Y-59360246D01*
X68498127Y-59364211D01*
X68498123Y-59364214D01*
X68498119Y-59364217D01*
X68498118Y-59364219D01*
X68451835Y-59413503D01*
X68449676Y-59415731D01*
X68429885Y-59435523D01*
X68429876Y-59435533D01*
X68426689Y-59439641D01*
X68420646Y-59446715D01*
X68391286Y-59477981D01*
X68372642Y-59493495D01*
X68317298Y-59529064D01*
X68295830Y-59542861D01*
X68295826Y-59542864D01*
X68270485Y-59564821D01*
X68187061Y-59637108D01*
X68187051Y-59637118D01*
X68092906Y-59745768D01*
X68092897Y-59745781D01*
X68015101Y-59866835D01*
X68015090Y-59866854D01*
X67955072Y-59998276D01*
X67954371Y-60001022D01*
X67914820Y-60135721D01*
X67914819Y-60135725D01*
X67894358Y-60278033D01*
X67894358Y-60344752D01*
X67894353Y-60344767D01*
X67894353Y-60855184D01*
X67894358Y-60855248D01*
X67894358Y-60921966D01*
X67913812Y-61057265D01*
X67913813Y-61057272D01*
X67914820Y-61064279D01*
X67955366Y-61202365D01*
X67955367Y-61202368D01*
X67955368Y-61202370D01*
X68015096Y-61333155D01*
X68015097Y-61333156D01*
X68015101Y-61333164D01*
X68092897Y-61454218D01*
X68092900Y-61454222D01*
X68092903Y-61454226D01*
X68187057Y-61562887D01*
X68187060Y-61562890D01*
X68187066Y-61562895D01*
X68187078Y-61562906D01*
X68295825Y-61657135D01*
X68295837Y-61657144D01*
X68416774Y-61734865D01*
X68416779Y-61734868D01*
X68416784Y-61734871D01*
X68547700Y-61794658D01*
X68685655Y-61835165D01*
X68748968Y-61844268D01*
X68828106Y-61855647D01*
X68828111Y-61855647D01*
X69449997Y-61855647D01*
X69450000Y-61855647D01*
X69468437Y-61854328D01*
X69527828Y-61869035D01*
X69567232Y-61915843D01*
X69574500Y-61953076D01*
X69574500Y-62224900D01*
X69555593Y-62283091D01*
X69545504Y-62294904D01*
X67972674Y-63867733D01*
X67918157Y-63895510D01*
X67857725Y-63885939D01*
X67829100Y-63863974D01*
X67771048Y-63799500D01*
X67750928Y-63777154D01*
X67726042Y-63721259D01*
X67725500Y-63710911D01*
X67725500Y-63641379D01*
X67727095Y-63626925D01*
X67727087Y-63626925D01*
X67727673Y-63620726D01*
X67725549Y-63553140D01*
X67725500Y-63550030D01*
X67725500Y-63522049D01*
X67725500Y-63522046D01*
X67724848Y-63516888D01*
X67724117Y-63507592D01*
X67722709Y-63462773D01*
X67722709Y-63462772D01*
X67722709Y-63462769D01*
X67716570Y-63441641D01*
X67713420Y-63426430D01*
X67710664Y-63404604D01*
X67710469Y-63404111D01*
X67694150Y-63362892D01*
X67691129Y-63354070D01*
X67687165Y-63340426D01*
X67678618Y-63311006D01*
X67670708Y-63297630D01*
X67667417Y-63292065D01*
X67660586Y-63278120D01*
X67652487Y-63257667D01*
X67652486Y-63257664D01*
X67650702Y-63255208D01*
X67626121Y-63221374D01*
X67621001Y-63213580D01*
X67598169Y-63174975D01*
X67582611Y-63159416D01*
X67572522Y-63147603D01*
X67559594Y-63129809D01*
X67525037Y-63101221D01*
X67518138Y-63094944D01*
X59437451Y-55014256D01*
X59428368Y-55002917D01*
X59428361Y-55002924D01*
X59424393Y-54998129D01*
X59424390Y-54998123D01*
X59375116Y-54951851D01*
X59372884Y-54949689D01*
X59353076Y-54929881D01*
X59348969Y-54926695D01*
X59341883Y-54920642D01*
X59309187Y-54889938D01*
X59289906Y-54879339D01*
X59276922Y-54870810D01*
X59268466Y-54864251D01*
X59259538Y-54857325D01*
X59218375Y-54839512D01*
X59210003Y-54835411D01*
X59187321Y-54822942D01*
X59170696Y-54813803D01*
X59170694Y-54813802D01*
X59170690Y-54813800D01*
X59149384Y-54808330D01*
X59134687Y-54803298D01*
X59114500Y-54794562D01*
X59114494Y-54794560D01*
X59070195Y-54787544D01*
X59061067Y-54785654D01*
X59046562Y-54781930D01*
X59017625Y-54774500D01*
X59017623Y-54774500D01*
X58995622Y-54774500D01*
X58980134Y-54773281D01*
X58958408Y-54769839D01*
X58913754Y-54774061D01*
X58904438Y-54774500D01*
X55192617Y-54774500D01*
X55134426Y-54755593D01*
X55119046Y-54741744D01*
X55105871Y-54727112D01*
X55105870Y-54727111D01*
X54952731Y-54615850D01*
X54952732Y-54615850D01*
X54952730Y-54615849D01*
X54952725Y-54615847D01*
X54952722Y-54615845D01*
X54779805Y-54538857D01*
X54779803Y-54538856D01*
X54779800Y-54538855D01*
X54779799Y-54538855D01*
X54744580Y-54531369D01*
X54594646Y-54499500D01*
X54405354Y-54499500D01*
X54287289Y-54524595D01*
X54220200Y-54538855D01*
X54220194Y-54538857D01*
X54047277Y-54615845D01*
X54047268Y-54615850D01*
X53894129Y-54727111D01*
X53894124Y-54727116D01*
X53767469Y-54867781D01*
X53767465Y-54867787D01*
X53672825Y-55031706D01*
X53672819Y-55031720D01*
X53614327Y-55211738D01*
X53594540Y-55400000D01*
X53614327Y-55588261D01*
X53672819Y-55768279D01*
X53672825Y-55768293D01*
X53748015Y-55898525D01*
X53767467Y-55932216D01*
X53767469Y-55932218D01*
X53877568Y-56054496D01*
X53894129Y-56072888D01*
X54047270Y-56184151D01*
X54220197Y-56261144D01*
X54405354Y-56300500D01*
X54405357Y-56300500D01*
X54594643Y-56300500D01*
X54594646Y-56300500D01*
X54779803Y-56261144D01*
X54952730Y-56184151D01*
X55105871Y-56072888D01*
X55119046Y-56058256D01*
X55172034Y-56027663D01*
X55192617Y-56025500D01*
X58638506Y-56025500D01*
X58696697Y-56044407D01*
X58708510Y-56054496D01*
X58784510Y-56130496D01*
X58812287Y-56185013D01*
X58802716Y-56245445D01*
X58759451Y-56288710D01*
X58714506Y-56299500D01*
X55454984Y-56299500D01*
X55440530Y-56297904D01*
X55440530Y-56297913D01*
X55434331Y-56297326D01*
X55366731Y-56299451D01*
X55363622Y-56299500D01*
X55335649Y-56299500D01*
X55330499Y-56300150D01*
X55321214Y-56300880D01*
X55276373Y-56302290D01*
X55276371Y-56302290D01*
X55255235Y-56308430D01*
X55240034Y-56311578D01*
X55218207Y-56314336D01*
X55218202Y-56314337D01*
X55176512Y-56330844D01*
X55167691Y-56333864D01*
X55124610Y-56346381D01*
X55105673Y-56357580D01*
X55091733Y-56364409D01*
X55071268Y-56372512D01*
X55034972Y-56398882D01*
X55027181Y-56403999D01*
X54988581Y-56426827D01*
X54973021Y-56442387D01*
X54961215Y-56452470D01*
X54943417Y-56465401D01*
X54914825Y-56499962D01*
X54908550Y-56506858D01*
X54344905Y-57070504D01*
X54290388Y-57098281D01*
X54274901Y-57099500D01*
X54205354Y-57099500D01*
X54087289Y-57124595D01*
X54020200Y-57138855D01*
X54020194Y-57138857D01*
X53847277Y-57215845D01*
X53847268Y-57215850D01*
X53694129Y-57327111D01*
X53694124Y-57327116D01*
X53567469Y-57467781D01*
X53567465Y-57467787D01*
X53472825Y-57631706D01*
X53472819Y-57631720D01*
X53414327Y-57811738D01*
X53414326Y-57811742D01*
X53414326Y-57811744D01*
X53394540Y-58000000D01*
X53399975Y-58051716D01*
X53414327Y-58188261D01*
X53472819Y-58368279D01*
X53472825Y-58368293D01*
X53527887Y-58463662D01*
X53567467Y-58532216D01*
X53567469Y-58532218D01*
X53678780Y-58655842D01*
X53694129Y-58672888D01*
X53847270Y-58784151D01*
X54020197Y-58861144D01*
X54205354Y-58900500D01*
X54205357Y-58900500D01*
X54394643Y-58900500D01*
X54394646Y-58900500D01*
X54579803Y-58861144D01*
X54752730Y-58784151D01*
X54905871Y-58672888D01*
X55032533Y-58532216D01*
X55114844Y-58389648D01*
X55127174Y-58368293D01*
X55127174Y-58368291D01*
X55127179Y-58368284D01*
X55185674Y-58188256D01*
X55204247Y-58011540D01*
X55229132Y-57955647D01*
X55232681Y-57951908D01*
X55605094Y-57579496D01*
X55659610Y-57551719D01*
X55675097Y-57550500D01*
X57100596Y-57550500D01*
X57158787Y-57569407D01*
X57194751Y-57618907D01*
X57194751Y-57680093D01*
X57170600Y-57719504D01*
X51614253Y-63275849D01*
X51602915Y-63284934D01*
X51602921Y-63284941D01*
X51598127Y-63288906D01*
X51598123Y-63288909D01*
X51598119Y-63288912D01*
X51598118Y-63288914D01*
X51551835Y-63338198D01*
X51549676Y-63340426D01*
X51529885Y-63360218D01*
X51529876Y-63360228D01*
X51526689Y-63364336D01*
X51520647Y-63371409D01*
X51489939Y-63404111D01*
X51489935Y-63404116D01*
X51479334Y-63423398D01*
X51470813Y-63436371D01*
X51457325Y-63453761D01*
X51439510Y-63494928D01*
X51435409Y-63503298D01*
X51413804Y-63542600D01*
X51413800Y-63542611D01*
X51408332Y-63563907D01*
X51403303Y-63578598D01*
X51394561Y-63598800D01*
X51394560Y-63598803D01*
X51387543Y-63643106D01*
X51385652Y-63652235D01*
X51374501Y-63695668D01*
X51374500Y-63695679D01*
X51374500Y-63717676D01*
X51373281Y-63733164D01*
X51369839Y-63754888D01*
X51374061Y-63799542D01*
X51374500Y-63808859D01*
X51374500Y-63838595D01*
X51355593Y-63896786D01*
X51325006Y-63924328D01*
X51322173Y-63925963D01*
X51128603Y-64061501D01*
X50961501Y-64228603D01*
X50825963Y-64422173D01*
X50825959Y-64422181D01*
X50726098Y-64636332D01*
X50664935Y-64864599D01*
X50644341Y-65099995D01*
X50644341Y-65100004D01*
X50664935Y-65335400D01*
X50664936Y-65335407D01*
X50664937Y-65335408D01*
X50726097Y-65563663D01*
X50825965Y-65777830D01*
X50961505Y-65971401D01*
X51128599Y-66138495D01*
X51322170Y-66274035D01*
X51536337Y-66373903D01*
X51743222Y-66429337D01*
X51794535Y-66462660D01*
X51816462Y-66519781D01*
X51800627Y-66578882D01*
X51753077Y-66617387D01*
X51746336Y-66619700D01*
X51596237Y-66665232D01*
X51596232Y-66665234D01*
X51413839Y-66762724D01*
X51413829Y-66762731D01*
X51253949Y-66893940D01*
X51253940Y-66893949D01*
X51122731Y-67053829D01*
X51122724Y-67053839D01*
X51025234Y-67236232D01*
X51025232Y-67236237D01*
X50978588Y-67389999D01*
X50978589Y-67390000D01*
X51566314Y-67390000D01*
X51540507Y-67430156D01*
X51500000Y-67568111D01*
X51500000Y-67711889D01*
X51540507Y-67849844D01*
X51566314Y-67890000D01*
X50978589Y-67890000D01*
X51025232Y-68043762D01*
X51025234Y-68043767D01*
X51122724Y-68226160D01*
X51122731Y-68226170D01*
X51253940Y-68386050D01*
X51253949Y-68386059D01*
X51413829Y-68517268D01*
X51413839Y-68517275D01*
X51596232Y-68614765D01*
X51596237Y-68614767D01*
X51665451Y-68635763D01*
X51715648Y-68670748D01*
X51735694Y-68728556D01*
X51717933Y-68787107D01*
X51669149Y-68824036D01*
X51636713Y-68829500D01*
X51102133Y-68829500D01*
X51102129Y-68829500D01*
X51102128Y-68829501D01*
X51094949Y-68830272D01*
X51042519Y-68835908D01*
X51042514Y-68835909D01*
X50907670Y-68886202D01*
X50792458Y-68972450D01*
X50792450Y-68972458D01*
X50706202Y-69087670D01*
X50655910Y-69222511D01*
X50655908Y-69222522D01*
X50649500Y-69282129D01*
X50649500Y-71077866D01*
X50649501Y-71077870D01*
X50655908Y-71137480D01*
X50655909Y-71137485D01*
X50706202Y-71272329D01*
X50771108Y-71359032D01*
X50792454Y-71387546D01*
X50792457Y-71387548D01*
X50792458Y-71387549D01*
X50907670Y-71473797D01*
X51042511Y-71524089D01*
X51042512Y-71524089D01*
X51042517Y-71524091D01*
X51102127Y-71530500D01*
X52897872Y-71530499D01*
X52957483Y-71524091D01*
X53024907Y-71498943D01*
X53092329Y-71473797D01*
X53092329Y-71473796D01*
X53092331Y-71473796D01*
X53207546Y-71387546D01*
X53293796Y-71272331D01*
X53344091Y-71137483D01*
X53350500Y-71077873D01*
X53350499Y-69282128D01*
X53344091Y-69222517D01*
X53328062Y-69179540D01*
X53293797Y-69087670D01*
X53207549Y-68972458D01*
X53207548Y-68972457D01*
X53207546Y-68972454D01*
X53187554Y-68957488D01*
X53092329Y-68886202D01*
X52957488Y-68835910D01*
X52957483Y-68835909D01*
X52957481Y-68835908D01*
X52957477Y-68835908D01*
X52926249Y-68832550D01*
X52897873Y-68829500D01*
X52897870Y-68829500D01*
X52363287Y-68829500D01*
X52305096Y-68810593D01*
X52269132Y-68761093D01*
X52269132Y-68699907D01*
X52305096Y-68650407D01*
X52334549Y-68635763D01*
X52403762Y-68614767D01*
X52403767Y-68614765D01*
X52586160Y-68517275D01*
X52586170Y-68517268D01*
X52746050Y-68386059D01*
X52746059Y-68386050D01*
X52877268Y-68226170D01*
X52877275Y-68226160D01*
X52974765Y-68043767D01*
X52974767Y-68043762D01*
X53021411Y-67890000D01*
X52433686Y-67890000D01*
X52459493Y-67849844D01*
X52500000Y-67711889D01*
X52500000Y-67568111D01*
X52459493Y-67430156D01*
X52433686Y-67390000D01*
X53021411Y-67390000D01*
X53021411Y-67389999D01*
X52974767Y-67236237D01*
X52974765Y-67236232D01*
X52877275Y-67053839D01*
X52877268Y-67053829D01*
X52746059Y-66893949D01*
X52746050Y-66893940D01*
X52586170Y-66762731D01*
X52586160Y-66762724D01*
X52403767Y-66665234D01*
X52403762Y-66665232D01*
X52253663Y-66619700D01*
X52203466Y-66584715D01*
X52183420Y-66526907D01*
X52201181Y-66468356D01*
X52249966Y-66431427D01*
X52256752Y-66429343D01*
X52463663Y-66373903D01*
X52677830Y-66274035D01*
X52871401Y-66138495D01*
X53038495Y-65971401D01*
X53174035Y-65777830D01*
X53273903Y-65563663D01*
X53335063Y-65335408D01*
X53335064Y-65335400D01*
X53355659Y-65100004D01*
X53355659Y-65099995D01*
X53335064Y-64864599D01*
X53335063Y-64864596D01*
X53335063Y-64864592D01*
X53273903Y-64636337D01*
X53273901Y-64636332D01*
X53174040Y-64422181D01*
X53174036Y-64422173D01*
X53128587Y-64357265D01*
X53038495Y-64228599D01*
X52871401Y-64061505D01*
X52871397Y-64061502D01*
X52871396Y-64061501D01*
X52807113Y-64016490D01*
X52770291Y-63967626D01*
X52769223Y-63906450D01*
X52793891Y-63865392D01*
X57905498Y-58753786D01*
X57960013Y-58726011D01*
X58020445Y-58735582D01*
X58063710Y-58778847D01*
X58074500Y-58823792D01*
X58074500Y-64560014D01*
X58072904Y-64574464D01*
X58072913Y-64574465D01*
X58072326Y-64580668D01*
X58074451Y-64648254D01*
X58074500Y-64651364D01*
X58074500Y-64679351D01*
X58075151Y-64684509D01*
X58075881Y-64693794D01*
X58077291Y-64738629D01*
X58077291Y-64738633D01*
X58083428Y-64759755D01*
X58086578Y-64774966D01*
X58089334Y-64796787D01*
X58105846Y-64838492D01*
X58108865Y-64847312D01*
X58120762Y-64888256D01*
X58121382Y-64890390D01*
X58132416Y-64909049D01*
X58132580Y-64909325D01*
X58139412Y-64923272D01*
X58147512Y-64943727D01*
X58147514Y-64943732D01*
X58173879Y-64980021D01*
X58179000Y-64987817D01*
X58201828Y-65026418D01*
X58201828Y-65026419D01*
X58217389Y-65041980D01*
X58227473Y-65053786D01*
X58240406Y-65071587D01*
X58240407Y-65071588D01*
X58240408Y-65071589D01*
X58240410Y-65071591D01*
X58274960Y-65100173D01*
X58281860Y-65106450D01*
X59167299Y-65991890D01*
X59195076Y-66046407D01*
X59195753Y-66051545D01*
X59204220Y-66132107D01*
X59207272Y-66161144D01*
X59214327Y-66228261D01*
X59272819Y-66408279D01*
X59272825Y-66408293D01*
X59315686Y-66482529D01*
X59367467Y-66572216D01*
X59410222Y-66619700D01*
X59472942Y-66689358D01*
X59497828Y-66745254D01*
X59485106Y-66805102D01*
X59439636Y-66846043D01*
X59409951Y-66854034D01*
X59405772Y-66854484D01*
X59392514Y-66855909D01*
X59387276Y-66857147D01*
X59350426Y-66858791D01*
X59250005Y-66844353D01*
X59250000Y-66844353D01*
X58628111Y-66844353D01*
X58628106Y-66844353D01*
X58485659Y-66864834D01*
X58485653Y-66864835D01*
X58347705Y-66905340D01*
X58347701Y-66905341D01*
X58347700Y-66905342D01*
X58329169Y-66913805D01*
X58216781Y-66965130D01*
X58216774Y-66965134D01*
X58095837Y-67042855D01*
X58095833Y-67042858D01*
X57987061Y-67137108D01*
X57987051Y-67137118D01*
X57892906Y-67245768D01*
X57892897Y-67245781D01*
X57815101Y-67366835D01*
X57815090Y-67366854D01*
X57755072Y-67498276D01*
X57754371Y-67501022D01*
X57714820Y-67635721D01*
X57714819Y-67635725D01*
X57694358Y-67778033D01*
X57694358Y-67844752D01*
X57694353Y-67844767D01*
X57694353Y-68355184D01*
X57694358Y-68355248D01*
X57694358Y-68421966D01*
X57713812Y-68557265D01*
X57713813Y-68557272D01*
X57714820Y-68564279D01*
X57755366Y-68702365D01*
X57777255Y-68750295D01*
X57784229Y-68811082D01*
X57757205Y-68861425D01*
X57341991Y-69276639D01*
X57292571Y-69303471D01*
X57220207Y-69318852D01*
X57220196Y-69318856D01*
X57047277Y-69395845D01*
X57047268Y-69395850D01*
X56894129Y-69507111D01*
X56894124Y-69507116D01*
X56767469Y-69647781D01*
X56767465Y-69647787D01*
X56672825Y-69811706D01*
X56672819Y-69811720D01*
X56614327Y-69991738D01*
X56614326Y-69991742D01*
X56614326Y-69991744D01*
X56594540Y-70180000D01*
X56613155Y-70357116D01*
X56614327Y-70368261D01*
X56672819Y-70548279D01*
X56672825Y-70548293D01*
X56715360Y-70621964D01*
X56767467Y-70712216D01*
X56894129Y-70852888D01*
X57047270Y-70964151D01*
X57220197Y-71041144D01*
X57405354Y-71080500D01*
X57405357Y-71080500D01*
X57594643Y-71080500D01*
X57594646Y-71080500D01*
X57779803Y-71041144D01*
X57952730Y-70964151D01*
X58105871Y-70852888D01*
X58232533Y-70712216D01*
X58327179Y-70548284D01*
X58384376Y-70372247D01*
X58408524Y-70332842D01*
X59186933Y-69554432D01*
X59197806Y-69545037D01*
X59216385Y-69531206D01*
X59274351Y-69511626D01*
X59332757Y-69529856D01*
X59369293Y-69578936D01*
X59374500Y-69610619D01*
X59374500Y-70975319D01*
X59372904Y-70989769D01*
X59372913Y-70989770D01*
X59372326Y-70995973D01*
X59374451Y-71063559D01*
X59374500Y-71066669D01*
X59374500Y-71094656D01*
X59375151Y-71099814D01*
X59375881Y-71109099D01*
X59377291Y-71153934D01*
X59377291Y-71153938D01*
X59383428Y-71175060D01*
X59386578Y-71190271D01*
X59389334Y-71212092D01*
X59405846Y-71253797D01*
X59408865Y-71262617D01*
X59421381Y-71305692D01*
X59421382Y-71305695D01*
X59432580Y-71324630D01*
X59439412Y-71338577D01*
X59447512Y-71359032D01*
X59447514Y-71359037D01*
X59473879Y-71395326D01*
X59479000Y-71403122D01*
X59501828Y-71441723D01*
X59501828Y-71441724D01*
X59517389Y-71457285D01*
X59527473Y-71469091D01*
X59540406Y-71486892D01*
X59540407Y-71486893D01*
X59540408Y-71486894D01*
X59540410Y-71486896D01*
X59574960Y-71515478D01*
X59581860Y-71521755D01*
X61944284Y-73884180D01*
X61953370Y-73895522D01*
X61953377Y-73895517D01*
X61957344Y-73900313D01*
X62006636Y-73946602D01*
X62008867Y-73948764D01*
X62028659Y-73968556D01*
X62028662Y-73968558D01*
X62032770Y-73971745D01*
X62039847Y-73977789D01*
X62072551Y-74008500D01*
X62091830Y-74019098D01*
X62104814Y-74027627D01*
X62122197Y-74041111D01*
X62163368Y-74058928D01*
X62171737Y-74063028D01*
X62211041Y-74084635D01*
X62228770Y-74089186D01*
X62232339Y-74090103D01*
X62247040Y-74095136D01*
X62267234Y-74103875D01*
X62267235Y-74103875D01*
X62267237Y-74103876D01*
X62311557Y-74110895D01*
X62320669Y-74112783D01*
X62364107Y-74123937D01*
X62364113Y-74123937D01*
X62364114Y-74123938D01*
X62386115Y-74123938D01*
X62401602Y-74125156D01*
X62423329Y-74128598D01*
X62464471Y-74124708D01*
X62467983Y-74124377D01*
X62477299Y-74123938D01*
X63405819Y-74123938D01*
X63464010Y-74142845D01*
X63479390Y-74156694D01*
X63492565Y-74171326D01*
X63645706Y-74282589D01*
X63818633Y-74359582D01*
X64003790Y-74398938D01*
X64003793Y-74398938D01*
X64193079Y-74398938D01*
X64193082Y-74398938D01*
X64378239Y-74359582D01*
X64551166Y-74282589D01*
X64704307Y-74171326D01*
X64830969Y-74030654D01*
X64925615Y-73866722D01*
X64984110Y-73686694D01*
X65003896Y-73498438D01*
X64984110Y-73310182D01*
X64925615Y-73130154D01*
X64925612Y-73130149D01*
X64925610Y-73130144D01*
X64876987Y-73045928D01*
X64830969Y-72966222D01*
X64776685Y-72905934D01*
X64704311Y-72825554D01*
X64704306Y-72825549D01*
X64551167Y-72714288D01*
X64551168Y-72714288D01*
X64551166Y-72714287D01*
X64551161Y-72714285D01*
X64551158Y-72714283D01*
X64378241Y-72637295D01*
X64378239Y-72637294D01*
X64378236Y-72637293D01*
X64378235Y-72637293D01*
X64343016Y-72629807D01*
X64193082Y-72597938D01*
X64003790Y-72597938D01*
X63885725Y-72623033D01*
X63818636Y-72637293D01*
X63818630Y-72637295D01*
X63645713Y-72714283D01*
X63645704Y-72714288D01*
X63492565Y-72825549D01*
X63492564Y-72825550D01*
X63479390Y-72840182D01*
X63426402Y-72870775D01*
X63405819Y-72872938D01*
X62743231Y-72872938D01*
X62685040Y-72854031D01*
X62673227Y-72843942D01*
X61998789Y-72169504D01*
X61971012Y-72114987D01*
X61980583Y-72054555D01*
X62023848Y-72011290D01*
X62068793Y-72000500D01*
X65445017Y-72000500D01*
X65459470Y-72002095D01*
X65459471Y-72002087D01*
X65465665Y-72002672D01*
X65465667Y-72002673D01*
X65465668Y-72002672D01*
X65465669Y-72002673D01*
X65533255Y-72000549D01*
X65536365Y-72000500D01*
X65564343Y-72000500D01*
X65564350Y-72000500D01*
X65569507Y-71999848D01*
X65578800Y-71999117D01*
X65623627Y-71997709D01*
X65644751Y-71991570D01*
X65659961Y-71988421D01*
X65681792Y-71985664D01*
X65681796Y-71985662D01*
X65681798Y-71985662D01*
X65723502Y-71969150D01*
X65732316Y-71966131D01*
X65775390Y-71953618D01*
X65794325Y-71942419D01*
X65808265Y-71935589D01*
X65828732Y-71927486D01*
X65865021Y-71901120D01*
X65872810Y-71896002D01*
X65911420Y-71873170D01*
X65926984Y-71857605D01*
X65938785Y-71847527D01*
X65956587Y-71834594D01*
X65981539Y-71804430D01*
X65997545Y-71790321D01*
X65997078Y-71789756D01*
X66001872Y-71785788D01*
X66001877Y-71785786D01*
X66048196Y-71736460D01*
X66050298Y-71734291D01*
X66070120Y-71714471D01*
X66073308Y-71710360D01*
X66079348Y-71703288D01*
X66110062Y-71670582D01*
X66120661Y-71651299D01*
X66129192Y-71638314D01*
X66142673Y-71620936D01*
X66153104Y-71596831D01*
X66193566Y-71550934D01*
X66209366Y-71543389D01*
X66342329Y-71493797D01*
X66342329Y-71493796D01*
X66342331Y-71493796D01*
X66457546Y-71407546D01*
X66543796Y-71292331D01*
X66594091Y-71157483D01*
X66600500Y-71097873D01*
X66600499Y-69502128D01*
X66594091Y-69442517D01*
X66593578Y-69441142D01*
X66543797Y-69307670D01*
X66457549Y-69192458D01*
X66457548Y-69192457D01*
X66457546Y-69192454D01*
X66457541Y-69192450D01*
X66342329Y-69106202D01*
X66207488Y-69055910D01*
X66207483Y-69055909D01*
X66207481Y-69055908D01*
X66207477Y-69055908D01*
X66176249Y-69052550D01*
X66147873Y-69049500D01*
X66147870Y-69049500D01*
X65052133Y-69049500D01*
X65052122Y-69049501D01*
X65045684Y-69050193D01*
X64985807Y-69037607D01*
X64952400Y-69006161D01*
X64933818Y-68977909D01*
X64932270Y-68975479D01*
X64892714Y-68911348D01*
X64892713Y-68911347D01*
X64892712Y-68911345D01*
X64892045Y-68910678D01*
X64879335Y-68895072D01*
X64878830Y-68894304D01*
X64878829Y-68894303D01*
X64824008Y-68842582D01*
X64821942Y-68840575D01*
X64408526Y-68427158D01*
X64384376Y-68387750D01*
X64327179Y-68211716D01*
X64327175Y-68211710D01*
X64327174Y-68211706D01*
X64244040Y-68067715D01*
X64232533Y-68047784D01*
X64105871Y-67907112D01*
X64082318Y-67890000D01*
X63952731Y-67795850D01*
X63952732Y-67795850D01*
X63952730Y-67795849D01*
X63952725Y-67795847D01*
X63952722Y-67795845D01*
X63779805Y-67718857D01*
X63779803Y-67718856D01*
X63779800Y-67718855D01*
X63779799Y-67718855D01*
X63744580Y-67711369D01*
X63594646Y-67679500D01*
X63405354Y-67679500D01*
X63287289Y-67704595D01*
X63220200Y-67718855D01*
X63220194Y-67718857D01*
X63047277Y-67795845D01*
X63047268Y-67795850D01*
X62894129Y-67907111D01*
X62894124Y-67907116D01*
X62767469Y-68047781D01*
X62767465Y-68047787D01*
X62672825Y-68211706D01*
X62672819Y-68211720D01*
X62614327Y-68391738D01*
X62614326Y-68391742D01*
X62614326Y-68391744D01*
X62594540Y-68580000D01*
X62613573Y-68761093D01*
X62614327Y-68768261D01*
X62672819Y-68948279D01*
X62672825Y-68948293D01*
X62734958Y-69055909D01*
X62767467Y-69112216D01*
X62767469Y-69112218D01*
X62866784Y-69222519D01*
X62894129Y-69252888D01*
X63047270Y-69364151D01*
X63220197Y-69441144D01*
X63292570Y-69456526D01*
X63341991Y-69483359D01*
X63369746Y-69511114D01*
X63397523Y-69565631D01*
X63389795Y-69622244D01*
X63355072Y-69698276D01*
X63354371Y-69701022D01*
X63314820Y-69835721D01*
X63314819Y-69835725D01*
X63294358Y-69978033D01*
X63294358Y-70044752D01*
X63294353Y-70044767D01*
X63294353Y-70555184D01*
X63294358Y-70555248D01*
X63294358Y-70621964D01*
X63296435Y-70636409D01*
X63286003Y-70696699D01*
X63242125Y-70739342D01*
X63198443Y-70749500D01*
X61927629Y-70749500D01*
X61869438Y-70730593D01*
X61833475Y-70681095D01*
X61827179Y-70661716D01*
X61827175Y-70661709D01*
X61827174Y-70661706D01*
X61761686Y-70548279D01*
X61732533Y-70497784D01*
X61678249Y-70437496D01*
X61605875Y-70357116D01*
X61605870Y-70357111D01*
X61452731Y-70245850D01*
X61452732Y-70245850D01*
X61452730Y-70245849D01*
X61452725Y-70245847D01*
X61452722Y-70245845D01*
X61314388Y-70184254D01*
X61279803Y-70168856D01*
X61279800Y-70168855D01*
X61279799Y-70168855D01*
X61224824Y-70157170D01*
X61094646Y-70129500D01*
X60905354Y-70129500D01*
X60837231Y-70143979D01*
X60745082Y-70163566D01*
X60684232Y-70157170D01*
X60638763Y-70116228D01*
X60625500Y-70066729D01*
X60625500Y-69406108D01*
X60644407Y-69347917D01*
X60689901Y-69313350D01*
X60742331Y-69293796D01*
X60857546Y-69207546D01*
X60943796Y-69092331D01*
X60945535Y-69087670D01*
X60976627Y-69004305D01*
X60994091Y-68957483D01*
X61000500Y-68897873D01*
X61000499Y-67302128D01*
X60994091Y-67242517D01*
X60985506Y-67219500D01*
X60943797Y-67107670D01*
X60857549Y-66992458D01*
X60857548Y-66992457D01*
X60857546Y-66992454D01*
X60842806Y-66981420D01*
X60742331Y-66906204D01*
X60715215Y-66896090D01*
X60667301Y-66858039D01*
X60650904Y-66799091D01*
X60672286Y-66741764D01*
X60691625Y-66723238D01*
X60705871Y-66712888D01*
X60832533Y-66572216D01*
X60927179Y-66408284D01*
X60985674Y-66228256D01*
X61005460Y-66040000D01*
X60985674Y-65851744D01*
X60927179Y-65671716D01*
X60927176Y-65671711D01*
X60927174Y-65671706D01*
X60878551Y-65587490D01*
X60832533Y-65507784D01*
X60711072Y-65372888D01*
X60705875Y-65367116D01*
X60705870Y-65367111D01*
X60599260Y-65289655D01*
X60552730Y-65255849D01*
X60552725Y-65255847D01*
X60552722Y-65255845D01*
X60391700Y-65184153D01*
X60379803Y-65178856D01*
X60379800Y-65178855D01*
X60379799Y-65178855D01*
X60344580Y-65171369D01*
X60194646Y-65139500D01*
X60194643Y-65139500D01*
X60125098Y-65139500D01*
X60066907Y-65120593D01*
X60055094Y-65110504D01*
X59354496Y-64409905D01*
X59326719Y-64355388D01*
X59325500Y-64339901D01*
X59325500Y-58823793D01*
X59344407Y-58765602D01*
X59393907Y-58729638D01*
X59455093Y-58729638D01*
X59494504Y-58753789D01*
X60884563Y-60143848D01*
X60912340Y-60198365D01*
X60913016Y-60224198D01*
X60894540Y-60400000D01*
X60911889Y-60565073D01*
X60914327Y-60588261D01*
X60972819Y-60768279D01*
X60972825Y-60768293D01*
X61048015Y-60898525D01*
X61067467Y-60932216D01*
X61067469Y-60932218D01*
X61187777Y-61065834D01*
X61194129Y-61072888D01*
X61347270Y-61184151D01*
X61520197Y-61261144D01*
X61705354Y-61300500D01*
X61705357Y-61300500D01*
X61894643Y-61300500D01*
X61894646Y-61300500D01*
X62079803Y-61261144D01*
X62252730Y-61184151D01*
X62405871Y-61072888D01*
X62532533Y-60932216D01*
X62620766Y-60779390D01*
X62666235Y-60738451D01*
X62727085Y-60732055D01*
X62776506Y-60758888D01*
X63324162Y-61306544D01*
X63351939Y-61361061D01*
X63348313Y-61407140D01*
X63314326Y-61511741D01*
X63306544Y-61585782D01*
X63294540Y-61700000D01*
X63312710Y-61872883D01*
X63314327Y-61888261D01*
X63372819Y-62068279D01*
X63372825Y-62068293D01*
X63442568Y-62189089D01*
X63467467Y-62232216D01*
X63467469Y-62232218D01*
X63555826Y-62330349D01*
X63594129Y-62372888D01*
X63747270Y-62484151D01*
X63920197Y-62561144D01*
X64105354Y-62600500D01*
X64105357Y-62600500D01*
X64294643Y-62600500D01*
X64294646Y-62600500D01*
X64479803Y-62561144D01*
X64652730Y-62484151D01*
X64805871Y-62372888D01*
X64840786Y-62334109D01*
X64893773Y-62303517D01*
X64954623Y-62309911D01*
X64984362Y-62330349D01*
X66374158Y-63720144D01*
X66401935Y-63774661D01*
X66392364Y-63835093D01*
X66377728Y-63856389D01*
X66367469Y-63867783D01*
X66367465Y-63867789D01*
X66272825Y-64031708D01*
X66272819Y-64031722D01*
X66214327Y-64211740D01*
X66214326Y-64211744D01*
X66214326Y-64211746D01*
X66194540Y-64400002D01*
X66213528Y-64580668D01*
X66214327Y-64588263D01*
X66272819Y-64768281D01*
X66272825Y-64768295D01*
X66342088Y-64888261D01*
X66367467Y-64932218D01*
X66367469Y-64932220D01*
X66492957Y-65071589D01*
X66494129Y-65072890D01*
X66647270Y-65184153D01*
X66820197Y-65261146D01*
X67005354Y-65300502D01*
X67005357Y-65300502D01*
X67194641Y-65300502D01*
X67194646Y-65300502D01*
X67254919Y-65287690D01*
X67315767Y-65294086D01*
X67361236Y-65335027D01*
X67374500Y-65384527D01*
X67374500Y-75599901D01*
X67355593Y-75658092D01*
X67345504Y-75669905D01*
X65544907Y-77470502D01*
X65490390Y-77498279D01*
X65474903Y-77499498D01*
X59112617Y-77499498D01*
X59054426Y-77480591D01*
X59039046Y-77466742D01*
X59025871Y-77452110D01*
X59025870Y-77452109D01*
X58872731Y-77340848D01*
X58872732Y-77340848D01*
X58872730Y-77340847D01*
X58872725Y-77340845D01*
X58872722Y-77340843D01*
X58699805Y-77263855D01*
X58699803Y-77263854D01*
X58699800Y-77263853D01*
X58699799Y-77263853D01*
X58664580Y-77256367D01*
X58514646Y-77224498D01*
X58325354Y-77224498D01*
X58207289Y-77249593D01*
X58140200Y-77263853D01*
X58140194Y-77263855D01*
X57967277Y-77340843D01*
X57967268Y-77340848D01*
X57814129Y-77452109D01*
X57814124Y-77452114D01*
X57687469Y-77592779D01*
X57687465Y-77592785D01*
X57592825Y-77756704D01*
X57592819Y-77756718D01*
X57534327Y-77936736D01*
X57514540Y-78124998D01*
X57534327Y-78313259D01*
X57592819Y-78493277D01*
X57592825Y-78493291D01*
X57667809Y-78623166D01*
X57687467Y-78657214D01*
X57687469Y-78657216D01*
X57772896Y-78752093D01*
X57814129Y-78797886D01*
X57967270Y-78909149D01*
X58140197Y-78986142D01*
X58325354Y-79025498D01*
X58325357Y-79025498D01*
X58514643Y-79025498D01*
X58514646Y-79025498D01*
X58699803Y-78986142D01*
X58872730Y-78909149D01*
X59025871Y-78797886D01*
X59039046Y-78783254D01*
X59092034Y-78752661D01*
X59112617Y-78750498D01*
X65695019Y-78750498D01*
X65709472Y-78752093D01*
X65709473Y-78752085D01*
X65715667Y-78752670D01*
X65715669Y-78752671D01*
X65715670Y-78752670D01*
X65715671Y-78752671D01*
X65783257Y-78750547D01*
X65786367Y-78750498D01*
X65814345Y-78750498D01*
X65814352Y-78750498D01*
X65819509Y-78749846D01*
X65828802Y-78749115D01*
X65873629Y-78747707D01*
X65894753Y-78741568D01*
X65909963Y-78738419D01*
X65931794Y-78735662D01*
X65931798Y-78735660D01*
X65931800Y-78735660D01*
X65973504Y-78719148D01*
X65982318Y-78716129D01*
X66025392Y-78703616D01*
X66044327Y-78692417D01*
X66058267Y-78685587D01*
X66078734Y-78677484D01*
X66115038Y-78651106D01*
X66122807Y-78646003D01*
X66161422Y-78623168D01*
X66176980Y-78607608D01*
X66188786Y-78597525D01*
X66206589Y-78584592D01*
X66235186Y-78550022D01*
X66241442Y-78543146D01*
X68385746Y-76398843D01*
X68397086Y-76389760D01*
X68397080Y-76389753D01*
X68401869Y-76385790D01*
X68401877Y-76385786D01*
X68448194Y-76336462D01*
X68450296Y-76334293D01*
X68470120Y-76314471D01*
X68473308Y-76310360D01*
X68479348Y-76303288D01*
X68510062Y-76270582D01*
X68520661Y-76251299D01*
X68529192Y-76238314D01*
X68542671Y-76220938D01*
X68542673Y-76220936D01*
X68558513Y-76184329D01*
X68560485Y-76179773D01*
X68564590Y-76171393D01*
X68586196Y-76132094D01*
X68589002Y-76121165D01*
X68591671Y-76110770D01*
X68596699Y-76096087D01*
X68605437Y-76075896D01*
X68612456Y-76031576D01*
X68614339Y-76022484D01*
X68625500Y-75979019D01*
X68625500Y-75957016D01*
X68626719Y-75941529D01*
X68626801Y-75941007D01*
X68630160Y-75919804D01*
X68625939Y-75875150D01*
X68625500Y-75865834D01*
X68625500Y-73649098D01*
X68644407Y-73590907D01*
X68693907Y-73554943D01*
X68755093Y-73554943D01*
X68794504Y-73579094D01*
X73367299Y-78151889D01*
X73395076Y-78206406D01*
X73395753Y-78211544D01*
X73414327Y-78388261D01*
X73472819Y-78568279D01*
X73472825Y-78568293D01*
X73540542Y-78685581D01*
X73567467Y-78732216D01*
X73694129Y-78872888D01*
X73847270Y-78984151D01*
X73847274Y-78984152D01*
X73847276Y-78984154D01*
X73883287Y-79000187D01*
X73981371Y-79043857D01*
X74026839Y-79084797D01*
X74039561Y-79144645D01*
X74014675Y-79200541D01*
X74011107Y-79204300D01*
X73669906Y-79545503D01*
X73615389Y-79573281D01*
X73599902Y-79574500D01*
X56692617Y-79574500D01*
X56634426Y-79555593D01*
X56619046Y-79541744D01*
X56605871Y-79527112D01*
X56605870Y-79527111D01*
X56452731Y-79415850D01*
X56452732Y-79415850D01*
X56452730Y-79415849D01*
X56452725Y-79415847D01*
X56452722Y-79415845D01*
X56279805Y-79338857D01*
X56279803Y-79338856D01*
X56279800Y-79338855D01*
X56279799Y-79338855D01*
X56244580Y-79331369D01*
X56094646Y-79299500D01*
X55905354Y-79299500D01*
X55787289Y-79324595D01*
X55720200Y-79338855D01*
X55720194Y-79338857D01*
X55547277Y-79415845D01*
X55547268Y-79415850D01*
X55394129Y-79527111D01*
X55394124Y-79527116D01*
X55267469Y-79667781D01*
X55267465Y-79667787D01*
X55172825Y-79831706D01*
X55172819Y-79831720D01*
X55114327Y-80011738D01*
X55094540Y-80200000D01*
X55114327Y-80388261D01*
X55172819Y-80568279D01*
X55172825Y-80568293D01*
X55247809Y-80698168D01*
X55267467Y-80732216D01*
X55267469Y-80732218D01*
X55352896Y-80827095D01*
X55394129Y-80872888D01*
X55547270Y-80984151D01*
X55720197Y-81061144D01*
X55905354Y-81100500D01*
X55905357Y-81100500D01*
X56094643Y-81100500D01*
X56094646Y-81100500D01*
X56279803Y-81061144D01*
X56452730Y-80984151D01*
X56605871Y-80872888D01*
X56619046Y-80858256D01*
X56672034Y-80827663D01*
X56692617Y-80825500D01*
X73820017Y-80825500D01*
X73834470Y-80827095D01*
X73834471Y-80827087D01*
X73840665Y-80827672D01*
X73840667Y-80827673D01*
X73840668Y-80827672D01*
X73840669Y-80827673D01*
X73908255Y-80825549D01*
X73911365Y-80825500D01*
X73939343Y-80825500D01*
X73939350Y-80825500D01*
X73944507Y-80824848D01*
X73953800Y-80824117D01*
X73998627Y-80822709D01*
X74019751Y-80816570D01*
X74034961Y-80813421D01*
X74056792Y-80810664D01*
X74056796Y-80810662D01*
X74056798Y-80810662D01*
X74098502Y-80794150D01*
X74107316Y-80791131D01*
X74150390Y-80778618D01*
X74169325Y-80767419D01*
X74183265Y-80760589D01*
X74203732Y-80752486D01*
X74240036Y-80726108D01*
X74247805Y-80721005D01*
X74286420Y-80698170D01*
X74301978Y-80682610D01*
X74313784Y-80672527D01*
X74331587Y-80659594D01*
X74360184Y-80625024D01*
X74366440Y-80618148D01*
X78715888Y-76268701D01*
X78727228Y-76259618D01*
X78727222Y-76259611D01*
X78732011Y-76255648D01*
X78732019Y-76255644D01*
X78778336Y-76206320D01*
X78780438Y-76204151D01*
X78800262Y-76184329D01*
X78803450Y-76180218D01*
X78809490Y-76173146D01*
X78840204Y-76140440D01*
X78850803Y-76121157D01*
X78859334Y-76108172D01*
X78868715Y-76096079D01*
X78872815Y-76090794D01*
X78890630Y-76049623D01*
X78894734Y-76041248D01*
X78900037Y-76031602D01*
X78916339Y-76001950D01*
X78921809Y-75980640D01*
X78926838Y-75965952D01*
X78935580Y-75945754D01*
X78942598Y-75901436D01*
X78944487Y-75892322D01*
X78955641Y-75848883D01*
X78955642Y-75848875D01*
X78955642Y-75826875D01*
X78956861Y-75811386D01*
X78960302Y-75789662D01*
X78956081Y-75745008D01*
X78955642Y-75735692D01*
X78955642Y-74510119D01*
X78957237Y-74495671D01*
X78957228Y-74495671D01*
X78957814Y-74489472D01*
X78955691Y-74421904D01*
X78955642Y-74418795D01*
X78955642Y-74390798D01*
X78955642Y-74390792D01*
X78954989Y-74385625D01*
X78954259Y-74376341D01*
X78952851Y-74331517D01*
X78952851Y-74331513D01*
X78946713Y-74310387D01*
X78943563Y-74295179D01*
X78940806Y-74273350D01*
X78924284Y-74231624D01*
X78921272Y-74222825D01*
X78908759Y-74179752D01*
X78897556Y-74160809D01*
X78890730Y-74146874D01*
X78882628Y-74126410D01*
X78872727Y-74112783D01*
X78856267Y-74090127D01*
X78851147Y-74082332D01*
X78828313Y-74043723D01*
X78828311Y-74043720D01*
X78812749Y-74028157D01*
X78802661Y-74016345D01*
X78789736Y-73998555D01*
X78789735Y-73998554D01*
X78755184Y-73969971D01*
X78748285Y-73963694D01*
X78423847Y-73639256D01*
X78414764Y-73627917D01*
X78414757Y-73627924D01*
X78410789Y-73623129D01*
X78410786Y-73623123D01*
X78361512Y-73576851D01*
X78359280Y-73574689D01*
X78339472Y-73554881D01*
X78335365Y-73551695D01*
X78328279Y-73545642D01*
X78295583Y-73514938D01*
X78276302Y-73504339D01*
X78263318Y-73495810D01*
X78254862Y-73489251D01*
X78245934Y-73482325D01*
X78204771Y-73464512D01*
X78196399Y-73460411D01*
X78170878Y-73446382D01*
X78157092Y-73438803D01*
X78157090Y-73438802D01*
X78157086Y-73438800D01*
X78135780Y-73433330D01*
X78121083Y-73428298D01*
X78100896Y-73419562D01*
X78100890Y-73419560D01*
X78056591Y-73412544D01*
X78047463Y-73410654D01*
X78032958Y-73406930D01*
X78004021Y-73399500D01*
X78004019Y-73399500D01*
X77982018Y-73399500D01*
X77966530Y-73398281D01*
X77944804Y-73394839D01*
X77900150Y-73399061D01*
X77890834Y-73399500D01*
X76354983Y-73399500D01*
X76340529Y-73397904D01*
X76340529Y-73397913D01*
X76334330Y-73397326D01*
X76266745Y-73399451D01*
X76263635Y-73399500D01*
X76235648Y-73399500D01*
X76230490Y-73400151D01*
X76221206Y-73400881D01*
X76176372Y-73402291D01*
X76176371Y-73402291D01*
X76155244Y-73408429D01*
X76140034Y-73411578D01*
X76118211Y-73414334D01*
X76076508Y-73430845D01*
X76067690Y-73433864D01*
X76024610Y-73446381D01*
X76005673Y-73457580D01*
X75991733Y-73464409D01*
X75971268Y-73472513D01*
X75934973Y-73498882D01*
X75927185Y-73503997D01*
X75926609Y-73504339D01*
X75888577Y-73526831D01*
X75888576Y-73526832D01*
X75873017Y-73542390D01*
X75861215Y-73552470D01*
X75843412Y-73565405D01*
X75818457Y-73595571D01*
X75802452Y-73609684D01*
X75802918Y-73610247D01*
X75798120Y-73614215D01*
X75751832Y-73663506D01*
X75749673Y-73665734D01*
X75729885Y-73685523D01*
X75729876Y-73685533D01*
X75726689Y-73689641D01*
X75720647Y-73696714D01*
X75689939Y-73729416D01*
X75689935Y-73729421D01*
X75679334Y-73748703D01*
X75670813Y-73761676D01*
X75657325Y-73779066D01*
X75648634Y-73799150D01*
X75608170Y-73845045D01*
X75548457Y-73858390D01*
X75543688Y-73857822D01*
X75450006Y-73844353D01*
X75450000Y-73844353D01*
X74828111Y-73844353D01*
X74828106Y-73844353D01*
X74685659Y-73864834D01*
X74685649Y-73864836D01*
X74636705Y-73879207D01*
X74575545Y-73877459D01*
X74538811Y-73854221D01*
X72829496Y-72144905D01*
X72801719Y-72090388D01*
X72800500Y-72074901D01*
X72800500Y-68270939D01*
X79640630Y-68270939D01*
X79671443Y-68472067D01*
X79671444Y-68472071D01*
X79742114Y-68662887D01*
X79742115Y-68662888D01*
X79849745Y-68835567D01*
X79849747Y-68835569D01*
X79849748Y-68835571D01*
X79859186Y-68845500D01*
X79983909Y-68976708D01*
X79989941Y-68983053D01*
X79989943Y-68983054D01*
X79989946Y-68983057D01*
X80156945Y-69099291D01*
X80156951Y-69099295D01*
X80343940Y-69179539D01*
X80343942Y-69179540D01*
X80543259Y-69220500D01*
X80543262Y-69220500D01*
X81795744Y-69220500D01*
X81821381Y-69217892D01*
X81947438Y-69205074D01*
X82141588Y-69144159D01*
X82319502Y-69045409D01*
X82473895Y-68912866D01*
X82496316Y-68883901D01*
X82546886Y-68849459D01*
X82574602Y-68845500D01*
X84146702Y-68845500D01*
X84204893Y-68864407D01*
X84218456Y-68876292D01*
X84313909Y-68976708D01*
X84319941Y-68983053D01*
X84319943Y-68983054D01*
X84319946Y-68983057D01*
X84486945Y-69099291D01*
X84486951Y-69099295D01*
X84673940Y-69179539D01*
X84673942Y-69179540D01*
X84873259Y-69220500D01*
X84873262Y-69220500D01*
X85825744Y-69220500D01*
X85851381Y-69217892D01*
X85977438Y-69205074D01*
X86171588Y-69144159D01*
X86349502Y-69045409D01*
X86503895Y-68912866D01*
X86628448Y-68751958D01*
X86718060Y-68569271D01*
X86769063Y-68372285D01*
X86779369Y-68169064D01*
X86748556Y-67967929D01*
X86677886Y-67777113D01*
X86570252Y-67604429D01*
X86430059Y-67456947D01*
X86430057Y-67456945D01*
X86430053Y-67456942D01*
X86263054Y-67340708D01*
X86263051Y-67340706D01*
X86263049Y-67340705D01*
X86076058Y-67260460D01*
X86076060Y-67260460D01*
X85996331Y-67244076D01*
X85876741Y-67219500D01*
X85876738Y-67219500D01*
X85300098Y-67219500D01*
X85241907Y-67200593D01*
X85230094Y-67190504D01*
X84404496Y-66364905D01*
X84376719Y-66310388D01*
X84375500Y-66294901D01*
X84375500Y-65208890D01*
X84394407Y-65150699D01*
X84443907Y-65114735D01*
X84446610Y-65113900D01*
X84453953Y-65111744D01*
X84460053Y-65109953D01*
X84581128Y-65032143D01*
X84675377Y-64923373D01*
X84735165Y-64792457D01*
X84742905Y-64738627D01*
X84755647Y-64650005D01*
X84755647Y-63150001D01*
X84755647Y-63150000D01*
X84750500Y-63078039D01*
X84709953Y-62939947D01*
X84708124Y-62937101D01*
X84632144Y-62818873D01*
X84610923Y-62800485D01*
X84523373Y-62724623D01*
X84523371Y-62724622D01*
X84433373Y-62683520D01*
X84388296Y-62642148D01*
X84375500Y-62593467D01*
X84375500Y-61505098D01*
X84394407Y-61446907D01*
X84404496Y-61435094D01*
X85230095Y-60609496D01*
X85284612Y-60581719D01*
X85300099Y-60580500D01*
X85825744Y-60580500D01*
X85851381Y-60577892D01*
X85977438Y-60565074D01*
X86171588Y-60504159D01*
X86349502Y-60405409D01*
X86503895Y-60272866D01*
X86628448Y-60111958D01*
X86718060Y-59929271D01*
X86769063Y-59732285D01*
X86779369Y-59529064D01*
X86748556Y-59327929D01*
X86677886Y-59137113D01*
X86570252Y-58964429D01*
X86430059Y-58816947D01*
X86430057Y-58816945D01*
X86430053Y-58816942D01*
X86263054Y-58700708D01*
X86263051Y-58700706D01*
X86263049Y-58700705D01*
X86076058Y-58620460D01*
X86076060Y-58620460D01*
X85996331Y-58604076D01*
X85876741Y-58579500D01*
X84924258Y-58579500D01*
X84924256Y-58579500D01*
X84772561Y-58594926D01*
X84578410Y-58655841D01*
X84578409Y-58655842D01*
X84400501Y-58754588D01*
X84400498Y-58754590D01*
X84246105Y-58887133D01*
X84246104Y-58887134D01*
X84223684Y-58916099D01*
X84173114Y-58950541D01*
X84145398Y-58954500D01*
X82573298Y-58954500D01*
X82515107Y-58935593D01*
X82501544Y-58923708D01*
X82400063Y-58816951D01*
X82400053Y-58816942D01*
X82233054Y-58700708D01*
X82233051Y-58700706D01*
X82233049Y-58700705D01*
X82046058Y-58620460D01*
X82046060Y-58620460D01*
X81966331Y-58604076D01*
X81846741Y-58579500D01*
X80594258Y-58579500D01*
X80594256Y-58579500D01*
X80442561Y-58594926D01*
X80248410Y-58655841D01*
X80248409Y-58655842D01*
X80070501Y-58754588D01*
X80070498Y-58754590D01*
X79916109Y-58887129D01*
X79791549Y-59048045D01*
X79707248Y-59219907D01*
X79701940Y-59230729D01*
X79667377Y-59364219D01*
X79650936Y-59427719D01*
X79640631Y-59630936D01*
X79640630Y-59630939D01*
X79671443Y-59832067D01*
X79671444Y-59832071D01*
X79742114Y-60022887D01*
X79742115Y-60022888D01*
X79849745Y-60195567D01*
X79849750Y-60195573D01*
X79948540Y-60299500D01*
X79989941Y-60343053D01*
X79989943Y-60343054D01*
X79989946Y-60343057D01*
X80143036Y-60449610D01*
X80156951Y-60459295D01*
X80343940Y-60539539D01*
X80343942Y-60539540D01*
X80543259Y-60580500D01*
X81016660Y-60580500D01*
X81074851Y-60599407D01*
X81110815Y-60648907D01*
X81110815Y-60710093D01*
X81106240Y-60721646D01*
X81101343Y-60732055D01*
X81066626Y-60805829D01*
X81035594Y-60968508D01*
X81035594Y-60968512D01*
X81035594Y-60968514D01*
X81035871Y-60972916D01*
X81045992Y-61133801D01*
X81045992Y-61133803D01*
X81045993Y-61133805D01*
X81062690Y-61185193D01*
X81097173Y-61291320D01*
X81185913Y-61431151D01*
X81185914Y-61431152D01*
X81306644Y-61544526D01*
X81451776Y-61624313D01*
X81612191Y-61665500D01*
X81612193Y-61665500D01*
X81736243Y-61665500D01*
X81859306Y-61649954D01*
X81859307Y-61649953D01*
X81859312Y-61649953D01*
X82013299Y-61588985D01*
X82147287Y-61491637D01*
X82252856Y-61364026D01*
X82323373Y-61214171D01*
X82354406Y-61051486D01*
X82344007Y-60886195D01*
X82292828Y-60728683D01*
X82292826Y-60728680D01*
X82292826Y-60728679D01*
X82204321Y-60589218D01*
X82189104Y-60529955D01*
X82211628Y-60473066D01*
X82239861Y-60449612D01*
X82319502Y-60405409D01*
X82473895Y-60272866D01*
X82496316Y-60243901D01*
X82546886Y-60209459D01*
X82574602Y-60205500D01*
X83625901Y-60205500D01*
X83684092Y-60224407D01*
X83720056Y-60273907D01*
X83720056Y-60335093D01*
X83695904Y-60374504D01*
X83364252Y-60706154D01*
X83352915Y-60715238D01*
X83352921Y-60715246D01*
X83348127Y-60719211D01*
X83348123Y-60719214D01*
X83348119Y-60719217D01*
X83348118Y-60719219D01*
X83301835Y-60768503D01*
X83299676Y-60770731D01*
X83279885Y-60790523D01*
X83279876Y-60790533D01*
X83276689Y-60794641D01*
X83270647Y-60801714D01*
X83239939Y-60834416D01*
X83239935Y-60834421D01*
X83229334Y-60853703D01*
X83220813Y-60866676D01*
X83207325Y-60884066D01*
X83189510Y-60925233D01*
X83185409Y-60933603D01*
X83163804Y-60972905D01*
X83163800Y-60972916D01*
X83158332Y-60994212D01*
X83153303Y-61008903D01*
X83144561Y-61029105D01*
X83144560Y-61029108D01*
X83137543Y-61073411D01*
X83135652Y-61082540D01*
X83124501Y-61125973D01*
X83124500Y-61125984D01*
X83124500Y-61147981D01*
X83123281Y-61163469D01*
X83119839Y-61185193D01*
X83124061Y-61229847D01*
X83124500Y-61239164D01*
X83124500Y-62816131D01*
X83105593Y-62874322D01*
X83090331Y-62890950D01*
X83037069Y-62937101D01*
X83037051Y-62937118D01*
X82942906Y-63045768D01*
X82942897Y-63045781D01*
X82865101Y-63166835D01*
X82865090Y-63166854D01*
X82805072Y-63298276D01*
X82804371Y-63301022D01*
X82764820Y-63435721D01*
X82764819Y-63435725D01*
X82744358Y-63578033D01*
X82744358Y-63644752D01*
X82744353Y-63644767D01*
X82744353Y-64155184D01*
X82744358Y-64155248D01*
X82744358Y-64221966D01*
X82763812Y-64357265D01*
X82763813Y-64357272D01*
X82764820Y-64364279D01*
X82805366Y-64502365D01*
X82805367Y-64502368D01*
X82805368Y-64502370D01*
X82865096Y-64633155D01*
X82865097Y-64633156D01*
X82865101Y-64633164D01*
X82942897Y-64754218D01*
X82942900Y-64754222D01*
X82942903Y-64754226D01*
X83037057Y-64862887D01*
X83037060Y-64862890D01*
X83037067Y-64862896D01*
X83037071Y-64862900D01*
X83090331Y-64909049D01*
X83121927Y-64961444D01*
X83124500Y-64983868D01*
X83124500Y-66515014D01*
X83122904Y-66529464D01*
X83122913Y-66529465D01*
X83122326Y-66535668D01*
X83124451Y-66603254D01*
X83124500Y-66606364D01*
X83124500Y-66634351D01*
X83125151Y-66639509D01*
X83125881Y-66648794D01*
X83127291Y-66693629D01*
X83127291Y-66693633D01*
X83133428Y-66714755D01*
X83136578Y-66729966D01*
X83139334Y-66751787D01*
X83155846Y-66793492D01*
X83158865Y-66802312D01*
X83171081Y-66844353D01*
X83171382Y-66845390D01*
X83178862Y-66858039D01*
X83182580Y-66864325D01*
X83189412Y-66878272D01*
X83197512Y-66898727D01*
X83197514Y-66898732D01*
X83223879Y-66935021D01*
X83229000Y-66942817D01*
X83251828Y-66981418D01*
X83251828Y-66981419D01*
X83267389Y-66996980D01*
X83277473Y-67008786D01*
X83290406Y-67026587D01*
X83290407Y-67026588D01*
X83290408Y-67026589D01*
X83290410Y-67026591D01*
X83324960Y-67055173D01*
X83331860Y-67061450D01*
X83695906Y-67425496D01*
X83723683Y-67480013D01*
X83714112Y-67540445D01*
X83670847Y-67583710D01*
X83625902Y-67594500D01*
X82573298Y-67594500D01*
X82515107Y-67575593D01*
X82501544Y-67563708D01*
X82400063Y-67456951D01*
X82400051Y-67456940D01*
X82230669Y-67339047D01*
X82193710Y-67290286D01*
X82192470Y-67229114D01*
X82210942Y-67194690D01*
X82252856Y-67144026D01*
X82323373Y-66994171D01*
X82354406Y-66831486D01*
X82344007Y-66666195D01*
X82292828Y-66508683D01*
X82292826Y-66508680D01*
X82292826Y-66508679D01*
X82204086Y-66368848D01*
X82169010Y-66335909D01*
X82083356Y-66255474D01*
X81938224Y-66175687D01*
X81938221Y-66175686D01*
X81938222Y-66175686D01*
X81777811Y-66134500D01*
X81777809Y-66134500D01*
X81653758Y-66134500D01*
X81653757Y-66134500D01*
X81530693Y-66150045D01*
X81530686Y-66150047D01*
X81376702Y-66211014D01*
X81376701Y-66211014D01*
X81242712Y-66308363D01*
X81137144Y-66435973D01*
X81066626Y-66585829D01*
X81035594Y-66748508D01*
X81035594Y-66748512D01*
X81045992Y-66913801D01*
X81045992Y-66913803D01*
X81045993Y-66913805D01*
X81092894Y-67058152D01*
X81097174Y-67071323D01*
X81099824Y-67076954D01*
X81097448Y-67078071D01*
X81109935Y-67126731D01*
X81087402Y-67183616D01*
X81035737Y-67216393D01*
X81011131Y-67219500D01*
X80594256Y-67219500D01*
X80442561Y-67234926D01*
X80248410Y-67295841D01*
X80248409Y-67295842D01*
X80070501Y-67394588D01*
X80070498Y-67394590D01*
X79916109Y-67527129D01*
X79916105Y-67527133D01*
X79916105Y-67527134D01*
X79896104Y-67552972D01*
X79791549Y-67688045D01*
X79703038Y-67868489D01*
X79701940Y-67870729D01*
X79656097Y-68047787D01*
X79650936Y-68067719D01*
X79640631Y-68270936D01*
X79640630Y-68270939D01*
X72800500Y-68270939D01*
X72800500Y-65699500D01*
X72819407Y-65641309D01*
X72868907Y-65605345D01*
X72899500Y-65600500D01*
X72994643Y-65600500D01*
X72994646Y-65600500D01*
X73179803Y-65561144D01*
X73352730Y-65484151D01*
X73505871Y-65372888D01*
X73571500Y-65300000D01*
X78094540Y-65300000D01*
X78113894Y-65484149D01*
X78114327Y-65488261D01*
X78172819Y-65668279D01*
X78172825Y-65668293D01*
X78236066Y-65777828D01*
X78267467Y-65832216D01*
X78267469Y-65832218D01*
X78392785Y-65971396D01*
X78394129Y-65972888D01*
X78547270Y-66084151D01*
X78720197Y-66161144D01*
X78905354Y-66200500D01*
X78905357Y-66200500D01*
X79094643Y-66200500D01*
X79094646Y-66200500D01*
X79279803Y-66161144D01*
X79452730Y-66084151D01*
X79605871Y-65972888D01*
X79732533Y-65832216D01*
X79827179Y-65668284D01*
X79885674Y-65488256D01*
X79905460Y-65300000D01*
X79885674Y-65111744D01*
X79827179Y-64931716D01*
X79827176Y-64931711D01*
X79827174Y-64931706D01*
X79773356Y-64838492D01*
X79732533Y-64767784D01*
X79650927Y-64677152D01*
X79626042Y-64621257D01*
X79625500Y-64610909D01*
X79625500Y-62189089D01*
X79644407Y-62130898D01*
X79650929Y-62122845D01*
X79732533Y-62032216D01*
X79824524Y-61872883D01*
X79827174Y-61868293D01*
X79827174Y-61868291D01*
X79827179Y-61868284D01*
X79885674Y-61688256D01*
X79905460Y-61500000D01*
X79885674Y-61311744D01*
X79827179Y-61131716D01*
X79827176Y-61131711D01*
X79827174Y-61131706D01*
X79767938Y-61029108D01*
X79732533Y-60967784D01*
X79678249Y-60907496D01*
X79605875Y-60827116D01*
X79605870Y-60827111D01*
X79483839Y-60738451D01*
X79452730Y-60715849D01*
X79452725Y-60715847D01*
X79452722Y-60715845D01*
X79279805Y-60638857D01*
X79279803Y-60638856D01*
X79279800Y-60638855D01*
X79279799Y-60638855D01*
X79244580Y-60631369D01*
X79094646Y-60599500D01*
X78905354Y-60599500D01*
X78787289Y-60624595D01*
X78720200Y-60638855D01*
X78720194Y-60638857D01*
X78547277Y-60715845D01*
X78547268Y-60715850D01*
X78394129Y-60827111D01*
X78394124Y-60827116D01*
X78267469Y-60967781D01*
X78267465Y-60967787D01*
X78172825Y-61131706D01*
X78172819Y-61131720D01*
X78114327Y-61311738D01*
X78114326Y-61311742D01*
X78114326Y-61311744D01*
X78094540Y-61500000D01*
X78111934Y-61665500D01*
X78114327Y-61688261D01*
X78172819Y-61868279D01*
X78172825Y-61868293D01*
X78239717Y-61984151D01*
X78267467Y-62032216D01*
X78330048Y-62101719D01*
X78349071Y-62122845D01*
X78373958Y-62178740D01*
X78374500Y-62189089D01*
X78374500Y-64610909D01*
X78355593Y-64669100D01*
X78349075Y-64677149D01*
X78267467Y-64767784D01*
X78267465Y-64767786D01*
X78267465Y-64767787D01*
X78172825Y-64931706D01*
X78172819Y-64931720D01*
X78114327Y-65111738D01*
X78114326Y-65111742D01*
X78114326Y-65111744D01*
X78094540Y-65300000D01*
X73571500Y-65300000D01*
X73632533Y-65232216D01*
X73727179Y-65068284D01*
X73785674Y-64888256D01*
X73804246Y-64711541D01*
X73829132Y-64655648D01*
X73832681Y-64651907D01*
X76885746Y-61598843D01*
X76897086Y-61589760D01*
X76897080Y-61589753D01*
X76901869Y-61585790D01*
X76901877Y-61585786D01*
X76948194Y-61536462D01*
X76950296Y-61534293D01*
X76970120Y-61514471D01*
X76973308Y-61510360D01*
X76979348Y-61503288D01*
X77010062Y-61470582D01*
X77020661Y-61451299D01*
X77029192Y-61438314D01*
X77034748Y-61431152D01*
X77042673Y-61420936D01*
X77060488Y-61379765D01*
X77064592Y-61371390D01*
X77086197Y-61332092D01*
X77091667Y-61310782D01*
X77096696Y-61296094D01*
X77105438Y-61275896D01*
X77112456Y-61231578D01*
X77114345Y-61222464D01*
X77125499Y-61179025D01*
X77125500Y-61179017D01*
X77125500Y-61157017D01*
X77126719Y-61141528D01*
X77127943Y-61133801D01*
X77130160Y-61119804D01*
X77126637Y-61082540D01*
X77125939Y-61075150D01*
X77125500Y-61065834D01*
X77125500Y-53989089D01*
X77144407Y-53930898D01*
X77150929Y-53922845D01*
X77167782Y-53904128D01*
X77232533Y-53832216D01*
X77327179Y-53668284D01*
X77385674Y-53488256D01*
X77405460Y-53300000D01*
X77385674Y-53111744D01*
X77327179Y-52931716D01*
X77327176Y-52931711D01*
X77327174Y-52931706D01*
X77278551Y-52847490D01*
X77232533Y-52767784D01*
X77105871Y-52627112D01*
X76952730Y-52515849D01*
X76952725Y-52515847D01*
X76952722Y-52515845D01*
X76779805Y-52438857D01*
X76779803Y-52438856D01*
X76779800Y-52438855D01*
X76779799Y-52438855D01*
X76744580Y-52431369D01*
X76594646Y-52399500D01*
X76405354Y-52399500D01*
X76287289Y-52424595D01*
X76220200Y-52438855D01*
X76220194Y-52438857D01*
X76047277Y-52515845D01*
X76047268Y-52515850D01*
X75894129Y-52627111D01*
X75894123Y-52627116D01*
X75772571Y-52762115D01*
X75719583Y-52792708D01*
X75658733Y-52786312D01*
X75613264Y-52745371D01*
X75600000Y-52695871D01*
X75600000Y-50399500D01*
X75618907Y-50341309D01*
X75668407Y-50305345D01*
X75699000Y-50300500D01*
X85952405Y-50300500D01*
X85996462Y-50300500D01*
X86003523Y-50300751D01*
X86234806Y-50317293D01*
X86248787Y-50319304D01*
X86471881Y-50367836D01*
X86485433Y-50371815D01*
X86622649Y-50422992D01*
X86699366Y-50451606D01*
X86712205Y-50457469D01*
X86912607Y-50566898D01*
X86924486Y-50574532D01*
X87107263Y-50711357D01*
X87117939Y-50720607D01*
X87279392Y-50882060D01*
X87288642Y-50892736D01*
X87425467Y-51075513D01*
X87433103Y-51087395D01*
X87542526Y-51287786D01*
X87548394Y-51300636D01*
X87628184Y-51514566D01*
X87632163Y-51528118D01*
X87680695Y-51751212D01*
X87682706Y-51765193D01*
X87699248Y-51996475D01*
X87699500Y-52003538D01*
X87699500Y-85996461D01*
X87699248Y-86003524D01*
X87682706Y-86234806D01*
X87680695Y-86248787D01*
X87632163Y-86471881D01*
X87628184Y-86485433D01*
X87548394Y-86699363D01*
X87542526Y-86712213D01*
X87433103Y-86912604D01*
X87425467Y-86924486D01*
X87288642Y-87107263D01*
X87279392Y-87117939D01*
X87117939Y-87279392D01*
X87107263Y-87288642D01*
X86924486Y-87425467D01*
X86912604Y-87433103D01*
X86712213Y-87542526D01*
X86699363Y-87548394D01*
X86485433Y-87628184D01*
X86471881Y-87632163D01*
X86248787Y-87680695D01*
X86234806Y-87682706D01*
X86031124Y-87697274D01*
X86003522Y-87699248D01*
X85996462Y-87699500D01*
X52003538Y-87699500D01*
X51996477Y-87699248D01*
X51966467Y-87697101D01*
X51765193Y-87682706D01*
X51751212Y-87680695D01*
X51528118Y-87632163D01*
X51514566Y-87628184D01*
X51300636Y-87548394D01*
X51287786Y-87542526D01*
X51087395Y-87433103D01*
X51075513Y-87425467D01*
X50892736Y-87288642D01*
X50882060Y-87279392D01*
X50720607Y-87117939D01*
X50711357Y-87107263D01*
X50574530Y-86924483D01*
X50566896Y-86912604D01*
X50457469Y-86712205D01*
X50451605Y-86699363D01*
X50371815Y-86485433D01*
X50367836Y-86471881D01*
X50319304Y-86248787D01*
X50317293Y-86234805D01*
X50300752Y-86003523D01*
X50300500Y-85996461D01*
X50300500Y-58373701D01*
X50319407Y-58315510D01*
X50368907Y-58279546D01*
X50430093Y-58279546D01*
X50479593Y-58315510D01*
X50495125Y-58348075D01*
X50514398Y-58420000D01*
X50526097Y-58463662D01*
X50623660Y-58672888D01*
X50625965Y-58677830D01*
X50677260Y-58751087D01*
X50754321Y-58861142D01*
X50761505Y-58871401D01*
X50928599Y-59038495D01*
X50928602Y-59038497D01*
X50928603Y-59038498D01*
X50942238Y-59048045D01*
X51122170Y-59174035D01*
X51336337Y-59273903D01*
X51564592Y-59335063D01*
X51564596Y-59335063D01*
X51564599Y-59335064D01*
X51799996Y-59355659D01*
X51800000Y-59355659D01*
X51800004Y-59355659D01*
X52035400Y-59335064D01*
X52035401Y-59335063D01*
X52035408Y-59335063D01*
X52263663Y-59273903D01*
X52477830Y-59174035D01*
X52671401Y-59038495D01*
X52838495Y-58871401D01*
X52974035Y-58677830D01*
X53073903Y-58463663D01*
X53135063Y-58235408D01*
X53139188Y-58188261D01*
X53155659Y-58000004D01*
X53155659Y-57999995D01*
X53135064Y-57764599D01*
X53135063Y-57764596D01*
X53135063Y-57764592D01*
X53073903Y-57536337D01*
X53066052Y-57519500D01*
X52974040Y-57322181D01*
X52974036Y-57322173D01*
X52899588Y-57215850D01*
X52838495Y-57128599D01*
X52683938Y-56974042D01*
X52656163Y-56919528D01*
X52665734Y-56859096D01*
X52708999Y-56815831D01*
X52743364Y-56805608D01*
X52757483Y-56804091D01*
X52824907Y-56778943D01*
X52892329Y-56753797D01*
X52892329Y-56753796D01*
X52892331Y-56753796D01*
X53007546Y-56667546D01*
X53093796Y-56552331D01*
X53144091Y-56417483D01*
X53150500Y-56357873D01*
X53150499Y-54562128D01*
X53144091Y-54502517D01*
X53142966Y-54499500D01*
X53093797Y-54367670D01*
X53007549Y-54252458D01*
X53007548Y-54252457D01*
X53007546Y-54252454D01*
X53007541Y-54252450D01*
X52892329Y-54166202D01*
X52757488Y-54115910D01*
X52757483Y-54115909D01*
X52757481Y-54115908D01*
X52757477Y-54115908D01*
X52726249Y-54112550D01*
X52697873Y-54109500D01*
X52697870Y-54109500D01*
X50902133Y-54109500D01*
X50902129Y-54109500D01*
X50902128Y-54109501D01*
X50894949Y-54110272D01*
X50842519Y-54115908D01*
X50842514Y-54115909D01*
X50707670Y-54166202D01*
X50592458Y-54252450D01*
X50592450Y-54252458D01*
X50506203Y-54367669D01*
X50492258Y-54405059D01*
X50454207Y-54452973D01*
X50395260Y-54469371D01*
X50337933Y-54447989D01*
X50304122Y-54396994D01*
X50300500Y-54370462D01*
X50300500Y-52003538D01*
X50300752Y-51996476D01*
X50317293Y-51765194D01*
X50319304Y-51751212D01*
X50355557Y-51584565D01*
X50367836Y-51528115D01*
X50371815Y-51514566D01*
X50446493Y-51314343D01*
X50451608Y-51300627D01*
X50457466Y-51287799D01*
X50566901Y-51087385D01*
X50574525Y-51075522D01*
X50711364Y-50892727D01*
X50720600Y-50882067D01*
X50882067Y-50720600D01*
X50892727Y-50711364D01*
X51075522Y-50574525D01*
X51087385Y-50566901D01*
X51287799Y-50457466D01*
X51300627Y-50451608D01*
X51514566Y-50371815D01*
X51528115Y-50367836D01*
X51751215Y-50319303D01*
X51765191Y-50317293D01*
X51996476Y-50300751D01*
X52003538Y-50300500D01*
X52047595Y-50300500D01*
X62301000Y-50300500D01*
X62359191Y-50319407D01*
G37*
G04 #@! TD.AperFunction*
M02*
