G04 #@! TF.GenerationSoftware,KiCad,Pcbnew,7.0.10*
G04 #@! TF.CreationDate,2024-02-28T00:56:54-06:00*
G04 #@! TF.ProjectId,sensingBoard,73656e73-696e-4674-926f-6172642e6b69,rev?*
G04 #@! TF.SameCoordinates,Original*
G04 #@! TF.FileFunction,Paste,Top*
G04 #@! TF.FilePolarity,Positive*
%FSLAX46Y46*%
G04 Gerber Fmt 4.6, Leading zero omitted, Abs format (unit mm)*
G04 Created by KiCad (PCBNEW 7.0.10) date 2024-02-28 00:56:54*
%MOMM*%
%LPD*%
G01*
G04 APERTURE LIST*
G04 Aperture macros list*
%AMRoundRect*
0 Rectangle with rounded corners*
0 $1 Rounding radius*
0 $2 $3 $4 $5 $6 $7 $8 $9 X,Y pos of 4 corners*
0 Add a 4 corners polygon primitive as box body*
4,1,4,$2,$3,$4,$5,$6,$7,$8,$9,$2,$3,0*
0 Add four circle primitives for the rounded corners*
1,1,$1+$1,$2,$3*
1,1,$1+$1,$4,$5*
1,1,$1+$1,$6,$7*
1,1,$1+$1,$8,$9*
0 Add four rect primitives between the rounded corners*
20,1,$1+$1,$2,$3,$4,$5,0*
20,1,$1+$1,$4,$5,$6,$7,0*
20,1,$1+$1,$6,$7,$8,$9,0*
20,1,$1+$1,$8,$9,$2,$3,0*%
%AMFreePoly0*
4,1,6,0.725000,-0.725000,-0.725000,-0.725000,-0.725000,0.125000,-0.125000,0.725000,0.725000,0.725000,0.725000,-0.725000,0.725000,-0.725000,$1*%
G04 Aperture macros list end*
%ADD10RoundRect,0.250000X0.475000X-0.337500X0.475000X0.337500X-0.475000X0.337500X-0.475000X-0.337500X0*%
%ADD11R,0.250000X0.475000*%
%ADD12R,0.375000X0.250000*%
%ADD13RoundRect,0.250000X-0.350000X-0.450000X0.350000X-0.450000X0.350000X0.450000X-0.350000X0.450000X0*%
%ADD14R,2.000000X1.350000*%
%ADD15RoundRect,0.250000X0.450000X-0.350000X0.450000X0.350000X-0.450000X0.350000X-0.450000X-0.350000X0*%
%ADD16RoundRect,0.250000X-0.325000X-0.450000X0.325000X-0.450000X0.325000X0.450000X-0.325000X0.450000X0*%
%ADD17RoundRect,0.150000X0.150000X0.625000X-0.150000X0.625000X-0.150000X-0.625000X0.150000X-0.625000X0*%
%ADD18RoundRect,0.250000X0.350000X0.650000X-0.350000X0.650000X-0.350000X-0.650000X0.350000X-0.650000X0*%
%ADD19R,2.000000X1.500000*%
%ADD20R,2.000000X3.800000*%
%ADD21R,0.800000X0.400000*%
%ADD22R,0.400000X0.800000*%
%ADD23FreePoly0,0.000000*%
%ADD24R,1.450000X1.450000*%
%ADD25R,0.700000X0.700000*%
%ADD26RoundRect,0.250000X-0.475000X0.337500X-0.475000X-0.337500X0.475000X-0.337500X0.475000X0.337500X0*%
%ADD27RoundRect,0.250000X0.350000X0.450000X-0.350000X0.450000X-0.350000X-0.450000X0.350000X-0.450000X0*%
%ADD28R,1.100000X1.900000*%
%ADD29RoundRect,0.250000X0.337500X0.475000X-0.337500X0.475000X-0.337500X-0.475000X0.337500X-0.475000X0*%
%ADD30RoundRect,0.150000X0.425000X-0.150000X0.425000X0.150000X-0.425000X0.150000X-0.425000X-0.150000X0*%
%ADD31RoundRect,0.075000X0.500000X-0.075000X0.500000X0.075000X-0.500000X0.075000X-0.500000X-0.075000X0*%
%ADD32O,2.100000X1.000000*%
%ADD33O,1.800000X1.000000*%
%ADD34RoundRect,0.250000X-0.450000X0.350000X-0.450000X-0.350000X0.450000X-0.350000X0.450000X0.350000X0*%
G04 APERTURE END LIST*
D10*
X58000000Y-85775000D03*
X58000000Y-83700000D03*
D11*
X60450000Y-78962500D03*
D12*
X60512500Y-78150000D03*
X60512500Y-77650000D03*
X60512500Y-77150000D03*
X60512500Y-76650000D03*
D11*
X60450000Y-75837500D03*
X59950000Y-75837500D03*
X59450000Y-75837500D03*
X58950000Y-75837500D03*
X58450000Y-75837500D03*
X57950000Y-75837500D03*
X57450000Y-75837500D03*
X56950000Y-75837500D03*
X56450000Y-75837500D03*
X55950000Y-75837500D03*
D12*
X55887500Y-76650000D03*
X55887500Y-77150000D03*
X55887500Y-77650000D03*
X55887500Y-78150000D03*
D11*
X55950000Y-78962500D03*
X56450000Y-78962500D03*
X56950000Y-78962500D03*
X57450000Y-78962500D03*
X57950000Y-78962500D03*
X58450000Y-78962500D03*
X58950000Y-78962500D03*
X59450000Y-78962500D03*
X59950000Y-78962500D03*
D13*
X68300000Y-79500000D03*
X70300000Y-79500000D03*
D14*
X58700000Y-52450000D03*
X58700000Y-56600000D03*
D15*
X71400000Y-71600000D03*
X71400000Y-69600000D03*
D16*
X68325000Y-81500000D03*
X70375000Y-81500000D03*
D17*
X85200000Y-82800000D03*
X84200000Y-82800000D03*
X83200000Y-82800000D03*
X82200000Y-82800000D03*
D18*
X86500000Y-85325000D03*
X80900000Y-85325000D03*
D10*
X60400000Y-85875000D03*
X60400000Y-83800000D03*
D16*
X68350000Y-83600000D03*
X70400000Y-83600000D03*
D13*
X68400000Y-85600000D03*
X70400000Y-85600000D03*
D19*
X85950000Y-78100000D03*
X85950000Y-75800000D03*
D20*
X79650000Y-75800000D03*
D19*
X85950000Y-73500000D03*
D21*
X63100000Y-57100000D03*
X63100000Y-57900000D03*
X63100000Y-58700000D03*
X63100000Y-59500000D03*
X63100000Y-60300000D03*
X63100000Y-61100000D03*
X63100000Y-61900000D03*
X63100000Y-62700000D03*
X63100000Y-63500000D03*
X63100000Y-64300000D03*
X63100000Y-65100000D03*
D22*
X64200000Y-66000000D03*
X65000000Y-66000000D03*
X65800000Y-66000000D03*
X66600000Y-66000000D03*
X67400000Y-66000000D03*
X68200000Y-66000000D03*
X69000000Y-66000000D03*
X69800000Y-66000000D03*
X70600000Y-66000000D03*
X71400000Y-66000000D03*
X72200000Y-66000000D03*
X73000000Y-66000000D03*
X73800000Y-66000000D03*
D21*
X74900000Y-65100000D03*
X74900000Y-64300000D03*
X74900000Y-63500000D03*
X74900000Y-62700000D03*
X74900000Y-61900000D03*
X74900000Y-61100000D03*
X74900000Y-60300000D03*
X74900000Y-59500000D03*
X74900000Y-58700000D03*
X74900000Y-57900000D03*
X74900000Y-57100000D03*
D22*
X73800000Y-56200000D03*
X73000000Y-56200000D03*
X72200000Y-56200000D03*
X71400000Y-56200000D03*
X70600000Y-56200000D03*
X69800000Y-56200000D03*
X69000000Y-56200000D03*
X68200000Y-56200000D03*
X67400000Y-56200000D03*
X66600000Y-56200000D03*
X65800000Y-56200000D03*
X65000000Y-56200000D03*
X64200000Y-56200000D03*
D23*
X67025000Y-59125000D03*
D24*
X67025000Y-61100000D03*
X67025000Y-63075000D03*
X69000000Y-59125000D03*
X69000000Y-61100000D03*
X69000000Y-63075000D03*
X70975000Y-59125000D03*
X70975000Y-61100000D03*
X70975000Y-63075000D03*
D25*
X74950000Y-56150000D03*
X74950000Y-66050000D03*
X63050000Y-66050000D03*
X63050000Y-56150000D03*
D26*
X58955750Y-71862500D03*
X58955750Y-73937500D03*
D27*
X84600000Y-55000000D03*
X82600000Y-55000000D03*
D28*
X58055750Y-81700000D03*
X60455750Y-81700000D03*
D29*
X60137500Y-62700000D03*
X58062500Y-62700000D03*
D10*
X77000000Y-83975000D03*
X77000000Y-81900000D03*
D14*
X78700000Y-56950000D03*
X78700000Y-52800000D03*
D29*
X60175000Y-60500000D03*
X58100000Y-60500000D03*
D27*
X84600000Y-56900000D03*
X82600000Y-56900000D03*
D13*
X58100000Y-64700000D03*
X60100000Y-64700000D03*
D15*
X56000000Y-73900000D03*
X56000000Y-71900000D03*
D30*
X80620000Y-67100000D03*
X80620000Y-66300000D03*
D31*
X80620000Y-65150000D03*
X80620000Y-64150000D03*
X80620000Y-63650000D03*
X80620000Y-62650000D03*
D30*
X80620000Y-61500000D03*
X80620000Y-60700000D03*
X80620000Y-60700000D03*
X80620000Y-61500000D03*
D31*
X80620000Y-62150000D03*
X80620000Y-63150000D03*
X80620000Y-64650000D03*
X80620000Y-65650000D03*
D30*
X80620000Y-66300000D03*
X80620000Y-67100000D03*
D32*
X81195000Y-68220000D03*
D33*
X85375000Y-68220000D03*
D32*
X81195000Y-59580000D03*
D33*
X85375000Y-59580000D03*
D15*
X60900000Y-73900000D03*
X60900000Y-71900000D03*
X62800000Y-73900000D03*
X62800000Y-71900000D03*
D29*
X83737500Y-71200000D03*
X81662500Y-71200000D03*
D34*
X69300000Y-69600000D03*
X69300000Y-71600000D03*
M02*
